<?xml version="1.0" standalone="no"?>
<!DOCTYPE svg PUBLIC "-//W3C//DTD SVG 1.1//EN" "http://www.w3.org/Graphics/SVG/1.1/DTD/svg11.dtd" >
<svg>
<metadata>
Created by FontForge 20090914 at Thu Mar 31 08:39:11 2016
 By www-data
(c) Copyright 2001 by Tom Truong. All Rights Reserved
</metadata>
<defs>
<font id="UVNPhuongTay" horiz-adv-x="1161" >
  <font-face 
    font-family="UVN Phuong Tay"
    font-weight="400"
    font-style="italic"
    font-stretch="normal"
    units-per-em="2048"
    panose-1="4 4 8 5 7 8 2 2 13 2"
    ascent="1638"
    descent="-410"
    x-height="1001"
    cap-height="1378"
    bbox="-423 -544.001 2373 2150"
    underline-thickness="178"
    underline-position="-89"
    slope="170"
    unicode-range="U+0020-U+F002"
  />
<missing-glyph horiz-adv-x="1024" 
d="M128 0v2150h768v-2150h-768zM256 128h512v1894h-512v-1894z" />
    <glyph glyph-name=".notdef" horiz-adv-x="1024" 
d="M128 0v2150h768v-2150h-768zM256 128h512v1894h-512v-1894z" />
    <glyph glyph-name="space" unicode=" " horiz-adv-x="410" 
 />
    <glyph glyph-name="exclam" unicode="!" horiz-adv-x="678" 
d="M369 1338c52.667 0 114.332 9.00293 184.999 27.0029c26 6.66699 44.667 10 56 10c46.667 0 70 -34 70 -102c0 -46 -19.667 -118.667 -59 -218l-92 -213l-101 -241c-6.66699 -14.667 -10 -25.334 -10 -32.001c0 -6 5.33301 -15.5 16 -28.5s16 -24.5 16 -34.5
c0 -20 -7.16699 -34.333 -21.5 -43s-46.166 -16.334 -95.499 -23.001c-14.667 -2 -42 -9 -82 -21c-36 -10.667 -60 -16 -72 -16c-38.667 0 -58 28.667 -58 86c0 59.333 32 188 96 386c59.333 183.333 89 286.666 89 309.999c0 26.667 -12.833 48 -38.5 64
s-38.5 31.667 -38.5 47c0 28.667 16.667 43 50 43h45c20.667 -0.666992 35.667 -1 45 -1zM299.998 323.003c36.667 0 67.667 -12.667 93 -38s38 -56.333 38 -93c0 -52 -30 -98 -90 -138c-54 -36.667 -108.667 -55 -164 -55c-38 0 -70.167 12.667 -96.5 38s-39.5 57 -39.5 95
c0 56.667 30 104 90 142c52 32.667 108.333 49 169 49z" />
    <glyph glyph-name="quotedbl" unicode="&#x22;" horiz-adv-x="760" 
d="M425 1383c65.333 0 98 -16.333 98 -49c0 -16 -25.333 -91.333 -76 -226c-51.333 -137.333 -86.666 -222 -105.999 -254c-22.667 -36.667 -48.667 -55 -78 -55c-42 0 -63 25.667 -63 77c0 32.667 18.5 113 55.5 241s63.667 204.333 80 229s46.166 37 89.499 37zM784 1383
c65.333 0 97.999 -16.333 97.999 -49c0 -16 -25.333 -91.333 -76 -226c-51.333 -137.333 -86.666 -222 -105.999 -254c-22.667 -36.667 -48.667 -55 -78 -55c-42 0 -63 25.667 -63 77c0 32 18.667 112.5 56 241.5s64 205.5 80 229.5s45.667 36 89 36z" />
    <glyph glyph-name="numbersign" unicode="#" horiz-adv-x="1435" 
d="M654 1061l333 -0.00195312l89 293c4 13.333 13 20 27 20h114c17.333 0 26 -7 26 -21c0 -3.33301 -29 -100.666 -87 -291.999h261c17.333 0 26 -7 26 -21c0 -3.33301 -11.667 -43.666 -35 -120.999c-4 -13.333 -13 -20 -27 -20h-274l-109 -359h261c17.333 0 26 -7 26 -21
c0 -3.33301 -11.667 -43.666 -35 -120.999c-4 -13.333 -13 -20 -27 -20h-274l-106 -349c-4 -13.333 -12.667 -20 -26 -20h-103c-17.333 0 -26 6.33301 -26 19c0 4 33.667 120.667 101 350h-342l-105 -349c-4 -13.333 -13 -20 -27 -20h-114c-17.333 0 -26 7 -26 21
c0 3.33301 34.667 119.333 104 348h-261c-17.333 0 -26 7 -26 21c0 3.33301 11.667 43.666 35 120.999c4 13.333 13 20 27 20h274l109 359h-261c-17.333 0 -26 7 -26 21c0 3.33301 11.667 43.666 35 120.999c4 13.333 13 20 27 20h273l89 293c4 13.333 13 20 27 20h114
c17.333 0 26 -7 26 -21c0 -3.33301 -29 -100.666 -87 -291.999zM605 898.998l-109 -359h333l109 359h-333z" />
    <glyph glyph-name="dollar" unicode="$" 
d="M870 1373c170.667 -34.667 256.001 -110.335 256.001 -227.002c0 -47.333 -14.667 -89.333 -44 -126c-32 -40 -71 -60 -117 -60c-32.667 0 -61 10.333 -85 31c-26 22 -39 49 -39 81c0 29.333 14 55.5 42 78.5s42 39.167 42 48.5c0 42.667 -41 64 -123 64
c-58 0 -110.667 -18 -158 -54c-51.333 -39.333 -77 -87 -77 -143c0 -54 35.667 -108 107 -162l200 -151c71.333 -70 107 -151 107 -243c0 -84 -22 -163.333 -66 -238c-85.333 -145.333 -235 -236.666 -449 -273.999c-34 -104.667 -61 -171.334 -81 -200.001
c-21.333 -31.333 -48.333 -47 -81 -47c-20.667 0 -40 6 -58 18s-27 28 -27 48c0 12.667 11 42 33 88l45 93c-66 9.33301 -125 23.666 -177 42.999c-80 30 -120 65.667 -120 107c0 13.333 5.16699 32.5 15.5 57.5s25.166 77.167 44.499 156.5
c11.333 47.333 22.5 78.833 33.5 94.5s25.5 23.5 43.5 23.5c35.333 0 53 -19.333 53 -58c0 -13.333 -1.33301 -33.5 -4 -60.5s-4 -47.5 -4 -61.5c0 -126.667 60 -190 180 -190c71.333 0 135.833 26.333 193.5 79s86.5 114.667 86.5 186c0 60 -35 117.333 -105 172l-194 148
c-70 68 -105 148 -105 240c0 95.333 33 181.333 99 258c85.333 98.667 209.333 158.667 372 180c22 70.667 38.667 117.334 50 140.001c30 59.333 64.333 89 103 89c20 0 39.667 -6.66699 59 -20s29 -29.666 29 -48.999c0 -13.333 -26.667 -66.666 -80 -159.999z" />
    <glyph glyph-name="percent" unicode="%" horiz-adv-x="1679" 
d="M604 1382c124 0 185.999 -66.333 185.999 -199c0 -130 -54.333 -261.667 -163 -395c-113.333 -140.667 -233.333 -211 -360 -211c-63.333 0 -112.666 18.667 -147.999 56s-53 88 -53 152c0 135.333 55.333 267.333 166 396c114.667 134 238.667 201 372 201z
M545.999 1291c-43.333 0 -93.667 -45.333 -151 -136c-82.667 -131.333 -124 -258 -124 -380c0 -68 20 -102 60 -102c58 0 116.333 62 175 186c57.333 120.667 86 232 86 334c0 65.333 -15.333 98 -46 98zM406.998 -22c-38.667 0 -58 17.999 -58 53.999
c0 19.333 34.333 80.333 103 183l699 1046c18 30 45.333 69.667 82 119c10.667 11.333 23.667 17 39 17c36 0 54 -21 54 -63c0 -17.333 -23 -60.333 -69 -129l-718 -1074c-58.667 -87.333 -95.334 -136.666 -110.001 -147.999c-5.33301 -3.33301 -12.666 -5 -21.999 -5z
M1429 802.999c123.333 0 184.999 -66.332 184.999 -198.999c0 -130 -54.333 -261.667 -163 -395c-113.333 -140.667 -233.333 -211 -360 -211c-63.333 0 -112.666 18.667 -147.999 56s-53 87.666 -53 150.999c0 136 55.333 268.333 166 397c114.667 134 239 201 373 201z
M1370 712c-46 0 -95.667 -44 -149 -132c-39.333 -64.667 -70 -130.667 -92 -198c-22.667 -69.333 -34 -131.333 -34 -186c0 -68 20 -102 60 -102c58 0 116.333 62 175 186c57.333 120.667 86 232 86 334c0 65.333 -15.333 98 -46 98z" />
    <glyph glyph-name="ampersand" unicode="&#x26;" horiz-adv-x="1493" 
d="M768 874l100.999 -268.002c55.333 64 95.333 106.333 120 127c52 42.667 104.333 64 157 64c63.333 0 116.5 -21.667 159.5 -65s64.5 -96.666 64.5 -159.999c0 -67.333 -24 -122.5 -72 -165.5s-106 -64.5 -174 -64.5c-93.333 0 -140 39 -140 117
c0 8.66699 2.66699 20.334 8 35.001s8 25.667 8 33s-3.66699 11 -11 11c-13.333 0 -35.333 -18.667 -66 -56c18.667 -54.667 49.334 -128.667 92.001 -222c18.667 -30 51 -52.333 97 -67c36.667 -11.333 55 -28.333 55 -51c0 -16 -6 -28 -18 -36
c-8 -5.33301 -38.167 -13.333 -90.5 -24s-129.5 -35.667 -231.5 -75c-15.333 -6 -28.333 -9 -39 -9c-36 0 -63 38.667 -81 116c-4 16 -10.333 39.333 -19 70c-62.667 -63.333 -113.667 -107.333 -153 -132c-59.333 -38 -123 -57 -191 -57
c-95.333 0 -174.166 30.333 -236.499 91s-93.5 138.667 -93.5 234c0 112.667 46.667 219.334 140 320.001c62.667 67.333 157.667 140.666 285 219.999c-10 57.333 -15 104.333 -15 141c0 104.667 36.667 193.667 110 267s162.666 110 267.999 110
c64 0 116.667 -15.667 158 -47c45.333 -34.667 68 -83 68 -145c0 -66.667 -29 -129 -87 -187c-35.333 -36 -93 -77.667 -173 -125zM722.999 995.998c82 47.333 123 105.667 123 175c0 61.333 -22.667 92 -68 92c-53.333 0 -80 -36.333 -80 -109
c0 -50 8.33301 -102.667 25 -158zM639.999 300.999l-149.001 381c-72 -66.667 -108 -160.667 -108 -282c0 -40 11.333 -77.667 34 -113c26 -40 57.667 -60 95 -60c38.667 0 81.334 24.667 128.001 74z" />
    <glyph glyph-name="quotesingle" unicode="'" horiz-adv-x="402" 
d="M425 1383c65.333 0 98 -16.333 98 -49c0 -16 -25.333 -91.333 -76 -226c-51.333 -137.333 -86.666 -222 -105.999 -254c-22.667 -36.667 -48.667 -55 -78 -55c-42 0 -63 25.667 -63 77c0 32.667 18.5 113 55.5 241s63.667 204.333 80 229s46.166 37 89.499 37z" />
    <glyph glyph-name="parenleft" unicode="(" horiz-adv-x="760" 
d="M808 1390c40.667 0 61 -26.3311 61 -78.998c0 -21.333 -6.33301 -36 -19 -44c-4.66699 -2.66699 -21 -7.66699 -49 -15c-38.667 -10 -88.667 -49.333 -150 -118c-100 -112.667 -200.333 -297.334 -301 -554.001c-102 -260 -153 -464.333 -153 -613
c0 -55.333 4.33301 -97 13 -125c7.33301 -24.667 25 -50 53 -76c24.667 -22.667 37 -41 37 -55c0 -22 -9.66699 -42.167 -29 -60.5s-40.333 -27.5 -63 -27.5c-40 0 -75.667 27.333 -107 82c-67.333 116 -101 274 -101 474c-0 152.667 28.333 299.667 85 441
c50.667 126.667 121 249 211 367c92 121.333 191.667 220.666 299 297.999c96.667 70 167.667 105 213 105z" />
    <glyph glyph-name="parenright" unicode=")" horiz-adv-x="760" 
d="M429 1392c39.333 0 74.999 -27.3359 106.999 -82.0029c67.333 -115.333 101 -273.333 101 -474c0 -153.333 -28.333 -300.333 -85 -441c-51.333 -127.333 -121.666 -249.666 -210.999 -366.999c-92.667 -121.333 -192.667 -220.666 -300 -297.999
c-97.333 -70 -168 -105 -212 -105c-40.667 0 -61 26.333 -61 79c0 21.333 6.33301 36 19 44c4.66699 2.66699 21 7.66699 49 15c38.667 10 88.667 49.333 150 118c100 112.667 200.333 297.334 301 554.001c102 260 153 464.333 153 613c0 55.333 -4.33301 97 -13 125
c-7.33301 24.667 -25 50 -53 76c-24.667 22.667 -37 41 -37 55c0 22 9.83301 42.167 29.5 60.5s40.5 27.5 62.5 27.5z" />
    <glyph glyph-name="asterisk" unicode="*" horiz-adv-x="686" 
d="M555 1093l81.999 -41c39.333 -23.333 59 -45 59 -65c0 -18 -7.5 -34.833 -22.5 -50.5s-31.5 -23.5 -49.5 -23.5c-24.667 0 -68.334 29.667 -131.001 89l-11 -83c-6.66699 -48 -10.667 -74 -12 -78c-9.33301 -25.333 -29.666 -38 -60.999 -38c-34 0 -51 15.333 -51 46
c0 4.66699 8.66699 55.667 26 153c-90 -60.667 -144.333 -91 -163 -91c-29.333 0 -44 24.333 -44 73c0 18.667 13 34.667 39 48c20 10.667 64.667 31 134 61c-32 14 -75.333 37.333 -130 70c-8 6.66699 -12 15.667 -12 27c0 17.333 9 35.666 27 54.999s35.667 29 53 29
c14 0 55.333 -31 124 -93l11 70c4 28 7.66699 56 11 84c9.33301 29.333 30 44 62 44c36.667 0 55 -12.667 55 -38c0 -13.333 -10 -66.666 -30 -159.999c96 59.333 151 89 165 89c28 0 42 -21 42 -63c0 -29.333 -23.333 -55 -70 -77
c-7.33301 -4 -41.666 -16.333 -102.999 -37z" />
    <glyph glyph-name="plus" unicode="+" 
d="M537 819l91 302.002c12 39.333 21.667 61.166 29 65.499s34 6.5 80 6.5c49.333 0 74 -4.33301 74 -13c0 -5.33301 -9.66699 -40 -29 -104l-78 -257l333 1c39.333 0 59 -10.333 59 -31c0 -8.66699 -3.16699 -27 -9.5 -55s-12.333 -48.333 -18 -61s-13.5 -20 -23.5 -22
s-44.667 -3 -104 -3h-288l-97 -320c-17.333 -58 -28.333 -89 -33 -93c-8 -7.33301 -41.333 -11 -100 -11c-36.667 0 -55 6.33301 -55 19c0 8.66699 11.667 51.667 35 129l83 276l-347 1c-32.667 0 -49 10.667 -49 32c0 25.333 11 62 33 110c6 13.333 14 21.666 24 24.999
c8 2 36.667 3 86 3h304z" />
    <glyph glyph-name="comma" unicode="," horiz-adv-x="530" 
d="M170 -1c-24 -6 -45.001 -8.99707 -63.001 -8.99707c-38 0 -69.833 12.5 -95.5 37.5s-38.5 56.5 -38.5 94.5c0 55.333 25.333 102.666 76 141.999c46.667 36 98.334 54 155.001 54c49.333 0 91 -15 125 -45s51 -69.333 51 -118c0 -80.667 -34 -156.334 -102 -227.001
c-52.667 -54.667 -101.667 -82 -147 -82c-18 0 -35 6.5 -51 19.5s-24 28.167 -24 45.5s15.333 34.666 46 51.999z" />
    <glyph glyph-name="hyphen" unicode="-" horiz-adv-x="765" 
d="M545 574c64.667 0 97.002 -14.999 97.002 -44.999c0 -12.667 -5.33301 -32.334 -16 -59.001c-14 -35.333 -30.333 -56.333 -49 -63c-8.66699 -2.66699 -37.334 -4 -86.001 -4h-359c-42.667 0 -67.334 0.666992 -74.001 2c-29.333 5.33301 -44 20.333 -44 45
c0 20.667 6.33301 44.334 19 71.001c14 31.333 29.667 48.666 47 51.999c6 0.666992 22 1 48 1h417z" />
    <glyph glyph-name="hyphen" unicode="&#x2010;" horiz-adv-x="765" 
d="M545 574c64.667 0 97.002 -14.999 97.002 -44.999c0 -12.667 -5.33301 -32.334 -16 -59.001c-14 -35.333 -30.333 -56.333 -49 -63c-8.66699 -2.66699 -37.334 -4 -86.001 -4h-359c-42.667 0 -67.334 0.666992 -74.001 2c-29.333 5.33301 -44 20.333 -44 45
c0 20.667 6.33301 44.334 19 71.001c14 31.333 29.667 48.666 47 51.999c6 0.666992 22 1 48 1h417z" />
    <glyph glyph-name="period" unicode="." horiz-adv-x="530" 
d="M247 323c36.667 0 67.667 -12.667 93 -38s38 -56.333 38 -93c0 -52 -30 -98 -90 -138c-54 -36.667 -108.667 -55 -164 -55c-38 0 -70.167 12.667 -96.5 38s-39.5 57 -39.5 95c0 56.667 30 104 90 142c52 32.667 108.333 49 169 49z" />
    <glyph glyph-name="slash" unicode="/" horiz-adv-x="828" 
d="M-225 -380c-14.667 0 -28.667 6 -42 18s-20 25.333 -20 40c0 16 35.333 77.333 106 184l931 1402l50 78c25.333 35.333 47.333 53 66 53c16 0 29.667 -6.66699 41 -20s17 -28 17 -44c0 -18.667 -23.667 -63.667 -71 -135l-940 -1411
c-21.333 -38 -56.333 -88.667 -105 -152c-8.66699 -8.66699 -19.667 -13 -33 -13z" />
    <glyph glyph-name="zero" unicode="0" horiz-adv-x="1160" 
d="M865 1381c106.667 0 187.001 -33.001 241.001 -99.001c50.667 -61.333 76 -146.333 76 -255c0 -134.667 -43.5 -283.167 -130.5 -445.5s-195.167 -297.166 -324.5 -404.499c-142 -117.333 -282 -176 -420 -176c-102.667 0 -184 34.333 -244 103
c-56.667 65.333 -85 150 -85 254c0 146.667 42 300.167 126 460.5s191.333 291.833 322 394.5c143.333 112 289.666 168 438.999 168zM816.001 1263c-77.333 0 -165.666 -79.334 -264.999 -238.001c-64.667 -102.667 -115.334 -210.167 -152.001 -322.5
s-55 -216.166 -55 -311.499c0 -126 40.333 -189 121 -189c80 0 160 62 240 186c54 83.333 101.333 181.666 142 294.999c52.667 148.667 79 283.334 79 404.001c0 117.333 -36.667 176 -110 176z" />
    <glyph glyph-name="one" unicode="1" 
d="M597 1133c-78 -30 -132.667 -45 -164 -45c-42 0 -63 19.333 -63 58c0 26.667 13.667 45.667 41 57l118 27c66 15.333 172.333 58 319 128c25.333 12 47 18 65 18c41.333 0 62 -28.667 62 -86c0 -82 -40.333 -234.667 -121 -458l-177 -481c-18.667 -58 -28 -102 -28 -132
s19.667 -49.833 59 -59.5s59 -26.5 59 -50.5c0 -17.333 -7 -29.333 -21 -36c-11.333 -5.33301 -45.333 -9.33301 -102 -12c-40.667 -2 -84.5 -7.5 -131.5 -16.5s-87.833 -20.167 -122.5 -33.5c-26 -10 -45.333 -15 -58 -15c-38 0 -57 31.333 -57 94c0 89.333 30 223 90 401
c22.667 68 71.667 198 147 390c42.667 109.333 71 193.333 85 252z" />
    <glyph glyph-name="two" unicode="2" 
d="M918 460c34 0 50.9951 -16.666 50.9951 -49.999c0 -16 -13 -55.667 -39 -119c-40 -97.333 -67.333 -173.333 -82 -228c-7.33301 -27.333 -15.666 -44.666 -24.999 -51.999c-10.667 -9.33301 -26.667 -14 -48 -14c-14.667 0 -33.667 1.66699 -57 5
c-106.667 15.333 -218 23 -334 23c-106 0 -191.333 -5.66699 -256 -17c-49.333 -8.66699 -87.666 -13 -114.999 -13c-48 0 -72 24.667 -72 74c0 42 14.667 94.667 44 158c60.667 130 154.334 251.667 281.001 365c56.667 51.333 148.334 124 275.001 218
c80 59.333 134.667 104.333 164 135c60.667 62.667 91 123.667 91 183c0 88.667 -50.667 133 -152 133c-44.667 0 -86.334 -9.66699 -125.001 -29c-48.667 -23.333 -73 -55 -73 -95c0 -8.66699 1.16699 -21.334 3.5 -38.001s3.5 -29.334 3.5 -38.001
c0 -35.333 -11.333 -64.833 -34 -88.5s-51.667 -35.5 -87 -35.5c-36 0 -65.333 11.5 -88 34.5s-34 52.5 -34 88.5c0 69.333 34 133.666 102 192.999c57.333 50 123.333 85.333 198 106c49.333 12.667 107 19 173 19c292 0 438 -106.667 438 -320
c0 -147.333 -97 -295.333 -291 -444c-117.333 -89.333 -178.666 -136.333 -183.999 -141c-69.333 -55.333 -126.333 -107.666 -171 -156.999c-56 -61.333 -84 -106 -84 -134c0 -34 26.333 -51 79 -51c78 0 153.333 32 226 96c44.667 39.333 99.334 103.666 164.001 192.999
c6 8.66699 15.333 19.334 28 32.001c8 5.33301 18 8 30 8z" />
    <glyph glyph-name="three" unicode="3" 
d="M857 804c114 -32 171.002 -103 171.002 -213c0 -164 -85.667 -306.667 -257 -428c-156.667 -110.667 -320.667 -166 -492 -166c-92 0 -169.667 23 -233 69c-71.333 51.333 -107 121.333 -107 210c0 55.333 15.667 102.666 47 141.999c34 42 78 63 132 63
c32.667 0 60.667 -11.167 84 -33.5s35 -49.833 35 -82.5c0 -43.333 -22.5 -76 -67.5 -98s-67.5 -42 -67.5 -60c0 -29.333 18 -53.333 54 -72c30.667 -15.333 62 -23 94 -23c99.333 0 193 55.333 281 166c83.333 105.333 125 209 125 311c0 59.333 -31.333 89 -94 89
c-27.333 0 -64.333 -10.667 -111 -32s-75.667 -32 -87 -32c-20.667 0 -31 14.333 -31 43c0 29.333 8.66699 56.333 26 81c10 14 34.333 24.333 73 31c167.333 28.667 283 122.667 347 282c17.333 43.333 26 81 26 113c0 63.333 -40 95 -120 95
c-40.667 0 -83.667 -10 -129 -30c-55.333 -24.667 -83 -54.334 -83 -89.001c0 -11.333 3.16699 -28.166 9.5 -50.499s9.5 -39.5 9.5 -51.5c0 -36.667 -12.833 -67.5 -38.5 -92.5s-56.834 -37.5 -93.501 -37.5c-35.333 0 -64.333 11.167 -87 33.5s-34 51.166 -34 86.499
c0 61.333 29.333 123 88 185c104.667 110 247 165 427 165c129.333 0 228.666 -29 297.999 -87c52.667 -44 79 -93.667 79 -149c0 -75.333 -29.333 -143.666 -88 -204.999c-40 -41.333 -102 -85.666 -186 -132.999z" />
    <glyph glyph-name="four" unicode="4" 
d="M853 512c14.667 0 36.8291 0.331055 66.4961 0.998047s51.834 1 66.501 1c49.333 0 74 -27.667 74 -83c0 -44 -11 -66 -33 -66c-8 0 -20.333 4.33301 -37 13c-18.667 9.33301 -32.667 15 -42 17c-11.333 1.33301 -49.666 2 -114.999 2l-17 -1
c-26.667 -86 -40 -144 -40 -174s14.333 -50.333 43 -61s43 -25.334 43 -44.001c0 -31.333 -26 -48.666 -78 -51.999c-85.333 -5.33301 -174.666 -25 -267.999 -59c-22 -8 -39 -12 -51 -12c-43.333 0 -65 36 -65 108c0 78 20 176 60 294c-34.667 2 -58 3 -70 3
c-98 0 -176 -3.66699 -234 -11c-32 -4 -57 -6 -75 -6c-51.333 0 -77 25.333 -77 76c0 70.667 33.667 154.667 101 252c59.333 85.333 169 191.333 329 318c41.333 31.333 100.333 81.333 177 150c24 25.333 48 62 72 110c10 20.667 19.667 33.334 29 38.001s32.333 8 69 10
c78.667 4.66699 144.667 15.667 198 33c20.667 6.66699 36.334 10 47.001 10c38 0 57 -29 57 -87c0 -103.333 -49.667 -288.666 -149 -555.999c-19.333 -49.333 -46.333 -124 -81 -224zM492.995 506.998c6 18 65.666 185.333 178.999 502c14.667 40.667 24 74.667 28 102
l-222 -275c-106.667 -140.667 -160 -237 -160 -289c0 -27.333 27.667 -41 83 -41c46.667 0 77.334 0.333008 92.001 1z" />
    <glyph glyph-name="five" unicode="5" horiz-adv-x="1160" 
d="M681 1248c-11.333 -68.667 -29.3369 -133.997 -54.0039 -195.997c-14 -33.333 -33 -83.333 -57 -150c66.667 8.66699 119 13 157 13c92.667 0 169.334 -25 230.001 -75c65.333 -54 98 -126.333 98 -217c0 -98 -32.333 -195.667 -97 -293
c-67.333 -101.333 -157.833 -181.833 -271.5 -241.5s-231.5 -89.5 -353.5 -89.5c-95.333 0 -176.333 22.667 -243 68c-77.333 52 -116 123.333 -116 214c0 54.667 16.333 102 49 142c34.667 42.667 78.667 64 132 64c35.333 0 64.5 -10.333 87.5 -31
s34.5 -48.334 34.5 -83.001c0 -46 -23.5 -79.667 -70.5 -101s-70.5 -42 -70.5 -62c0 -28.667 18.667 -52.334 56 -71.001c30.667 -15.333 62.334 -23 95.001 -23c104 0 200.333 66 289 198c72 107.333 108 212.666 108 315.999c0 96.667 -49.333 145 -148 145
c-57.333 0 -122.333 -18.333 -195 -55s-112 -55 -118 -55c-39.333 0 -59 23.667 -59 71c0 34.667 27.333 118.667 82 252c56.667 138 85 219 85 243c0 6.66699 -2.5 16.5 -7.5 29.5s-7.5 23.167 -7.5 30.5c0 55.333 72.333 83 217 83c45.333 0 113 -2.33301 203 -7
s157.333 -7 202 -7c18 0 44.5 2 79.5 6s61.167 6 78.5 6c18 0 35 -5.33301 51 -16s24 -24.667 24 -42c0 -12 -5.33301 -30 -16 -54c-15.333 -34 -38.333 -106.333 -69 -217c-7.33301 -28 -16.666 -59 -27.999 -93c-11.333 -16 -25 -24 -41 -24c-37.333 0 -56 19.667 -56 59
c0 11.333 2.16699 28.5 6.5 51.5s6.5 40.5 6.5 52.5c0 66 -21.333 111.333 -64 136c-31.333 18 -81.666 27 -150.999 27c-17.333 0 -43.333 -1.33301 -78 -4z" />
    <glyph glyph-name="six" unicode="6" 
d="M497 898c82.667 39.333 162 59 238 59c97.333 0 175.333 -28.833 234 -86.5s88 -135.167 88 -232.5c0 -102 -31 -202.667 -93 -302c-64 -102 -148 -183.333 -252 -244c-106.667 -62 -219.334 -93 -338.001 -93s-209.667 35.667 -273 107
c-59.333 67.333 -89 161.333 -89 282c0 243.333 79.667 465 239 665c170.667 214 374.667 321 612 321c114.667 0 197.334 -26.667 248.001 -80c42.667 -44.667 64 -94.667 64 -150c0 -48 -16.667 -91.333 -50 -130c-34.667 -41.333 -75.334 -62 -122.001 -62
c-35.333 0 -66.333 11.833 -93 35.5s-40 52.834 -40 87.501c0 38 15.833 68.167 47.5 90.5s47.5 39.166 47.5 50.499c0 29.333 -27 44 -81 44c-81.333 0 -160.666 -41.667 -237.999 -125c-62 -66.667 -111.667 -145.667 -149 -237zM644 833
c-26 0 -54.001 -10.668 -84.001 -32.001c-62.667 -45.333 -115.667 -128 -159 -248c-38 -106.667 -57 -204.667 -57 -294c0 -94.667 31.667 -142 95 -142c82.667 0 154.334 82 215.001 246c50 134.667 75 253.334 75 356.001c0 76 -28.333 114 -85 114z" />
    <glyph glyph-name="seven" unicode="7" 
d="M527 739l353.998 352.001c-34.667 -4.66699 -72.667 -7 -114 -7c-29.333 0 -73.666 1.33301 -132.999 4s-103.666 4 -132.999 4c-52 0 -91 -10.333 -117 -31c-7.33301 -5.33301 -34.333 -36 -81 -92c-18 -21.333 -36.667 -32 -56 -32c-28.667 0 -43 15.667 -43 47
c0 14.667 5 34 15 58c44 106 73.667 193 89 261c6.66699 30 15.5 50.333 26.5 61s26.833 16 47.5 16c17.333 0 46.333 -3 87 -9c68 -10 144.667 -15 230 -15c142.667 0 259 6 349 18c30 4 52.333 6 67 6c49.333 0 74 -22.667 74 -68c0 -46 -28.333 -104.333 -85 -175
c-9.33301 -11.333 -54.666 -61 -135.999 -149s-150.333 -171 -207 -249c60.667 -0.666992 91 -15.667 91 -45c0 -12.667 -5.5 -32.834 -16.5 -60.501s-20.167 -44.5 -27.5 -50.5c-12 -10 -63.667 -15 -155 -15c-64.667 -120 -97 -229.333 -97 -328
c0 -38 16.667 -64.167 50 -78.5s50 -30.5 50 -48.5c0 -25.333 -23.667 -41 -71 -47c-80.667 -10 -127.334 -16 -140.001 -18c-53.333 -8 -98.666 -18.667 -135.999 -32c-32 -11.333 -55.333 -17 -70 -17c-36 0 -54 30.667 -54 92c0 134 66 293 198 477h-19h-85
c-36.667 5.33301 -55 21 -55 47c0 16 5 36.333 15 61c13.333 34 28.666 54 45.999 60c6.66699 2 33 3 79 3h163z" />
    <glyph glyph-name="eight" unicode="8" 
d="M881 844c57.333 -48.667 97.001 -89.999 119.001 -123.999c30 -46.667 45 -101.667 45 -165c0 -114 -40.333 -219.333 -121 -316c-74.667 -89.333 -168.667 -154 -282 -194c-90 -32 -184.667 -48 -284 -48c-115.333 0 -208.333 25 -279 75
c-80 57.333 -120 141.666 -120 252.999c0 150 78.333 269 235 357c10 6 67.333 31 172 75c-88 76 -132 159.667 -132 251c0 121.333 61.333 216.333 184 285c101.333 57.333 217.666 86 348.999 86c248.667 0 373 -80.333 373 -241c0 -120.667 -86.333 -218.667 -259 -294z
M748.001 924.001c132 68 198.001 146.667 198.001 236c0 68.667 -42.333 103 -127 103c-55.333 0 -103 -13 -143 -39c-46 -30 -69 -71.333 -69 -124c0 -38 15.667 -72.667 47 -104c11.333 -11.333 42.666 -35.333 93.999 -72zM502.002 675.001
c-80 -34.667 -138.666 -65.999 -175.999 -93.999c-54.667 -40.667 -95.334 -91.667 -122.001 -153c-20.667 -48.667 -31 -96.667 -31 -144c0 -50.667 15.667 -91.834 47 -123.501s72.333 -47.5 123 -47.5c90.667 0 170 35.333 238 106s102 151.334 102 242.001
c0 48.667 -19.667 91.667 -59 129c-16 15.333 -56.667 43.666 -122 84.999z" />
    <glyph glyph-name="nine" unicode="9" 
d="M650 475c-84 -39.333 -163.333 -58.998 -238 -58.998c-97.333 0 -175.5 28.667 -234.5 86s-88.5 134.666 -88.5 231.999c0 102 31.333 203.5 94 304.5s146.834 182.167 252.501 243.5s217.834 92 336.501 92s209.667 -35.667 273 -107
c59.333 -67.333 89 -161.333 89 -282c0 -243.333 -80 -465 -240 -665c-170.667 -214 -374.334 -321 -611.001 -321c-115.333 0 -198 26.667 -248 80c-42.667 45.333 -64 95.333 -64 150c0 48 16.833 92 50.5 132s74.167 60 121.5 60c35.333 0 66.333 -11.833 93 -35.5
s40 -52.834 40 -87.501c0 -37.333 -15.833 -67.5 -47.5 -90.5s-47.5 -39.833 -47.5 -50.5c0 -29.333 27 -44 81 -44c81.333 0 160.666 41.667 237.999 125c62 67.333 112 146.333 150 237zM700 1256c-76.667 0 -145.666 -81.001 -206.999 -243.001
c-50.667 -135.333 -76 -251 -76 -347c0 -84 28 -126 84 -126c26.667 0 55.667 11.333 87 34c61.333 44.667 113.666 127 156.999 247c38 106.667 57 204.334 57 293.001c0 94.667 -34 142 -102 142z" />
    <glyph glyph-name="colon" unicode=":" horiz-adv-x="689" 
d="M260 323c36.667 0 67.667 -12.667 93 -38s38 -56.333 38 -93c0 -52 -30 -98 -90 -138c-54 -36.667 -108.667 -55 -164 -55c-38 0 -70.167 12.667 -96.5 38s-39.5 57 -39.5 95c0 56.667 30 104 90 142c52 32.667 108.333 49 169 49zM446 1002
c36.667 0 67.667 -12.667 93 -38s38 -56.333 38 -93c0 -52 -30 -98 -90 -138c-54 -36.667 -108.667 -55 -164 -55c-37.333 0 -69.333 12.833 -96 38.5s-40 57.167 -40 94.5c0 56.667 30 103.667 90 141c52.667 33.333 109 50 169 50z" />
    <glyph glyph-name="semicolon" unicode=";" horiz-adv-x="689" 
d="M170 -1c-24 -6 -45.001 -8.99707 -63.001 -8.99707c-38 0 -69.833 12.5 -95.5 37.5s-38.5 56.5 -38.5 94.5c0 55.333 25.333 102.666 76 141.999c46.667 36 98.334 54 155.001 54c49.333 0 91 -15 125 -45s51 -69.333 51 -118c0 -80.667 -34 -156.334 -102 -227.001
c-52.667 -54.667 -101.667 -82 -147 -82c-18 0 -35 6.5 -51 19.5s-24 28.167 -24 45.5s15.333 34.666 46 51.999zM462.999 1002c37.333 0 68.501 -12.668 93.501 -38.001s37.5 -56.666 37.5 -93.999c0 -52 -30 -98 -90 -138c-54.667 -36 -109.334 -54 -164.001 -54
c-38 0 -70.167 12.667 -96.5 38s-39.5 57 -39.5 95c0 56.667 30 103.667 90 141c52.667 33.333 109 50 169 50z" />
    <glyph glyph-name="less" unicode="&#x3c;" horiz-adv-x="1024" 
d="M955 1271v-296l-572 -292l572 -293v-296l-887 465v249z" />
    <glyph glyph-name="equal" unicode="=" 
d="M272 821c-8.66699 0 -21.667 0.334961 -39 1.00195h-39c-32.667 0 -49 10.667 -49 32c0 25.333 11 62 33 110c6 14 14 22.333 24 25c8 2 36.667 3 86 3l793 1c46.667 0 70 -10.333 70 -31c0 -8.66699 -3.33301 -27.334 -10 -56.001
c-11.333 -44.667 -22.333 -70.334 -33 -77.001c-8 -5.33301 -36 -8 -84 -8h-752zM165 474.002c-8.66699 0 -22.333 0.333984 -41 1.00098h-41c-32.667 0 -49 10.667 -49 32c0 25.333 11 62 33 110c6 14 13.333 22.167 22 24.5s38 3.5 88 3.5l804 1
c39.333 0 59 -10.333 59 -31c0 -8.66699 -3.33301 -27.334 -10 -56.001c-10.667 -44.667 -22 -70.667 -34 -78c-8 -4.66699 -36.667 -7 -86 -7h-745z" />
    <glyph glyph-name="greater" unicode="&#x3e;" horiz-adv-x="1024" 
d="M69 1271l887 -463v-249l-887 -465v296l572 293l-572 292v296z" />
    <glyph glyph-name="question" unicode="?" horiz-adv-x="1046" 
d="M530 1241c-40 0 -78.6699 -8.66797 -116.003 -26.001c-46 -21.333 -69 -49.666 -69 -84.999c0 -8.66699 1.5 -21.667 4.5 -39s4.5 -30.333 4.5 -39c0 -30.667 -11.5 -57.167 -34.5 -79.5s-49.833 -33.5 -80.5 -33.5c-33.333 0 -61 11.333 -83 34s-33 50.667 -33 84
c0 72.667 39.667 140 119 202c100.667 78.667 225.334 118 374.001 118c120.667 0 220.334 -23.333 299.001 -70c96.667 -56.667 145 -141 145 -253c0 -73.333 -25.667 -144.333 -77 -213c-38.667 -51.333 -94 -95 -166 -131c-24.667 -12.667 -90.667 -39.667 -198 -81
c-26.667 -10 -54 -25 -82 -45l28.5 -30.5c9.66699 -10.333 14.5 -23.5 14.5 -39.5c0 -32 -19.667 -57 -59 -75c-30.667 -13.333 -64.667 -20 -102 -20c-50 0 -92.667 12.333 -128 37c-40 28 -60 66 -60 114c0 58 26.667 109.667 80 155c30 25.333 82 56.333 156 93
c40.667 20 72.334 36.333 95.001 49c42.667 24.667 71.667 44.667 87 60c36.667 38 55 88.333 55 151c0 108.667 -58 163 -174 163zM440.997 322.999c37.333 0 68.501 -12.668 93.501 -38.001s37.5 -56.666 37.5 -93.999c0 -52 -30 -98 -90 -138
c-54.667 -36 -109.334 -54 -164.001 -54c-38 0 -70.167 12.667 -96.5 38s-39.5 57 -39.5 95c0 56.667 30 103.667 90 141c52.667 33.333 109 50 169 50z" />
    <glyph glyph-name="at" unicode="@" horiz-adv-x="1276" 
d="M701 609c-74 -103.333 -145.998 -155.002 -215.998 -155.002c-40.667 0 -73 13 -97 39s-36 59.333 -36 100c0 85.333 43 178.666 129 279.999c88.667 104 174.334 156 257.001 156c56 0 84 -22.667 84 -68c0 -38.667 -16 -58 -48 -58c-25.333 0 -38 11.667 -38 35
c0 -0.666992 4.33301 9 13 29c-2 2.66699 -5 4 -9 4c-14.667 0 -34.334 -12.667 -59.001 -38c-34.667 -35.333 -68.667 -86.666 -102 -153.999c-36 -72 -54 -129.667 -54 -173c0 -22 12.667 -33 38 -33c57.333 0 117.333 55.667 180 167c52.667 93.333 79.667 173 81 239
c0 6.66699 2 15.334 6 26.001c3.33301 2.66699 15.333 4.66699 36 6c12 0.666992 32 4.33398 60 11.001c25.333 6 43.333 9 54 9c16 0 24 -10 24 -30c0 -39.333 -21.833 -110.5 -65.5 -213.5s-65.5 -172.833 -65.5 -209.5c0 -41.333 21.667 -62 65 -62
c28.667 0 61.667 13 99 39c53.333 36 96.166 83.5 128.499 142.5s48.5 120.167 48.5 183.5c0 122 -41.5 224.167 -124.5 306.5s-185.5 123.5 -307.5 123.5c-172.667 0 -322.667 -78.667 -450 -236c-120 -148 -180 -310.333 -180 -487c0 -132.667 37.333 -241.667 112 -327
c78.667 -89.333 183 -134 313 -134c105.333 0 207.666 23.667 306.999 71c6 2.66699 39.333 22 100 58c50 29.333 79.667 44 89 44c15.333 0 23 -8 23 -24c0 -28 -37.667 -68 -113 -120c-124 -86 -260.333 -129 -409 -129c-147.333 0 -268 46.667 -362 140
c-124 123.333 -186 275 -186 455c0 197.333 74 377.666 222 540.999c152 167.333 325.667 251 521 251c148 0 273 -45.667 375 -137c106 -95.333 159 -216 159 -362c0 -130 -42.333 -243 -127 -339c-93.333 -106 -199.666 -159 -318.999 -159
c-46.667 0 -85.334 10.333 -116.001 31c-36.667 24 -55 58 -55 102c0 10.667 5 30.334 15 59.001z" />
    <glyph glyph-name="A" unicode="A" horiz-adv-x="1141" 
d="M599 565c-54.667 6 -116.666 9.00391 -185.999 9.00391c-70.667 0 -133.334 -3 -188.001 -9c-52 -126.667 -78 -224.334 -78 -293.001c0 -42.667 11.667 -73.667 35 -93c7.33301 -6 29 -17 65 -33c23.333 -10 35 -24.333 35 -43c0 -21.333 -13.333 -36.333 -40 -45
c-4.66699 -1.33301 -36 -5.33301 -94 -12c-64.667 -7.33301 -123.334 -21.333 -176.001 -42c-23.333 -9.33301 -40.666 -14 -51.999 -14c-38 0 -57 27 -57 81c0 59.333 19 141 57 245c84 230 214.667 440.667 392 632c194 209.333 399 342.666 615 399.999
c75.333 20 131 30 167 30c58.667 0 88 -32 88 -96c0 -70.667 -26 -183 -78 -337c-10.667 -30.667 -51.667 -141 -123 -331c-80.667 -214.667 -121 -347 -121 -397c0 -27.333 14.167 -48.5 42.5 -63.5s42.5 -29.5 42.5 -43.5c0 -20.667 -13 -36 -39 -46
c-4.66699 -1.33301 -32.667 -4 -84 -8c-76 -5.33301 -147 -21 -213 -47c-32.667 -12.667 -54.667 -19 -66 -19c-40.667 0 -61 33 -61 99c0 63.333 13.667 143.666 41 240.999c2 5.33301 27.333 83.666 76 234.999zM643.001 682.004c113.333 288 170.002 448 170.002 480
c0 16 -7.66699 24 -23 24c-5.33301 0 -32 -12.667 -80 -38c-36 -19.333 -85.333 -58 -148 -116c-59.333 -55.333 -102.666 -100.833 -129.999 -136.5s-66 -89.5 -116 -161.5c-8.66699 -10 -19.334 -25.333 -32.001 -46c0 -6.66699 14 -10.667 42 -12
c51.333 -2 112.666 -3 183.999 -3c9.33301 0 53.666 3 132.999 9z" />
    <glyph glyph-name="B" unicode="B" horiz-adv-x="1164" 
d="M839 844c160.667 -36 240.999 -129.669 240.999 -281.002c0 -143.333 -63.333 -271 -190 -383c-122.667 -108 -256.667 -162 -402 -162c-27.333 0 -68.666 3.33301 -123.999 10s-96.666 10 -123.999 10c-52 0 -104 -8.66699 -156 -26c-28 -9.33301 -47.667 -14 -59 -14
c-44 0 -66 35 -66 105c0 116 66.333 350 199 702c82 217.333 123 342 123 374c0 19.333 -15.333 33.833 -46 43.5s-46 25.5 -46 47.5s11.667 38.667 35 50c10 4.66699 124 19.334 342 44.001c88.667 10 169.667 15 243 15c86 0 158.667 -14.333 218 -43
c77.333 -37.333 116 -94.333 116 -171c0 -75.333 -34.667 -141.666 -104 -198.999c-26.667 -22 -93.334 -62.667 -200.001 -122zM647.999 1254c-6.66699 -60 -23.333 -132 -50 -216l-68 -211c78 36.667 142.667 81 194 133c65.333 66 98 134.667 98 206
c0 68 -30.333 102 -91 102c-19.333 0 -47 -4.66699 -83 -14zM584 714.998c-48.667 0 -86.333 -22.333 -113 -67c-22 -36 -51.333 -111 -88 -225c-37.333 -116 -56 -191.333 -56 -226c0 -38.667 19 -58 57 -58c34 0 69.667 13.667 107 41c56.667 40 104 101.667 142 185
c36.667 79.333 55 155.333 55 228c0 34 -8.66699 62.333 -26 85c-19.333 24.667 -45.333 37 -78 37z" />
    <glyph glyph-name="C" unicode="C" horiz-adv-x="1053" 
d="M856 1256c-42 0 -89.334 -21.666 -142.001 -64.999c-127.333 -104 -231.333 -275 -312 -513c-38 -112 -57 -212.333 -57 -301c0 -121.333 40.333 -182 121 -182c38.667 0 82 12.667 130 38c88.667 47.333 176 146.666 262 297.999c14 24.667 30 37 48 37
c35.333 0 53 -17.667 53 -53c0 -18 -9.66699 -46.333 -29 -85c-77.333 -152 -193.666 -273.333 -348.999 -364c-82 -48 -171 -72 -267 -72c-104.667 0 -187 32.333 -247 97c-58 62.667 -87 147 -87 253c0 168.667 54.333 341.667 163 519c102 166 227.333 298.667 376 398
c114.667 76.667 228 115 340 115c82.667 0 151 -19 205 -57c61.333 -44 92 -105.667 92 -185c0 -49.333 -15.333 -92.333 -46 -129c-32 -39.333 -72.333 -59 -121 -59c-34.667 0 -64.5 11.333 -89.5 34s-37.5 51 -37.5 85c0 30 12.167 57.833 36.5 83.5
s36.5 44.167 36.5 55.5c0 34.667 -26.333 52 -79 52z" />
    <glyph glyph-name="D" unicode="D" horiz-adv-x="1229" 
d="M782 1380c138 0 247.669 -38.3369 329.002 -115.004c83.333 -78.667 125 -186.667 125 -324c0 -77.333 -18.333 -163.666 -55 -258.999c-94.667 -246 -257 -433.333 -487 -562c-66.667 -37.333 -128.334 -61.666 -185.001 -72.999c-52.667 -11.333 -138 -17 -256 -17
c-74 0 -129.333 -5.33301 -166 -16c-34 -10 -56.667 -15 -68 -15c-40.667 0 -61 36.667 -61 110c0 76 26 192.333 78 349c8.66699 26 50.667 140.333 126 343c84 226.667 126 351.334 126 374.001c0 17.333 -15.167 32.5 -45.5 45.5s-45.5 30.167 -45.5 51.5
c0 22 15.667 38.667 47 50c7.33301 2.66699 53.333 9.33398 138 20.001c199.333 25.333 332.666 38 399.999 38zM657.002 1253c-10.667 -73.333 -27.998 -148 -51.998 -224c-22.667 -72 -64.334 -187.667 -125.001 -347c-56.667 -148 -97.334 -263.333 -122.001 -346
c-21.333 -72.667 -32 -121.667 -32 -147c0 -34.667 16.667 -52 50 -52c36 0 79.333 22.667 130 68c92 82 177 216 255 402c76.667 182 115 336.667 115 464c0 130 -51.333 195 -154 195c-28 0 -49.667 -4.33301 -65 -13z" />
    <glyph glyph-name="E" unicode="E" horiz-adv-x="1050" 
d="M671 1253c-17.333 -110.667 -63.3359 -263.667 -138.003 -459c107.333 17.333 189.666 26 246.999 26c74.667 0 112 -23.667 112 -71c0 -22.667 -4.33301 -44.667 -13 -66c-11.333 -27.333 -26.333 -41 -45 -41c-8 0 -20 7 -36 21c-18 14.667 -32.167 23.5 -42.5 26.5
s-33.833 4.5 -70.5 4.5c-42.667 0 -108.334 -5 -197.001 -15c-104.667 -255.333 -157 -418 -157 -488c0 -38.667 22.667 -58 68 -58c66 0 137 28 213 84c68.667 50 122.334 106.333 161.001 169c10.667 19.333 28.334 45.333 53.001 78c10.667 10.667 23.334 16 38.001 16
c12 0 22.833 -5.16699 32.5 -15.5s14.5 -21.5 14.5 -33.5s-5 -29.667 -15 -53c-46.667 -107.333 -78 -193.666 -94 -258.999c-20 -80 -51.667 -120 -95 -120c-14.667 0 -40 4.66699 -76 14c-51.333 13.333 -139.666 20 -264.999 20c-105.333 0 -190.666 -7 -255.999 -21
c-34 -7.33301 -60.667 -11 -80 -11c-47.333 0 -71 29.333 -71 88c0 120.667 79.333 380.667 238 780c70 176 105 283 105 321c0 23.333 -13.833 42.5 -41.5 57.5s-41.5 30.167 -41.5 45.5c0 33.333 21.333 49.666 64 48.999c101.333 -2 153 -3 155 -3
c21.333 0 59.333 3 114 9c188 20.667 306 31 354 31c146.667 0 220 -25.667 220 -77c0 -2.66699 -18 -64 -54 -184c-8 -26 -18.667 -64.667 -32 -116c-8 -38 -16.333 -62.667 -25 -74c-10.667 -14 -24.667 -21 -42 -21c-34.667 0 -52 20 -52 60
c0 16.667 2.33301 41.5 7 74.5s7 57.833 7 74.5c0 54 -12.167 91.667 -36.5 113s-63.833 32 -118.5 32c-36.667 0 -73 -2.66699 -109 -8z" />
    <glyph glyph-name="F" unicode="F" horiz-adv-x="987" 
d="M658 1252c-7.33301 -67.333 -25 -144.333 -53 -231l-79 -225c122.667 16 204 24 244 24c77.333 0 116 -23.333 116 -70c0 -22.667 -4.66699 -45 -14 -67c-11.333 -27.333 -26.666 -41 -45.999 -41c-6.66699 0 -19.834 8.66699 -39.501 26s-48.167 26 -85.5 26
c-10.667 0 -84 -5.66699 -220 -17l-86 -231c-38 -104.667 -57 -182 -57 -232c0 -20.667 13.667 -38.334 41 -53.001s41 -30.667 41 -48c0 -29.333 -25 -46 -75 -50c-54 -4.66699 -89.667 -8 -107 -10c-41.333 -6 -76 -14 -104 -24c-60.667 -22 -99.334 -33 -116.001 -33
c-39.333 0 -59 32.667 -59 98c0 84.667 27 207.667 81 369c18.667 56.667 63 176 133 358c78 202.667 117 324.334 117 365.001c0 22 -13.333 41.5 -40 58.5s-40 32.5 -40 46.5c0 32 22.667 48 68 48c13.333 0 33 -0.5 59 -1.5s45.667 -1.5 59 -1.5
c11.333 0 52.333 3.33301 123 10l234 23c74 7.33301 124.667 11 152 11c141.333 0 212 -25 212 -75c0 -5.33301 -17.333 -68 -52 -188s-53.667 -182.333 -57 -187c-9.33301 -13.333 -23 -20 -41 -20c-36.667 0 -55 18 -55 54c0 15.333 2.16699 38 6.5 68s6.5 52.667 6.5 68
c0 58 -10.667 99.167 -32 123.5s-60.666 36.5 -117.999 36.5c-39.333 0 -78.333 -2.66699 -117 -8z" />
    <glyph glyph-name="G" unicode="G" horiz-adv-x="1113" 
d="M691 172c-133.333 -116.667 -264.001 -175 -392.001 -175c-103.333 0 -183.333 35 -240 105c-52.667 64.667 -79 150 -79 256c0 170 58 346 174 528c109.333 173.333 240.333 306 393 398c106.667 64.667 222 97 346 97c82.667 0 150.667 -19.333 204 -58
c60.667 -44 91 -106 91 -186c0 -51.333 -14.667 -95 -44 -131c-31.333 -38.667 -72 -58 -122 -58c-35.333 0 -65.666 10.5 -90.999 31.5s-38 48.833 -38 83.5c0 40 16 73.333 48 100s48 44.334 48 53.001c0 33.333 -29.333 50 -88 50
c-105.333 0 -215.666 -82.333 -330.999 -247c-65.333 -93.333 -118.666 -198 -159.999 -314c-44.667 -124 -67 -238.667 -67 -344c0 -104 37.667 -156 113 -156c60 0 122.667 29.667 188 89c52 46 97.333 101.667 136 167c19.333 32.667 29 55.667 29 69c0 18 -13 27 -39 27
c-28 0 -62.333 -7.83301 -103 -23.5s-67.334 -23.5 -80.001 -23.5c-27.333 0 -41 16.667 -41 50c0 39.333 15.667 70.666 47 93.999c26.667 20 136.667 30 330 30c59.333 0 89 -15.667 89 -47c0 -14 -6.33301 -35 -19 -63c-107.333 -238.667 -161 -391 -161 -457v-47
c0 -23.333 -15 -42 -45 -56c-24.667 -10.667 -50.334 -16 -77.001 -16c-32 0 -48 18 -48 54c0 21.333 9.66699 61.333 29 120z" />
    <glyph glyph-name="H" unicode="H" horiz-adv-x="1232" 
d="M764 781c92.667 232.667 139.002 368.668 139.002 408.001c0 18.667 -14 36.334 -42 53.001s-42 33 -42 49c0 31.333 17.667 47 53 47c9.33301 0 23.166 -0.5 41.499 -1.5s32.166 -1.5 41.499 -1.5c42 0 77.333 2.33301 106 7c10.667 2 37.667 8.66699 81 20
c36 10 60.667 15 74 15c38 0 57 -30.667 57 -92c0 -72.667 -28 -189.667 -84 -351c-10.667 -31.333 -54 -145 -130 -341c-76.667 -198.667 -115 -324.667 -115 -378c0 -22.667 14 -41 42 -55s42 -29.667 42 -47s-7 -30 -21 -38c-11.333 -6.66699 -46 -12 -104 -16
c-62.667 -4.66699 -138 -21 -226 -49c-25.333 -8 -43.666 -12 -54.999 -12c-38.667 0 -58 36 -58 108c0 64.667 19.667 158 59 280l96 277c-26 2 -63 3 -111 3c-56.667 0 -100.334 -1 -131.001 -3l-84 -224c-35.333 -100.667 -53 -175 -53 -223
c0 -23.333 13.833 -41.833 41.5 -55.5s41.5 -29.167 41.5 -46.5c0 -18 -7.33301 -31 -22 -39c-11.333 -6 -43 -11.333 -95 -16c-76.667 -6.66699 -156 -24.334 -238 -53.001c-19.333 -6.66699 -34.666 -10 -45.999 -10c-42 0 -63 32.333 -63 97c0 82 27.667 206 83 372
c16.667 50.667 61 171 133 361c78.667 207.333 118 326.666 118 357.999c0 22 -13.833 41.667 -41.5 59s-41.5 33 -41.5 47c0 32 19 48 57 48c10.667 0 26.334 -0.833008 47.001 -2.5s36 -2.5 46 -2.5c58.667 0 124 11.333 196 34c21.333 6.66699 38 10 50 10
c38 0 57 -30 57 -90c0 -63.333 -17 -149 -51 -257c-9.33301 -27.333 -39.333 -110.333 -90 -249c41.333 -3.33301 82.666 -5 123.999 -5s80.666 1.66699 117.999 5z" />
    <glyph glyph-name="I" unicode="I" horiz-adv-x="621" 
d="M262 1339c13.333 0 33.333 -0.831055 60 -2.49805s47 -2.5 61 -2.5c45.333 0 102.666 11 171.999 33c23.333 7.33301 40 11 50 11c38 0 57 -31.333 57 -94c0 -92 -57.333 -288.333 -172 -589c-102 -267.333 -153 -425.333 -153 -474c0 -26 14.167 -45.833 42.5 -59.5
s42.5 -29.834 42.5 -48.501c0 -20.667 -12.333 -35.334 -37 -44.001c-5.33301 -2 -33.333 -5.33301 -84 -10c-85.333 -8 -157.666 -23.333 -216.999 -46c-28 -10.667 -49.667 -16 -65 -16c-40.667 0 -61 30.333 -61 91c0 108.667 40.333 271.667 121 489l184 490
c19.333 62.667 29 102.667 29 120c0 20 -13.833 37.333 -41.5 52s-41.5 31 -41.5 49c0 34 17.667 51 53 51z" />
    <glyph glyph-name="J" unicode="J" horiz-adv-x="1003" 
d="M12 311c36.667 0 68.1621 -11.499 94.4951 -34.499s39.5 -52.5 39.5 -88.5c0 -32 -16.333 -63.833 -49 -95.5s-49 -51.834 -49 -60.501c0 -32.667 27 -49 81 -49c77.333 0 135 32.333 173 97c18.667 32 36.667 80 54 144l36 152c8.66699 32 29.334 92.333 62.001 181
l100 261c24.667 63.333 59.667 158.666 105 285.999c10 31.333 15 56.666 15 75.999c0 30 -17 49.833 -51 59.5s-51 25.167 -51 46.5c0 35.333 21.667 53 65 53c10 0 25.333 -0.666992 46 -2s36.334 -2 47.001 -2c78 0 144.333 9.33301 199 28c27.333 9.33301 47 14 59 14
c38.667 0 58 -33.333 58 -100c0 -79.333 -72.333 -311.333 -217 -696c-51.333 -136.667 -77 -216.667 -77 -240c0 -11.333 4 -26.333 12 -45s12 -30.667 12 -36c0 -23.333 -28.667 -63.666 -86 -120.999c-43.333 -43.333 -83.666 -78.666 -120.999 -105.999
c-147.333 -109.333 -291.666 -164 -432.999 -164c-81.333 0 -149.666 19.333 -204.999 58c-63.333 44 -95 105.333 -95 184c0 53.333 15.667 99.333 47 138c34 41.333 77 62 129 62z" />
    <glyph glyph-name="K" unicode="K" horiz-adv-x="1162" 
d="M713 924c59.333 18.667 106.668 28 142.001 28c56 0 102.833 -20.167 140.5 -60.5s56.5 -88.5 56.5 -144.5c0 -53.333 -25.333 -154.333 -76 -303c-40.667 -119.333 -61 -194 -61 -224c0 -23.333 14 -43.833 42 -61.5s42 -32.834 42 -45.501
c0 -20 -10.333 -34.667 -31 -44s-57.334 -14 -110.001 -14c-58 0 -121.667 -13.333 -191 -40c-33.333 -12.667 -57.666 -19 -72.999 -19c-40.667 0 -61 34 -61 102c0 102.667 44 271.667 132 507c12 32 18 57.333 18 76c0 28 -15.667 42 -47 42
c-64 0 -124 -50.333 -180 -151c-36.667 -66.667 -67.667 -145.667 -93 -237c-14.667 -52.667 -22 -91 -22 -115c0 -23.333 14 -43.166 42 -59.499s42 -30.833 42 -43.5c0 -18.667 -8.33301 -32.5 -25 -41.5s-46.334 -13.833 -89.001 -14.5c-76.667 -2 -148.667 -16 -216 -42
c-38 -14.667 -64 -22 -78 -22c-38.667 0 -58 34.667 -58 104c0 120.667 69.667 356 209 706c84.667 212.667 127 339 127 379c0 20 -13.5 39 -40.5 57s-40.5 34.333 -40.5 49c0 34 19 50.333 57 49c67.333 -2 102 -3 104 -3c60 0 116.667 8.66699 170 26
c30.667 10 53.667 15 69 15c36 0 54 -26.667 54 -80c0 -80.667 -27.667 -200 -83 -358c12.667 14 46.334 54 101.001 120c50.667 60.667 118.667 124.667 204 192c104.667 83.333 183.667 125 237 125c26 0 52 -15.667 78 -47s39 -60.333 39 -87
c0 -29.333 -13.333 -44 -40 -44c-8.66699 0 -21.334 2.5 -38.001 7.5s-29.334 7.5 -38.001 7.5c-54.667 0 -129.667 -37 -225 -111c-73.333 -58 -136.666 -118 -189.999 -180z" />
    <glyph glyph-name="L" unicode="L" horiz-adv-x="990" 
d="M370 33c-110 0 -203.336 -8.33398 -280.003 -25.001c-24.667 -5.33301 -43.667 -8 -57 -8c-49.333 0 -74 32.667 -74 98c0 118 71.333 358.333 214 721c82 208 123 330.333 123 367c0 20 -13.833 39.167 -41.5 57.5s-41.5 34.833 -41.5 49.5c0 30.667 22.333 46 67 46
c10 0 24.833 -0.666992 44.5 -2s34.5 -2 44.5 -2c64 0 126.333 10.333 187 31c25.333 8.66699 44 13 56 13c37.333 0 56 -30.333 56 -91c0 -70.667 -28.333 -187.334 -85 -350.001c-12 -35.333 -55.333 -150 -130 -344c-35.333 -92 -64.333 -175.833 -87 -251.5
s-34 -126.5 -34 -152.5c0 -38.667 22 -58 66 -58c34.667 0 75.334 10.333 122.001 31c106.667 46 199 134.667 277 266c20.667 34.667 41.334 52 62.001 52c32.667 0 49 -17 49 -51c0 -13.333 -16.667 -59.666 -50 -138.999c-12.667 -29.333 -35 -96.666 -67 -201.999
c-18.667 -60 -46 -90 -82 -90c-17.333 0 -41.666 4 -72.999 12c-58 14.667 -146.667 22 -266 22z" />
    <glyph glyph-name="M" unicode="M" horiz-adv-x="1428" 
d="M931 1165c-2.66699 26 -7.33398 43.668 -14.001 53.001c-4.66699 5.33301 -22 16 -52 32c-22.667 11.333 -34 26 -34 44c0 30.667 20.667 46 62 46c10.667 0 26.5 -0.333008 47.5 -1s36.833 -1 47.5 -1c62.667 0 118.667 8 168 24c32.667 10.667 56 16 70 16
c44.667 0 67 -55.333 67 -166c0 -99.333 -10.333 -248 -31 -446s-31 -346.667 -31 -446c0 -70.667 11 -114.667 33 -132l50 -31c21.333 -14 32 -28.333 32 -43c0 -27.333 -26.333 -43.666 -79 -48.999c-62.667 -6.66699 -105 -12 -127 -16
c-48.667 -7.33301 -90 -18.333 -124 -33c-31.333 -13.333 -55.333 -20 -72 -20c-44.667 0 -67 56 -67 168c0 103.333 6.66699 230.666 20 381.999l34 381c-34 -50 -85.667 -167.667 -155 -353c-14.667 -38.667 -26 -99.334 -34 -182.001
c-2.66699 -26.667 -9.66699 -43.667 -21 -51c-8.66699 -5.33301 -53.667 -15.666 -135 -30.999c-14 -2.66699 -43 -11.334 -87 -26.001c-39.333 -13.333 -64 -20 -74 -20c-53.333 0 -80 100 -80 300c0 44 2 101.667 6 173c5.33301 91.333 8.33301 149.333 9 174
c-44.667 -85.333 -91 -194.666 -139 -327.999c-56.667 -156 -85 -266.667 -85 -332c0 -45.333 20.833 -74.333 62.5 -87s62.5 -29.334 62.5 -50.001c0 -27.333 -27 -45.666 -81 -54.999c-48 -8.66699 -94.667 -23 -140 -43c-26.667 -12 -46.334 -18 -59.001 -18
c-20 0 -36 11.667 -48 35c-10 18.667 -15 39 -15 61c0 47.333 21.333 132.333 64 255c26 75.333 104.667 246.333 236 513l142 289c-3.33301 28 -9.66602 47.667 -18.999 59c-5.33301 6 -25.666 17.333 -60.999 34c-26.667 13.333 -40 29.666 -40 48.999
c0 32 18.333 47.333 55 46c68.667 -2.66699 106 -4 112 -4c49.333 0 100 8.66699 152 26c35.333 12 60 18 74 18c42.667 0 64 -47 64 -141c0 -58 -2.16699 -144.667 -6.5 -260s-6.5 -202 -6.5 -260v-65c92 231.333 174.333 402 247 512z" />
    <glyph glyph-name="N" unicode="N" horiz-adv-x="1129" 
d="M815 255c9.33301 -30 18.6729 -49.999 28.0059 -59.999c5.33301 -5.33301 26 -15.666 62 -30.999c26 -11.333 39 -28 39 -50c0 -16 -7.33301 -28.333 -22 -37c-10.667 -6.66699 -40.334 -12 -89.001 -16c-61.333 -4.66699 -129.333 -21 -204 -49
c-24.667 -9.33301 -44.334 -14 -59.001 -14c-36 0 -67 47 -93 141c-29.333 106.667 -54.333 240.667 -75 402l-51 407c-42 -92 -84 -206.667 -126 -344c-48 -158.667 -72 -275.334 -72 -350.001c0 -37.333 10.667 -63.333 32 -78c3.33301 -2.66699 23 -10.667 59 -24
c21.333 -7.33301 32 -20.666 32 -39.999c0 -16 -4.83301 -28 -14.5 -36s-31.167 -14.333 -64.5 -19c-18 -2.66699 -42.333 -8.33398 -73 -17.001c-2.66699 -1.33301 -25.667 -9.66602 -69 -24.999c-34 -12.667 -54.667 -19 -62 -19c-40.667 0 -61 33 -61 99
c0 89.333 51.667 260 155 512c76 184 153.667 354.667 233 512c-10.667 39.333 -21.334 65.666 -32.001 78.999c-6 6.66699 -27.333 20.667 -64 42c-27.333 15.333 -41 33 -41 53c0 30.667 19 46 57 46c11.333 0 28.666 -0.5 51.999 -1.5s40.666 -1.5 51.999 -1.5
c49.333 0 106.666 10 171.999 30c26 8 45.333 12 58 12c30 0 54 -31.333 72 -94c4 -14 10.667 -56 20 -126c16 -152 46.667 -379 92 -681c56.667 227.333 124 431.666 202 612.999c82 190.667 148.333 286 199 286c24 0 51.667 -9.33301 83 -28
c34 -20.667 51 -41.667 51 -63c0 -12 -14 -26 -42 -42c-69.333 -39.333 -149 -161.333 -239 -366c-92 -208.667 -157.667 -416 -197 -622z" />
    <glyph glyph-name="O" unicode="O" 
d="M868 1377c105.333 0 185.334 -33.334 240.001 -100.001c49.333 -60.667 74 -145 74 -253c0 -138 -42.833 -288 -128.5 -450s-193.167 -296 -322.5 -402c-142 -116.667 -283.333 -175 -424 -175c-102.667 0 -183.667 34.333 -243 103c-56 65.333 -84 150 -84 254
c0 146 42.167 299.333 126.5 460s191.833 292.334 322.5 395.001c143.333 112 289.666 168 438.999 168zM819.001 1257c-37.333 0 -80.334 -21.333 -129.001 -64c-90.667 -80 -171 -204.667 -241 -374c-68 -164.667 -102 -310 -102 -436
c0 -47.333 8.33301 -87.666 25 -120.999c20.667 -43.333 52.334 -65 95.001 -65c104 0 205 99 303 297c104 209.333 156 405.666 156 588.999c0 116 -35.667 174 -107 174z" />
    <glyph glyph-name="P" unicode="P" horiz-adv-x="1096" 
d="M440 568c-67.333 -194.667 -101 -308.667 -101 -342c0 -22.667 14.167 -43 42.5 -61s42.5 -33.667 42.5 -47c0 -30 -24.667 -47.333 -74 -52c-121.333 -12 -212.333 -29.333 -273 -52c-24.667 -9.33301 -43 -14 -55 -14c-42 -0 -63 33.333 -63 100
c0 110 71.333 351 214 723c78.667 204.667 118 323 118 355c0 19.333 -15.5 33.5 -46.5 42.5s-46.5 26.5 -46.5 52.5c0 21.333 11.667 38 35 50c8 4 115.333 17.667 322 41c93.333 10.667 174.333 16 243 16c108 0 194 -20.667 258 -62
c77.333 -49.333 116 -125.333 116 -228c0 -152 -65.333 -280.667 -196 -386c-122.667 -99.333 -261.667 -149 -417 -149c-37.333 0 -77 4.33301 -119 13zM659 1254c-10 -84.667 -34.665 -183.666 -73.998 -296.999l-106 -289c24 -8 44.667 -12 62 -12
c39.333 0 74.333 13 105 39c45.333 38.667 87.666 110.667 126.999 216c37.333 99.333 56 182.666 56 249.999c0 72 -31 108 -93 108c-22.667 0 -48.334 -5 -77.001 -15z" />
    <glyph glyph-name="Q" unicode="Q" horiz-adv-x="1179" 
d="M338 -44c65.333 -10 119.667 -21.668 163 -35.001c8 -2 59.333 -21 154 -57c74 -28 120 -42 138 -42c14.667 0 28.667 5.33301 42 16s20 23.334 20 38.001c0 7.33301 -2.16699 18 -6.5 32s-6.5 24.667 -6.5 32c0 23.333 17.333 42.333 52 57c27.333 11.333 55 17 83 17
c58.667 0 108 -20.5 148 -61.5s60 -91.167 60 -150.5c0 -67.333 -23 -123.166 -69 -167.499s-102.667 -66.5 -170 -66.5s-146.333 24.667 -237 74l-244 139c-101.333 49.333 -198 74 -290 74c-26.667 0 -49.334 -1.66699 -68.001 -5c-12 -2 -37.667 -9.33301 -77 -22
c-32 -10 -58 -15 -78 -15c-32 0 -48 15.667 -48 47c0 56.667 40.333 91 121 103c73.333 11.333 129 27.666 167 48.999c-140.667 65.333 -211 179 -211 341c0 144.667 42.167 297.667 126.5 459s191.833 294 322.5 398c142.667 113.333 287.334 170 434.001 170
c104 0 184.333 -31.333 241 -94c54 -60.667 81 -143.667 81 -249c0 -178 -59.333 -361.333 -178 -550c-115.333 -183.333 -253 -320.333 -413 -411c-13.333 -7.33301 -99 -47.333 -257 -120zM818.001 1258c-109.333 0 -225.667 -133.999 -349 -401.999
c-80 -174 -120 -328.667 -120 -464c0 -131.333 41.333 -197 124 -197c109.333 0 215.333 112.333 318 337c92.667 203.333 139 383.666 139 540.999c0 123.333 -37.333 185 -112 185z" />
    <glyph glyph-name="R" unicode="R" horiz-adv-x="1120" 
d="M543 593c22.667 -66.667 51.999 -124 87.999 -172c48.667 -64.667 100 -97 154 -97c15.333 0 34.333 7.5 57 22.5s38.667 22.5 48 22.5c20 0 42.333 -15.333 67 -46c28.667 -36 43 -77.667 43 -125c0 -54.667 -19.667 -101.667 -59 -141s-86.333 -59 -141 -59
c-68 0 -128.667 35 -182 105c-40 53.333 -77.667 129.333 -113 228l-70 218c-66 -163.333 -99 -272.666 -99 -327.999c0 -26 14 -45.167 42 -57.5s42 -27.5 42 -45.5c0 -33.333 -28.667 -51 -86 -53c-93.333 -3.33301 -178 -20 -254 -50
c-29.333 -11.333 -49.666 -17 -60.999 -17c-40 0 -60 31.667 -60 95c0 126.667 73.333 376 220 748c75.333 191.333 113 303.333 113 336c0 22 -15 37.833 -45 47.5s-45 26.5 -45 50.5s12.667 41.333 38 52c3.33301 1.33301 39 6 107 14c213.333 24.667 362 37 446 37
c134 0 229.667 -23 287 -69c67.333 -54 101 -123 101 -207c0 -94.667 -31.667 -186 -95 -274c-59.333 -82.667 -139.666 -144.334 -240.999 -185.001c-92.667 -38 -193.334 -54.667 -302.001 -50zM662.999 1256c-5.33301 -52.667 -15.332 -103.668 -29.999 -153.001
l-125 -358l-18 -53c19.333 -3.33301 36.333 -5 51 -5c70 0 127 32.333 171 97c34.667 50.667 64 111.334 88 182.001c25.333 74.667 38 140.667 38 198c0 70 -32.667 105 -98 105c-22.667 0 -48.334 -4.33301 -77.001 -13z" />
    <glyph glyph-name="S" unicode="S" horiz-adv-x="980" 
d="M698 1264c-58 0 -110.665 -17.666 -157.998 -52.999c-51.333 -38 -77 -85 -77 -141c0 -56.667 35.667 -112 107 -166l199 -149c71.333 -69.333 107 -151.333 107 -246c0 -156 -64.667 -283 -194 -381c-118.667 -89.333 -258.334 -134 -419.001 -134
c-63.333 0 -134.666 12.333 -213.999 37c-100.667 31.333 -151 70.333 -151 117c0 15.333 5.33301 37.666 16 66.999c4 11.333 22 74 54 188c14.667 51.333 36.667 77 66 77c34.667 0 52 -23.333 52 -70c0 -14 -1.16699 -34.833 -3.5 -62.5s-3.5 -48.5 -3.5 -62.5
c0 -116.667 60 -175 180 -175c73.333 0 138.166 26.5 194.499 79.5s84.5 116.167 84.5 189.5c0 60 -35 117 -105 171l-195 147c-70 68 -105 148.667 -105 242c0 80 25.667 155.667 77 227c101.333 141.333 257 212 467 212c92 0 168 -16 228 -48
c77.333 -40 116 -102 116 -186c0 -46.667 -15.333 -88 -46 -124c-32.667 -38 -72 -57 -118 -57c-32.667 0 -60.834 10.667 -84.501 32s-35.5 48 -35.5 80c0 28.667 14.167 54.5 42.5 77.5s42.5 38.833 42.5 47.5c0 22 -16 39 -48 51c-24 8.66699 -49.333 13 -76 13z" />
    <glyph glyph-name="T" unicode="T" horiz-adv-x="1069" 
d="M882 1255c-15.333 -104 -71.6699 -286.329 -169.003 -546.996c-104.667 -280 -157 -442.333 -157 -487c0 -26 14 -46.167 42 -60.5s42 -30.5 42 -48.5c0 -22.667 -13.667 -38 -41 -46c-4 -1.33301 -34.333 -5 -91 -11c-78 -8.66699 -156.333 -26.334 -235 -53.001
c-16 -5.33301 -27.333 -8 -34 -8c-41.333 0 -62 33.333 -62 100c0 66 17.833 157.5 53.5 274.5s100.834 297.5 195.501 541.5c30 78 50.667 134.333 62 169c21.333 66 34.666 124.667 39.999 176c-114.667 -2.66699 -222.667 -98.334 -324 -287.001
c-18 -34 -37.667 -51 -59 -51c-32.667 0 -49 15.333 -49 46c0 11.333 6.33301 31.666 19 60.999c48 110 78.667 198.667 92 266c6.66699 35.333 15.334 59.5 26.001 72.5s24.334 19.5 41.001 19.5c13.333 0 35 -3 65 -9c24 -4.66699 74.333 -8 151 -10
c62.667 -2 144.667 -3 246 -3c109.333 0 219 5 329 15c36.667 3.33301 63.667 5 81 5c49.333 0 74 -19.667 74 -59c0 -15.333 -3 -33.333 -9 -54c-18 -60 -42 -151 -72 -273c-9.33301 -52 -28.666 -78 -57.999 -78c-34 0 -51 19.333 -51 58c0 12 1.5 30.167 4.5 54.5
s4.5 42.5 4.5 54.5c0 62.667 -11 106.667 -33 132s-63.333 38.666 -124 39.999z" />
    <glyph glyph-name="U" unicode="U" horiz-adv-x="1152" 
d="M254 1334c9.33301 0 23 -0.832031 41 -2.49902s31.667 -2.5 41 -2.5c70 0 134.333 10 193 30c29.333 10 50.666 15 63.999 15c38.667 0 58 -31 58 -93c0 -90 -77.333 -338 -232 -744c-52 -136.667 -78 -225 -78 -265c0 -36 12.667 -64.667 38 -86s56.333 -32 93 -32
c136.667 0 256 118 358 354c90.667 209.333 136 394 136 554c0 58 -13 101.667 -39 131c-12 14 -35.667 30 -71 48c-26 13.333 -39 29 -39 47c0 16.667 6 28.667 18 36c7.33301 4.66699 31 7.66699 71 9c56 1.33301 112 10.666 168 27.999
c28.667 8.66699 48.334 13 59.001 13c44.667 0 67 -48 67 -144c0 -192 -79.333 -442 -238 -750c-91.333 -176.667 -190 -304.334 -296 -383.001c-92.667 -68.667 -197 -103 -313 -103c-96 0 -176.667 23.333 -242 70c-74 52.667 -111 125.334 -111 218.001
c0 64.667 29 176 87 334l119 320c48.667 129.333 73 211.333 73 246c0 20.667 -13.833 39.5 -41.5 56.5s-41.5 32.833 -41.5 47.5c0 32 19.333 48 58 48z" />
    <glyph glyph-name="V" unicode="V" horiz-adv-x="1209" 
d="M490 388c89.333 163.333 165.334 293.667 228.001 391c71.333 110.667 152.666 224 243.999 340c136 172.667 228.667 259 278 259c28 0 56 -13.5 84 -40.5s42 -54.5 42 -82.5c0 -18.667 -9 -31.334 -27 -38.001l-53 -10c-32 -6 -83.333 -43.667 -154 -113
c-178.667 -176 -340 -393.333 -484 -652c-58 -104.667 -102 -209.334 -132 -314.001c-4 -15.333 -13 -34.666 -27 -57.999c-9.33301 -6.66699 -34.333 -12 -75 -16c-27.333 -2.66699 -60.666 -8.33398 -99.999 -17.001l-80 -24c-40.667 -12 -64.334 -18 -71.001 -18
c-40.667 0 -61 32.667 -61 98c0 77.333 12 180 36 308l64 307c16.667 74.667 39.667 187.334 69 338.001c6 37.333 9 70 9 98s-4.33301 47.667 -13 59c-6 7.33301 -26.333 19 -61 35c-26.667 12.667 -40 29.334 -40 50.001c0 22.667 14 38 42 46c12 3.33301 58 5 138 5
c38 0 97.333 9.66699 178 29c19.333 4.66699 36 7 50 7c45.333 0 68 -42.333 68 -127c0 -110.667 -30.333 -300.667 -91 -570c-14.667 -64 -35 -160.667 -61 -290z" />
    <glyph glyph-name="W" unicode="W" horiz-adv-x="1810" 
d="M1087 385l219.002 380.003c50 80 112.667 169.333 188 268l113 146c44 54.667 85.333 100.334 124 137.001c45.333 43.333 82.666 65 111.999 65c28 0 55.667 -13.5 83 -40.5s41 -54.5 41 -82.5c0 -14.667 -4 -25.334 -12 -32.001c-28 -5.33301 -68.333 -18 -121 -38
c-20 -12.667 -49.333 -38.334 -88 -77.001c-96.667 -97.333 -196 -216 -298 -356c-102.667 -142.667 -184.667 -275.334 -246 -398.001c-41.333 -82 -68 -151 -80 -207c-4 -21.333 -14 -47 -30 -77c-10.667 -7.33301 -57.667 -16.333 -141 -27
c-18.667 -2.66699 -50.667 -12 -96 -28c-41.333 -14.667 -70 -22 -86 -22c-44 0 -66 34.667 -66 104c0 46.667 9 127.5 27 242.5s39 224.5 63 328.5c-54 -67.333 -107.667 -151.333 -161 -252c-57.333 -108.667 -94.333 -200.334 -111 -275.001
c-4 -18 -12.333 -40.667 -25 -68c-10.667 -10 -30.334 -16.667 -59.001 -20c-51.333 -6 -86.333 -10.667 -105 -14c-39.333 -6.66699 -73.333 -16.334 -102 -29.001c-30.667 -13.333 -54 -20 -70 -20c-38.667 0 -58 37 -58 111c0 70.667 6.66699 145 20 223
c12.667 72 51.667 261.333 117 568c24 112 36 193.333 36 244c0 32.667 -4.33301 55 -13 67c-6.66699 8 -27 19 -61 33c-28 11.333 -42 26.333 -42 45c0 21.333 13 37 39 47c8.66699 3.33301 47.5 5 116.5 5s132.833 9.33301 191.5 28c29.333 9.33301 50.666 14 63.999 14
c44 0 66 -47 66 -141c0 -102 -26.667 -273 -80 -513c-32 -142.667 -54.333 -255.667 -67 -339c135.333 256 259.333 456.667 372 602c12 50 18 103 18 159c0 45.333 -18.833 75 -56.5 89s-56.5 30.333 -56.5 49s7.66699 33.334 23 44.001
c6.66699 4.66699 16.334 8 29.001 10c7.33301 0.666992 40 1 98 1c71.333 0 139 9 203 27c26 7.33301 46 11 60 11c42.667 0 64 -46.667 64 -140c0 -104 -33.333 -301.333 -100 -592c-13.333 -57.333 -32 -144 -56 -260z" />
    <glyph glyph-name="X" unicode="X" horiz-adv-x="1103" 
d="M707 866c23.333 -136.667 43.335 -244.664 60.002 -323.997c34.667 -162 65.667 -264.333 93 -307c15.333 -25.333 45 -48.333 89 -69c36 -16.667 54 -33.334 54 -50.001c0 -32.667 -31 -51.667 -93 -57c-104 -9.33301 -188.333 -26.666 -253 -51.999
c-20.667 -8 -37.334 -12 -50.001 -12c-22.667 0 -42.667 15.333 -60 46c-56 96 -104.667 292.333 -146 589c-54.667 -37.333 -110.334 -98 -167.001 -182c-62 -91.333 -93 -166.333 -93 -225c0 -32 16.833 -55 50.5 -69s50.5 -30 50.5 -48c0 -17.333 -6.33301 -30 -19 -38
s-39 -14.333 -79 -19c-50.667 -6 -100 -18.667 -148 -38c-26 -10.667 -46 -16 -60 -16c-30 0 -45 22 -45 66c0 45.333 15.667 103.666 47 174.999c80.667 178.667 227.667 355.667 441 531l-36 194c-17.333 86.667 -35.166 148.667 -53.499 186s-52.5 67 -102.5 89
c-41.333 18 -62 37 -62 57c0 30 20 45 60 45c11.333 0 28.5 -0.5 51.5 -1.5s40.5 -1.5 52.5 -1.5c50 0 111.333 11 184 33c22 6.66699 39 10 51 10c33.333 0 62.666 -33.667 87.999 -101c15.333 -41.333 40 -138 74 -290c48 30.667 97.667 67.334 149 110.001
c72 60.667 108 104 108 130c0 10 -9 20.667 -27 32s-27 24.666 -27 39.999c0 16 7 28.333 21 37c8.66699 5.33301 45.334 10.666 110.001 15.999c16.667 1.33301 45 6.66602 85 15.999c37.333 8.66699 62.333 13 75 13c30.667 0 46 -17 46 -51
c0 -68.667 -70.333 -155 -211 -259c-110.667 -82 -213.334 -150.333 -308.001 -205z" />
    <glyph glyph-name="Y" unicode="Y" horiz-adv-x="1071" 
d="M479 503c-71.333 -23.333 -123.33 -34.9951 -155.997 -34.9951c-59.333 0 -108 16.333 -146 49c-40.667 34 -61 80.333 -61 139c0 53.333 23.667 145.666 71 276.999c50.667 140 76 224.333 76 253c0 20.667 -15.333 38.667 -46 54s-46 32.666 -46 51.999
c0 29.333 16.667 44 50 44c10.667 0 26.667 -0.833008 48 -2.5s37.333 -2.5 48 -2.5c76.667 0 146 10.667 208 32c25.333 8.66699 43 13 53 13c37.333 0 56 -29.333 56 -88c0 -62 -16 -143 -48 -243c-18.667 -60 -48.334 -148.667 -89.001 -266
c-9.33301 -24 -14 -44 -14 -60c0 -29.333 18 -44 54 -44c86.667 0 175 66.333 265 199c73.333 108.667 110 207.667 110 297c0 22.667 -3.33301 38 -10 46c-5.33301 5.33301 -24.333 12.666 -57 21.999c-25.333 7.33301 -38 21.666 -38 42.999c0 28 15.667 44.667 47 50h79
c73.333 0 141 10.667 203 32c21.333 7.33301 36.666 11 45.999 11c30.667 0 46 -18.667 46 -56c0 -91.333 -156.333 -316 -469 -674c-84.667 -97.333 -153 -186.333 -205 -267c-52.667 -82.667 -79 -141 -79 -175c0 -19.333 16.5 -34.5 49.5 -45.5s49.5 -27.833 49.5 -50.5
c0 -19.333 -11 -34.333 -33 -45c-5.33301 -2.66699 -43 -8.33398 -113 -17.001c-20 -2.66699 -58.667 -12.667 -116 -30c-52.667 -16.667 -84.334 -25 -95.001 -25c-33.333 0 -50 19.333 -50 58c0 52.667 41.667 132 125 238z" />
    <glyph glyph-name="Z" unicode="Z" horiz-adv-x="1057" 
d="M730 1248c-15.333 0.666992 -26.665 0.998047 -33.998 0.998047c-164.667 0 -296.334 -71 -395.001 -213c-11.333 -17.333 -29.333 -40.666 -54 -69.999c-12.667 -10.667 -25.667 -16 -39 -16c-30 0 -45 16.333 -45 49c0 14 15.333 60 46 138
c10 24.667 27 82.334 51 173.001c12.667 46 36 69 70 69c15.333 0 38.666 -2.66699 69.999 -8c70 -12 164.333 -18 283 -18c116.667 0 231.334 7.66699 344.001 23c29.333 4 53.333 6 72 6c45.333 0 68 -22.333 68 -67c0 -65.333 -68 -181.666 -204 -348.999l-379 -442
c-136 -163.333 -204 -273 -204 -329c0 -40.667 27.333 -61 82 -61c62.667 0 129.667 26.667 201 80c63.333 46.667 114 100.667 152 162c11.333 18.667 28.666 42.334 51.999 71.001c13.333 11.333 27 17 41 17c13.333 0 26 -4.83301 38 -14.5s18 -21.167 18 -34.5
s-5.66699 -33 -17 -59c-34 -78 -70 -174 -108 -288c-10.667 -30.667 -23 -50.334 -37 -59.001c-10.667 -6.66699 -24.667 -10 -42 -10c-20 0 -44.667 2.33301 -74 7c-100 16 -211.667 24 -335 24c-134.667 0 -241.667 -7.66699 -321 -23
c-34.667 -6.66699 -60.667 -10 -78 -10c-41.333 0 -62 22 -62 66c0 48 24 116.667 72 206c54.667 102.667 130.667 213.667 228 333c30 37.333 118 139.666 264 306.999c84 96 131.667 151 143 165c54 64 98.333 122 133 174z" />
    <glyph glyph-name="bracketleft" unicode="[" horiz-adv-x="759" 
d="M274 -268c0 -40.667 -19.498 -67.166 -58.498 -79.499s-119.833 -18.5 -242.5 -18.5c-54 0 -90.333 3 -109 9c-38 12 -57 38.667 -57 80c0 33.333 10 78 30 134c18 49.333 78.333 199 181 449l291 721c22 60 58 148 108 264c14 29.333 28.333 49.333 43 60
c26.667 19.333 97.667 29 213 29c13.333 0 33.333 0.666992 60 2s46.667 2 60 2c49.333 0 74 -7.33301 74 -22c0 -8.66699 -2.66699 -22 -8 -40c-2.66699 -9.33301 -7.33398 -21.666 -14.001 -36.999c-8.66699 -12.667 -40.334 -20.834 -95.001 -24.501
s-93 -21.834 -115 -54.501c-15.333 -22.667 -53.333 -111.667 -114 -267c-86 -220 -202.667 -500.667 -350 -842c-58.667 -136 -88 -223.333 -88 -262c0 -34.667 16.667 -56.667 50 -66c6.66699 -2 37 -4.66699 91 -8c33.333 -2 50 -11.667 50 -29z" />
    <glyph glyph-name="backslash" unicode="\" horiz-adv-x="827" 
d="M185 1360c0 18 6.5 33.167 19.5 45.5s28.5 18.5 46.5 18.5c19.333 0 34.333 -10.333 45 -31c2 -4 12 -43 30 -117l360 -1475c24.667 -101.333 37 -157 37 -167c0 -37.333 -21.667 -56 -65 -56c-18 0 -31.667 6.33301 -41 19c-4.66699 6.66699 -19.667 62 -45 166
l-365 1485c-14.667 60 -22 97.333 -22 112z" />
    <glyph glyph-name="bracketright" unicode="]" horiz-adv-x="759" 
d="M344 1288c0 40 19.667 66.1689 59 78.502s120.333 18.5 243 18.5c53.333 0 89.333 -3 108 -9c38.667 -12 58 -38.333 58 -79c0 -42.667 -30 -140.334 -90 -293.001l-121 -291l-291 -721c-22 -60 -57.667 -148.333 -107 -265c-14.667 -29.333 -29.334 -49.333 -44.001 -60
c-26 -19.333 -94.333 -29 -205 -29c-14.667 0 -36.334 -0.666992 -65.001 -2s-50 -2 -64 -2c-48.667 0 -73 7.33301 -73 22c0 8.66699 2.66699 22 8 40c2.66699 9.33301 7.33398 21.666 14.001 36.999c8.66699 12 40.334 20 95.001 24s93 22.333 115 55
c14 20 52 109.333 114 268c82 210 198.667 490.667 350 842c58.667 136.667 88 224.667 88 264c0 34 -16.667 55.667 -50 65c-6 2 -36.667 4.66699 -92 8c-33.333 2 -50 11.667 -50 29z" />
    <glyph glyph-name="asciicircum" unicode="^" horiz-adv-x="1024" 
d="M297 721h-264l313 652h331l314 -652h-264l-215 450z" />
    <glyph glyph-name="underscore" unicode="_" horiz-adv-x="1024" 
d="M0 -89h1024v-178h-1024v178z" />
    <glyph glyph-name="grave" unicode="`" horiz-adv-x="1024" 
d="M571 1495c12 0 24.668 -5.33203 38.001 -15.999c57.333 -48.667 106.333 -103.667 147 -165c8 -13.333 12 -26.333 12 -39c0 -17.333 -8.5 -34.5 -25.5 -51.5s-34.167 -25.5 -51.5 -25.5c-11.333 0 -22.333 3.33301 -33 10c-14 8.66699 -43.333 32.167 -88 70.5
s-72.334 64 -83.001 77s-16 26.5 -16 40.5c0 19.333 11.833 40.666 35.5 63.999s45.167 35 64.5 35z" />
    <glyph glyph-name="a" unicode="a" horiz-adv-x="1055" 
d="M709 944c10.667 16.667 23 26.6699 37 30.0029c5.33301 1.33301 21.666 2 48.999 2c36.667 0 85.334 8.33301 146.001 25c16.667 4.66699 30 7 40 7c32 0 48 -27 48 -81c0 -65.333 -27.667 -168.333 -83 -309l-125 -310c-12 -34.667 -18 -63.334 -18 -86.001
c0 -29.333 17.5 -49.333 52.5 -60s52.5 -26.334 52.5 -47.001c0 -24 -17 -39.333 -51 -46l-79 -4c-72.667 -4.66699 -145 -21.334 -217 -50.001c-25.333 -10 -43 -15 -53 -15c-34 -0 -51 28.333 -51 85c0 25.333 2.33301 56.333 7 93
c-85.333 -76 -131.333 -116.333 -138 -121c-54.667 -38.667 -111.667 -58 -171 -58c-68.667 0 -125.667 25 -171 75c-44 48 -66 106.667 -66 176c0 134 52 271.333 156 412c96.667 130 209.334 227.333 338.001 292c70 35.333 131.667 53 185 53
c47.333 0 84.666 -21 111.999 -63zM695 823.003c-20.667 -12.667 -37.667 -19 -51 -19c-34 0 -51 17 -51 51c0 3.33301 0.5 8.33301 1.5 15s1.5 11.667 1.5 15c0 10.667 -5 16 -15 16c-18 0 -45 -19.333 -81 -58c-58 -64 -114 -156 -168 -276
c-57.333 -126 -86 -228.333 -86 -307c0 -41.333 14.667 -62 44 -62c42.667 0 96.667 40.667 162 122c44 55.333 84 116 120 182c60 110 101 217 123 321z" />
    <glyph glyph-name="b" unicode="b" horiz-adv-x="1060" 
d="M472 836c114 112.667 217.67 169.001 311.003 169.001c70.667 0 127.334 -25.667 170.001 -77c40 -48 60 -108 60 -180c0 -124.667 -48.333 -254.667 -145 -390c-86.667 -121.333 -188.334 -218.333 -305.001 -291c-79.333 -49.333 -152 -74 -218 -74
c-56 0 -101.333 20.667 -136 62c-6 -2 -35.333 -9.66699 -88 -23c-4.66699 -1.33301 -25.334 -8.33301 -62.001 -21c-25.333 -9.33301 -46.333 -14 -63 -14c-38 0 -57 32 -57 96c0 76.667 13 162 39 256c19.333 67.333 77.333 234 174 500c71.333 196 107 310 107 342
c0 30 -18.167 49.167 -54.5 57.5s-54.5 22.833 -54.5 43.5c0 22.667 13.667 37.667 41 45c4.66699 1.33301 43 3.33301 115 6c32 1.33301 65.667 4.66602 101 9.99902c7.33301 1.33301 29.666 6.33301 66.999 15c31.333 7.33301 51.666 11 60.999 11
c36.667 0 55 -33.333 55 -100c0 -62.667 -14.333 -137.667 -43 -225zM641.003 803.001c-23.333 0 -54.999 -17.333 -94.999 -52c-66 -58 -127 -145.333 -183 -262c-58 -119.333 -87 -221 -87 -305c0 -52 16.667 -78 50 -78c70 0 148 84.333 234 253
c83.333 162 126 288.333 128 379v7c1.33301 38.667 -14.334 58 -47.001 58z" />
    <glyph glyph-name="c" unicode="c" horiz-adv-x="793" 
d="M616 897c-23.333 0 -52.665 -15.6689 -87.998 -47.002c-62.667 -57.333 -125 -151.333 -187 -282c-62.667 -133.333 -94 -240.666 -94 -321.999c0 -55.333 22.667 -83 68 -83c44 0 100.167 27.667 168.5 83s109.5 83 123.5 83c26.667 0 40 -14 40 -42
c0 -29.333 -44 -80.333 -132 -153c-113.333 -93.333 -225.333 -140 -336 -140c-73.333 0 -135.166 23.333 -185.499 70s-75.5 106.667 -75.5 180c0 164 76.333 330 229 498c156 172 315.333 258 478 258c57.333 0 105.666 -14.667 144.999 -44
c42.667 -32.667 64 -77 64 -133c0 -35.333 -11.833 -66.666 -35.5 -93.999s-52.834 -41 -87.501 -41c-26.667 0 -50.334 9.16699 -71.001 27.5s-31 40.833 -31 67.5c0 15.333 5.5 34.333 16.5 57s16.5 36 16.5 40c0 11.333 -8.66699 17 -26 17z" />
    <glyph glyph-name="d" unicode="d" horiz-adv-x="1074" 
d="M716 912c58 139.333 87.001 232.666 87.001 279.999c0 28.667 -18 48.334 -54 59.001s-54 26.334 -54 47.001c0 24 20.667 37 62 39c44.667 2 89 3.66699 133 5c52.667 3.33301 96.334 10.333 131.001 21c26.667 8 46 12 58 12c37.333 0 56 -31 56 -93
c0 -50 -10 -111 -30 -183c-19.333 -68.667 -58 -179.667 -116 -333c-104.667 -277.333 -157 -466.333 -157 -567c0 -9.33301 0.666992 -23 2 -41s2 -31.667 2 -41c0 -18.667 -3.83301 -32 -11.5 -40s-22.5 -14.333 -44.5 -19
c-24.667 -4.66699 -61.334 -12.334 -110.001 -23.001c-4 -0.666992 -28 -7.66699 -72 -21c-38.667 -11.333 -60.334 -17 -65.001 -17c-33.333 0 -50 36.333 -50 109c0 38 2.33301 70 7 96l-154 -138c-60 -44.667 -124 -67 -192 -67c-70 0 -126 26 -168 78
c-38.667 48.667 -58 108.667 -58 180c0 124 47.333 253 142 387c86 121.333 187.333 216.333 304 285c86.667 51.333 162 77 226 77c62 0 104 -30.667 126 -92zM679.001 806c-14 -3.33301 -24.667 -5.00098 -32 -5.00098c-10 0 -22.333 3.83301 -37 11.5
s-22 15.834 -22 24.501c0 5.33301 1.33301 13.333 4 24s4 18.667 4 24c0 8 -5 12 -15 12c-17.333 0 -42 -16.667 -74 -50c-58 -61.333 -116.333 -153.333 -175 -276c-62 -130.667 -93 -233.667 -93 -309c0 -44 14.667 -66 44 -66c34 0 75 24 123 72
c91.333 90 182.333 269.333 273 538z" />
    <glyph glyph-name="e" unicode="e" horiz-adv-x="844" 
d="M325 530c-50 -106 -74.998 -200.333 -74.998 -283c0 -57.333 21.333 -86 64 -86c43.333 0 99.833 28.5 169.5 85.5s110.5 85.5 122.5 85.5c26.667 0 40 -14 40 -42c0 -31.333 -41.333 -81.333 -124 -150c-118.667 -98.667 -230.334 -148 -335.001 -148
c-82 0 -147.333 23 -196 69s-73 109.667 -73 191c0 161.333 77.333 326.333 232 495c158 171.333 316.667 257 476 257c67.333 0 121.666 -16.333 162.999 -49c45.333 -36 68 -87 68 -153c0 -94 -41.167 -181.167 -123.5 -261.5s-170.833 -120.5 -265.5 -120.5
c-71.333 0 -119 36.667 -143 110zM372.002 637c11.333 2.66699 20.666 3.99805 27.999 3.99805c33.333 0 50 -19.333 50 -58c0 -5.33301 -1.33301 -13.166 -4 -23.499s-4 -18.166 -4 -23.499c0 -10 4.66699 -15 14 -15c12 0 29.333 12.667 52 38
c28.667 32 56.667 78.333 84 139c29.333 64 44 115.667 44 155c0 28.667 -11.667 43 -35 43c-35.333 0 -79.666 -35 -132.999 -105c-40 -52.667 -72 -104 -96 -154z" />
    <glyph glyph-name="f" unicode="f" horiz-adv-x="671" 
d="M488 871c-9.33301 -20.667 -27.667 -69.002 -55 -145.002l-89 -248c-36 -102 -54 -186 -54 -252c0 -35.333 17.167 -56.666 51.5 -63.999s51.5 -22 51.5 -44c0 -18.667 -7.33301 -31.667 -22 -39c-12 -6.66699 -40.667 -10.667 -86 -12
c-73.333 -2 -156.666 -19.667 -249.999 -53c-20.667 -7.33301 -36.334 -11 -47.001 -11c-32.667 0 -49 32.333 -49 97c0 93.333 27 223.333 81 390c2.66699 8.66699 48.334 135.667 137.001 381c-32.667 -2 -49.334 -3 -50.001 -3c-22 0 -33 9 -33 27
c0 6 2.66699 16.333 8 31c10.667 30 26 47 46 51c24 1.33301 48 3 72 5c12 36.667 32 91 60 163c34 74 86.667 132.333 158 175c68.667 40.667 145 61 229 61c57.333 0 106.666 -12.333 147.999 -37c49.333 -29.333 74 -71 74 -125c0 -30 -9.66699 -56 -29 -78
s-43.666 -33 -72.999 -33c-24.667 0 -46 8.33301 -64 25s-27 37.334 -27 62.001c0 10.667 2.83301 23 8.5 37s8.5 22.667 8.5 26c0 9.33301 -7.33301 14 -22 14c-51.333 0 -100.333 -96.667 -147 -290c11.333 -2.66699 22.333 -4 33 -4c37.333 0 67.333 5.33301 90 16
c20 9.33301 33 14 39 14c24 0 36 -17.667 36 -53c0 -58 -48 -87 -144 -87c-16 0 -46 1 -90 3z" />
    <glyph glyph-name="g" unicode="g" horiz-adv-x="1063" 
d="M715 948c9.33301 12 19.3311 19.668 29.998 23.001c6 2 28.333 3.66699 67 5c30.667 0.666992 73.667 8 129 22c16 4 29.333 6 40 6c36.667 0 55 -25 55 -75c0 -66.667 -27 -167 -81 -301l-122 -301c-11.333 -33.333 -36 -123.666 -74 -270.999
c-31.333 -120.667 -77.666 -211.334 -138.999 -272.001c-108.667 -107.333 -258.667 -161 -450 -161c-117.333 0 -201.666 26.667 -252.999 80c-40 41.333 -60 89 -60 143c0 104.667 57 168.667 171 192c-68 53.333 -102 126.666 -102 219.999c0 98 30.667 200.333 92 307
c59.333 103.333 141 199 245 287c122 102.667 232.667 154 332 154c52 0 92 -19.333 120 -58zM698.998 814.001c-17.333 -8.66699 -32 -13 -44 -13c-35.333 0 -53 16 -53 48c0 4 0.666992 10.167 2 18.5s2 14.5 2 18.5c0 9.33301 -4.66699 14 -14 14
c-19.333 0 -47.333 -20.333 -84 -61c-56 -62 -112 -152 -168 -270c-60 -127.333 -90 -227 -90 -299c0 -46.667 14.667 -70 44 -70c35.333 0 80 28.667 134 86c40 42.667 74.667 87.667 104 135c89.333 144 145 275 167 393zM471.998 180.001
c-117.333 -124.667 -234.333 -184.334 -351 -179.001c10.667 -19.333 16 -37.666 16 -54.999c0 -25.333 -7.66699 -46.666 -23 -63.999c-14 -14.667 -43.333 -23.334 -88 -26.001c-36 -2.66699 -54 -15 -54 -37c0 -26 19 -47 57 -63c30 -12.667 60.333 -19 91 -19
c56 0 108 16.667 156 50c90 63.333 155.333 194.333 196 393z" />
    <glyph glyph-name="h" unicode="h" horiz-adv-x="1069" 
d="M463 821c128.667 122.667 240.667 183.998 336 183.998c62 0 111.333 -19.167 148 -57.5s55 -88.5 55 -150.5c0 -52.667 -28 -144.334 -84 -275.001c-64.667 -151.333 -97 -256.666 -97 -315.999c0 -24.667 16.333 -40.167 49 -46.5s49 -20.5 49 -42.5
c0 -20 -12.333 -35.333 -37 -46c-3.33301 -1.33301 -43.666 -5 -120.999 -11c-28 -2 -61.333 -8 -100 -18c-6.66699 -2 -32 -10.333 -76 -25c-38.667 -13.333 -60.667 -20 -66 -20c-30.667 0 -46 28 -46 84c0 102 49.333 268 148 498c47.333 110 71 176 71 198
c0 20.667 -10.667 31 -32 31c-36.667 0 -82.334 -26.667 -137.001 -80c-40 -39.333 -75.333 -82.333 -106 -129c-84 -128 -126 -267.333 -126 -418c0 -8 0.666992 -19.833 2 -35.5s2 -27.5 2 -35.5c0 -28 -18.667 -46 -56 -54c-45.333 -8.66699 -113 -24.667 -203 -48
c-21.333 -7.33301 -37 -11 -47 -11c-33.333 0 -50 33.667 -50 101c0 92 31.333 235.333 94 430c21.333 65.333 71.333 205 150 419c48 130.667 72 211.334 72 242.001c0 28 -18.333 48.333 -55 61s-55 28.334 -55 47.001c0 24 15 38.333 45 43h72
c67.333 0 144.333 10.667 231 32c16 4 27.333 6 34 6c36.667 0 55 -31 55 -93c0 -67.333 -39.667 -222 -119 -464z" />
    <glyph glyph-name="i" unicode="i" horiz-adv-x="560" 
d="M179 966c91.333 0 168.666 9.33398 231.999 28.001c24.667 7.33301 42.334 11 53.001 11c34.667 0 52 -29 52 -87c0 -70 -30 -175.667 -90 -317c-72 -169.333 -113.333 -276.666 -124 -321.999c-8.66699 -37.333 -13.667 -86.333 -15 -147
c-0.666992 -25.333 -6.16699 -43.333 -16.5 -54s-32.166 -18.334 -65.499 -23.001c-48 -7.33301 -106.667 -22.333 -176 -45c-18 -6 -32.333 -9 -43 -9c-31.333 0 -47 29 -47 87c0 74.667 21.333 168 64 280c12.667 32.667 51.667 121.667 117 267c44 98 66 162.667 66 194
c0 25.333 -18.167 42.666 -54.5 51.999s-54.5 24 -54.5 44c0 23.333 12.667 37 38 41c-0.666992 0 20.666 0 63.999 0zM455 1404c37.333 0 68.668 -12.501 94.001 -37.501s38 -56.167 38 -93.5c0 -52 -29.333 -98 -88 -138c-53.333 -36.667 -107.333 -55 -162 -55
c-38.667 0 -71.334 12.667 -98.001 38s-40 57 -40 95c0 54.667 30 101.334 90 140.001c52.667 34 108 51 166 51z" />
    <glyph glyph-name="j" unicode="j" horiz-adv-x="602" 
d="M-286 -51c25.333 0 46.3291 -8.16699 62.9961 -24.5s25 -37.166 25 -62.499c0 -36.667 -17.833 -61.167 -53.5 -73.5s-53.5 -20.5 -53.5 -24.5c0 -26.667 22.667 -40 68 -40c72 0 127 40.667 165 122c16.667 35.333 31.334 87.333 44.001 156s35.334 171 68.001 307
c17.333 59.333 57 168.333 119 327c41.333 106 62 170.667 62 194c0 26 -18 41.667 -54 47s-54 20 -54 44c0 22 14 36.333 42 43c4.66699 1.33301 29.334 2.33301 74.001 3c29.333 0.666992 68 4.33398 116 11.001c22.667 2.66699 56 8.66699 100 18
c24.667 7.33301 42.334 11 53.001 11c34.667 0 52 -29 52 -87c0 -66 -39.333 -198.333 -118 -397c-33.333 -84 -59.333 -156 -78 -216l-93 -363c-44.667 -128.667 -123.667 -221.334 -237 -278.001c-72 -36 -147 -54 -225 -54c-62.667 0 -114 14.333 -154 43
c-45.333 32 -68 78 -68 138c0 41.333 12.667 77.666 38 108.999s58.333 47 99 47zM482.996 1403c38.667 0 70.332 -12.501 94.999 -37.501s37 -56.833 37 -95.5c0 -51.333 -30.333 -97 -91 -137c-54.667 -36 -109 -54 -163 -54c-36.667 0 -68.167 12.833 -94.5 38.5
s-39.5 56.834 -39.5 93.501c0 55.333 29.667 102.333 89 141c52.667 34 108.334 51 167.001 51z" />
    <glyph glyph-name="k" unicode="k" horiz-adv-x="949" 
d="M385 360c70 -135.333 141.667 -202.998 215 -202.998c13.333 0 28.5 6.33301 45.5 19s30.167 19 39.5 19c18.667 0 34 -9.66699 46 -29c10.667 -16.667 16 -35 16 -55c0 -35.333 -11.5 -63.166 -34.5 -83.499s-52.5 -30.5 -88.5 -30.5c-70.667 0 -136.667 35 -198 105
c-34 38.667 -76.667 104.334 -128 197.001c-7.33301 -32.667 -11 -73.667 -11 -123c0 -7.33301 0.666992 -18.5 2 -33.5s2 -26.167 2 -33.5c0 -26.667 -23.667 -43.667 -71 -51c-17.333 -2.66699 -48.333 -9.33398 -93 -20.001c-98.667 -24.667 -144.334 -37 -137.001 -37
c-34 0 -51 35.333 -51 106c0 94.667 32 238 96 430c24.667 74.667 76.334 214 155.001 418c45.333 118 68 199 68 243c0 27.333 -18.333 46.166 -55 56.499s-55 25.5 -55 45.5c0 15.333 7.66699 26.666 23 33.999c12 5.33301 41.333 8 88 8c78.667 0 156.667 10.333 234 31
c20 5.33301 34.333 8 43 8c35.333 0 53 -33.333 53 -100c0 -72.667 -41 -222.334 -123 -449.001l83 74c71.333 64.667 152.666 97 243.999 97c52 0 94.667 -16 128 -48s50 -73.667 50 -125c0 -100 -53 -194.333 -159 -283c-117.333 -98 -259.666 -160.333 -426.999 -187z
M347 457.002c70 0 141.667 35.001 215 105.001c70.667 67.333 106 131.666 106 192.999c0 28 -11.667 42 -35 42c-47.333 0 -104 -45 -170 -135c-52 -72 -90.667 -140.333 -116 -205z" />
    <glyph glyph-name="l" unicode="l" horiz-adv-x="535" 
d="M597 1296c0 -62 -18 -152.001 -54 -270.001l-154 -420c-64.667 -180 -97 -320.667 -97 -422c0 -8 0.5 -19.5 1.5 -34.5s1.5 -26.5 1.5 -34.5c0 -18 -5 -31.333 -15 -40s-32.167 -15.667 -66.5 -21s-84.833 -17.666 -151.5 -36.999c-30.667 -13.333 -54.667 -20 -72 -20
c-34 0 -51 34.667 -51 104c0 126.667 87 416 261 868c42 109.333 63 185 63 227c0 28.667 -18 47.667 -54 57s-54 24.333 -54 45c0 28.667 26.667 43 80 43c44 0 95.667 3 155 9c37.333 4 69.333 10 96 18s44 12 52 12c39.333 0 59 -28 59 -84z" />
    <glyph glyph-name="m" unicode="m" horiz-adv-x="1644" 
d="M1031 815c121.333 127.333 232.331 191 332.998 191c62.667 0 113.334 -17 152.001 -51c40.667 -36 61 -84.667 61 -146c0 -54.667 -26.667 -146 -80 -274c-67.333 -161.333 -101 -268 -101 -320c0 -27.333 16.333 -45.166 49 -53.499s49 -23.166 49 -44.499
c0 -18 -8 -31 -24 -39c-13.333 -6.66699 -43.333 -11.334 -90 -14.001c-86.667 -4.66699 -167.667 -22.334 -243 -53.001c-18 -7.33301 -32.667 -11 -44 -11c-34 0 -51 33.667 -51 101c0 68.667 24.333 165.667 73 291c13.333 34 54.333 127 123 279
c20.667 46 31 79.333 31 100c0 25.333 -11 38 -33 38c-29.333 0 -66.666 -20.667 -111.999 -62c-113.333 -103.333 -196 -237 -248 -401c-20.667 -64.667 -31 -109.334 -31 -134.001c0 -19.333 14 -36.166 42 -50.499s42 -30.5 42 -48.5c0 -18.667 -11 -32.334 -33 -41.001
c-8 -3.33301 -36.333 -6.33301 -85 -9c-32 -2 -68.333 -7.33301 -109 -16c-8 -2 -36.333 -10.667 -85 -26c-41.333 -12.667 -66.666 -19 -75.999 -19c-32.667 0 -49 30 -49 90c0 88.667 57.333 263.334 172 524.001c36.667 83.333 55 136 55 158c0 25.333 -11 38 -33 38
c-46 0 -104.667 -46.667 -176 -140c-50.667 -66 -94.334 -134.333 -131.001 -205c-59.333 -115.333 -89.666 -226.333 -90.999 -333c0 -14.667 -3.66699 -33.334 -11 -56.001c-7.33301 -9.33301 -24 -15.666 -50 -18.999c-30 -4 -60 -9.66699 -90 -17
c-2.66699 -0.666992 -27.667 -8.33398 -75 -23.001c-34 -10.667 -57.667 -16 -71 -16c-34.667 0 -52 28.333 -52 85c0 97.333 70.333 302 211 614c26 57.333 39 100.333 39 129c0 26 -18.333 43.167 -55 51.5s-55 23.5 -55 45.5c0 28.667 29.667 43 89 43
c93.333 0 181.333 10 264 30c11.333 2.66699 22 4 32 4c36.667 0 55 -26.333 55 -79c0 -25.333 -5.33301 -58.666 -16 -99.999c115.333 121.333 226.666 182 333.999 182c118 0 182.667 -64.333 194 -193z" />
    <glyph glyph-name="n" unicode="n" horiz-adv-x="1096" 
d="M503 826c58.667 59.333 107.668 101.335 147.001 126.002c57.333 36.667 118.333 55 183 55c58.667 0 105.834 -18.833 141.501 -56.5s53.5 -86.167 53.5 -145.5s-28.333 -156.333 -85 -291c-64 -152 -96 -250.333 -96 -295c0 -29.333 16.5 -48.5 49.5 -57.5
s49.5 -23.833 49.5 -44.5s-11.667 -35.334 -35 -44.001c-6.66699 -2.66699 -38.834 -5 -96.501 -7s-131.167 -20 -220.5 -54c-21.333 -8 -39 -12 -53 -12c-32 0 -48 28.333 -48 85c0 78.667 46.667 230.667 140 456c56 135.333 84 212.333 84 231c0 26.667 -11 40 -33 40
c-28 0 -69 -27.667 -123 -83c-115.333 -118.667 -196.333 -254.334 -243 -407.001c-17.333 -54.667 -27 -123.334 -29 -206.001c-0.666992 -24 -5.33398 -39.167 -14.001 -45.5s-37.334 -13.166 -86.001 -20.499c-15.333 -2 -40.666 -7.66699 -75.999 -17
c-87.333 -23.333 -129.333 -35 -126 -35c-32.667 0 -49 29.333 -49 88c0 101.333 70.333 306.333 211 615c27.333 60 41 101.333 41 124c0 28 -18.667 46.167 -56 54.5s-56 22.5 -56 42.5c0 30.667 19.333 46 58 46c8 0 22.667 -0.333008 44 -1h43c63.333 0 127 9 191 27
c21.333 6 38 9 50 9c35.333 0 53 -26 53 -78c0 -26.667 -4.66699 -59.667 -14 -99z" />
    <glyph glyph-name="o" unicode="o" horiz-adv-x="906" 
d="M632 1002c155.333 0 233 -78.667 233 -236c0 -162 -73.333 -329.667 -220 -503c-152 -180 -307.667 -270 -467 -270c-79.333 0 -142.5 23.5 -189.5 70.5s-70.5 110.167 -70.5 189.5c0 162.667 78 327.667 234 495c158.667 169.333 318.667 254 480 254zM597 893
c-53.333 0 -116.999 -65.668 -190.999 -197.001c-54.667 -98 -95.334 -189 -122.001 -273c-22.667 -71.333 -34 -128.333 -34 -171c0 -58.667 21 -88 63 -88c29.333 0 65 22.667 107 68c55.333 60.667 108.333 151.334 159 272.001c51.333 123.333 77 224.333 77 303
c0 57.333 -19.667 86 -59 86z" />
    <glyph glyph-name="p" unicode="p" horiz-adv-x="1093" 
d="M499 834c63.333 55.333 110.666 92.999 141.999 112.999c58.667 37.333 115.334 56 170.001 56c71.333 0 129 -25.667 173 -77c40.667 -48 61 -108.333 61 -181c0 -125.333 -46.667 -253.333 -140 -384c-82.667 -114.667 -183 -209.334 -301 -284.001
c-88.667 -56 -165.667 -84 -231 -84c-56 0 -99.333 24.333 -130 73c-27.333 -88 -41 -173 -41 -255c0 -7.33301 0.5 -18.666 1.5 -33.999s1.5 -26.666 1.5 -33.999c0 -20.667 -5 -35.5 -15 -44.5s-29.667 -15.833 -59 -20.5s-60 -11 -92 -19
c-3.33301 -0.666992 -26.666 -8 -69.999 -22c-34.667 -11.333 -56 -17 -64 -17c-36.667 0 -55 29 -55 87c0 117.333 26 257 78 419c16 49.333 66.333 183.666 151 402.999c61.333 159.333 92 253.333 92 282c0 32.667 -19 54.834 -57 66.501s-57 26.5 -57 44.5
c0 26 19 41 57 45c-2 0 26.667 0 86 0s128.666 10.333 207.999 31c18 4.66699 31.667 7 41 7c39.333 0 59 -26 59 -78c0 -17.333 -3 -48.333 -9 -93zM280 195.999c24.667 2.66699 36 3.99902 34 3.99902c37.333 0 56 -18.333 56 -55
c0 -3.33301 -0.833008 -8.16602 -2.5 -14.499s-2.5 -10.833 -2.5 -13.5c0 -10 5 -15 15 -15c11.333 0 30.333 12 57 36c65.333 59.333 128.333 153.333 189 282c62 132 93 241 93 327c0 36 -13.667 54 -41 54c-32.667 0 -72 -23 -118 -69
c-38.667 -38.667 -73 -81.667 -103 -129c-78 -124 -137 -259.667 -177 -407z" />
    <glyph glyph-name="q" unicode="q" horiz-adv-x="1045" 
d="M425 130c-111.333 -92 -203.666 -137.998 -276.999 -137.998c-68 0 -124 26 -168 78c-41.333 49.333 -62 108.666 -62 177.999c0 135.333 54 274.333 162 417c100.667 132.667 216.334 230 347.001 292c64 30 117 45 159 45c50 0 91 -20.333 123 -61c10 12 20 20 30 24
c8 3.33301 23.333 5 46 5c55.333 0 104.333 6.66699 147 20c23.333 7.33301 39.666 11 48.999 11c34 0 51 -27.333 51 -82c0 -51.333 -13.167 -115 -39.5 -191s-89.5 -230 -189.5 -462c-103.333 -240.667 -155 -383.667 -155 -429c0 -24 17.333 -43.5 52 -58.5
s52 -31.5 52 -49.5c0 -17.333 -12.667 -30.333 -38 -39c-1.33301 -0.666992 -29 -3.33398 -83 -8.00098c-88.667 -8 -161.334 -23.667 -218.001 -47c-27.333 -11.333 -48 -17 -62 -17c-35.333 0 -53 29.333 -53 88c0 80.667 42.333 222 127 424zM694 808.002
c-16 -8 -29.998 -11.998 -41.998 -11.998c-38.667 0 -58 18.667 -58 56c0 4 1 9.66699 3 17s3 12.666 3 15.999c0 8.66699 -4.33301 13 -13 13c-20.667 0 -51.667 -24.667 -93 -74c-58.667 -70 -113.334 -159 -164.001 -267c-56 -120.667 -84 -219.334 -84 -296.001
c0 -43.333 14 -65 42 -65c31.333 0 71.666 23.333 120.999 70c60 57.333 119 142 177 254c56 108 92 204 108 288z" />
    <glyph glyph-name="r" unicode="r" horiz-adv-x="824" 
d="M502 831c94.667 114 178.999 171.001 252.999 171.001c37.333 0 67.5 -12 90.5 -36s34.5 -54.667 34.5 -92c0 -53.333 -19.333 -105 -58 -155c-40.667 -52.667 -87 -79 -139 -79c-38 0 -57 14.667 -57 44c0 5.33301 2 12.666 6 21.999s6 16.666 6 21.999
c0 10 -5.33301 15 -16 15c-26 0 -61.667 -25.667 -107 -77c-33.333 -37.333 -61.666 -75.333 -84.999 -114c-92 -150.667 -139.333 -277 -142 -379c0 -26.667 -3 -58 -9 -94c-6 -10 -24.333 -17.333 -55 -22c-70.667 -10 -130.334 -25 -179.001 -45
c-23.333 -9.33301 -41.666 -14 -54.999 -14c-34 0 -51 30.667 -51 92c0 70.667 24.333 169.667 73 297c15.333 40.667 56.333 136 123 286c32.667 74 49 126.667 49 158c0 22.667 -18 38.5 -54 47.5s-54 24.833 -54 47.5c0 26.667 24.667 40.334 74 41.001
c112 1.33301 202.333 11.333 271 30c19.333 5.33301 34 8 44 8c32.667 0 49 -26.333 49 -79c0 -13.333 -4 -45 -12 -95z" />
    <glyph glyph-name="s" unicode="s" horiz-adv-x="852" 
d="M507 898c-32.667 0 -62.999 -9.66699 -90.999 -29c-32 -21.333 -48 -47.666 -48 -78.999c0 -30.667 29.667 -64.667 89 -102c88 -54.667 143.667 -93 167 -115c59.333 -58 89 -127 89 -207c0 -116 -47.333 -208.667 -142 -278c-84.667 -62 -187 -93 -307 -93
c-84 0 -158 18 -222 54c-78 43.333 -117 104 -117 182c0 30 9 56.167 27 78.5s41.333 33.5 70 33.5c30 0 54 -12 72 -36c10.667 -14.667 16.334 -33.334 17.001 -56.001v-60c3.33301 -26 16.666 -47.667 39.999 -65s55 -26 95 -26c43.333 0 82.166 13 116.499 39
s51.5 60.333 51.5 103c0 47.333 -30 92.333 -90 135l-167 116c-60 52 -90 112.667 -90 182c0 103.333 46.667 186.333 140 249c82 54 177.333 81 286 81c74 0 136.333 -13 187 -39c64.667 -34 97 -84.333 97 -151c0 -34.667 -10.333 -64 -31 -88s-48 -36 -82 -36
c-62.667 0 -94 30 -94 90c0 10.667 3.5 25.167 10.5 43.5s10.5 30.833 10.5 37.5c0 24 -28 36 -84 36z" />
    <glyph glyph-name="t" unicode="t" horiz-adv-x="627" 
d="M486 867l-53.9961 -150.999c-53.333 -142.667 -83.333 -225 -90 -247c-34.667 -105.333 -52 -189.666 -52 -252.999c0 -22 4 -36 12 -42c4.66699 -4 26.667 -10.333 66 -19c28.667 -6 43 -20 43 -42c0 -24 -13 -39.667 -39 -47c-6.66699 -2 -38.667 -4 -96 -6
c-80.667 -2.66699 -151.334 -17 -212.001 -43c-31.333 -13.333 -55 -20 -71 -20c-36 0 -54 33 -54 99c0 95.333 26.667 224.666 80 387.999l140 383c-16.667 -2 -30.334 -3 -41.001 -3c-36.667 0 -55 11.333 -55 34c0 40.667 19.333 65.334 58 74.001
c80 17.333 148.167 50.166 204.5 98.499s105.5 116.166 147.5 203.499c22 46 46 69 72 69c34 0 51 -21 51 -63c0 -27.333 -26 -130 -78 -308c12.667 0 31.667 1 57 3c5.33301 1.33301 16.666 5.66602 33.999 12.999c14.667 6.66699 25.667 10 33 10
c26.667 0 40 -16.667 40 -50c0 -40.667 -21.667 -66 -65 -76c-14.667 -3.33301 -51.334 -4.66602 -110.001 -3.99902c-2 0 -9 -0.333008 -21 -1z" />
    <glyph glyph-name="u" unicode="u" horiz-adv-x="1058" 
d="M461 169c-58.667 -56.667 -106.997 -96.6709 -144.997 -120.004c-57.333 -35.333 -116.666 -53 -177.999 -53c-55.333 0 -101.333 19.167 -138 57.5s-55 85.166 -55 140.499c0 56 26 143 78 261l120 263c20 51.333 30 88 30 110c0 27.333 -18.167 44 -54.5 50
s-54.5 21 -54.5 45c0 21.333 13.667 34.333 41 39c6.66699 1.33301 28.667 2 66 2c94.667 0 168 8.66699 220 26c25.333 8.66699 45.666 13 60.999 13c35.333 0 53 -28.333 53 -85c0 -58 -26 -152 -78 -282c-4.66699 -12.667 -44.334 -104 -119.001 -274
c-31.333 -71.333 -47 -116.666 -47 -135.999c0 -20 10 -30 30 -30c31.333 0 71.666 24.667 120.999 74c99.333 100 181.666 238.333 246.999 415c27.333 73.333 41 132 41 176c0 48 6.33301 77.667 19 89c10 8.66699 40.333 16 91 22c60.667 6.66699 95 11.334 103 14.001
c29.333 8.66699 50 13 62 13c37.333 0 56 -29 56 -87c0 -61.333 -26.667 -157.666 -80 -288.999l-122 -293c-18 -52 -27 -92.333 -27 -121c0 -26.667 17.333 -45 52 -55s52 -26.667 52 -50c0 -19.333 -12.333 -32.666 -37 -39.999c-4 -1.33301 -33.333 -4 -88 -8
c-66.667 -5.33301 -142 -22.666 -226 -51.999c-17.333 -6 -32 -9 -44 -9c-38.667 0 -58 30 -58 90c0 15.333 2.66699 43.333 8 84z" />
    <glyph glyph-name="v" unicode="v" horiz-adv-x="896" 
d="M417 282l161 251.997c70 117.333 105 205.333 105 264c0 40.667 -20 66.167 -60 76.5s-60 25.5 -60 45.5c0 23.333 15 38.333 45 45c6 1.33301 29.333 2 70 2c19.333 0 45.333 2.66699 78 8c16 2 40 6.66699 72 14c25.333 8 42.666 12 51.999 12
c33.333 0 50 -25.667 50 -77c0 -73.333 -30.667 -156.333 -92 -249c-21.333 -32 -77.333 -103.667 -168 -215c-119.333 -146 -188.333 -262 -207 -348c-2 -10.667 -6.66699 -24 -14 -40c-4 -4 -17 -8.33301 -39 -13c-75.333 -15.333 -147.333 -34 -216 -56
c-10.667 -3.33301 -19.667 -5 -27 -5c-27.333 0 -46.333 23.667 -57 71c-10.667 44.667 -16 134 -16 268c0 101.333 4.33301 227.333 13 378c2 34.667 3 60.667 3 78c0 40.667 -10.333 67.334 -31 80.001c-4 2.66699 -22.667 7.33398 -56 14.001c-20.667 4 -31 16 -31 36
c0 17.333 6.66699 29.333 20 36c10.667 5.33301 38.334 8 83.001 8c48.667 0 87.667 2 117 6c12.667 1.33301 40.667 7 84 17c38 8.66699 64.667 13 80 13c39.333 0 59 -40.333 59 -121c0 -50.667 -4.5 -126.5 -13.5 -227.5s-13.5 -176.833 -13.5 -227.5
c0 -39.333 3 -87.666 9 -144.999z" />
    <glyph glyph-name="w" unicode="w" horiz-adv-x="1399" 
d="M919 285l92.0039 148c63.333 102.667 98.666 160.667 105.999 174c42 78 63 141 63 189c0 40 -19.5 65.833 -58.5 77.5s-58.5 27.167 -58.5 46.5c0 22 13.667 36 41 42c4 0.666992 31.667 2 83 4c46.667 2 91 9 133 21c24.667 7.33301 43.334 11 56.001 11
c38 0 57 -24.667 57 -74c0 -84 -52.333 -197.333 -157 -340l-243 -320c-31.333 -49.333 -54 -103.333 -68 -162c-2 -8.66699 -6.66699 -20.334 -14 -35.001c-5.33301 -6 -16 -10 -32 -12c-82.667 -11.333 -147.334 -25.666 -194.001 -42.999c-26.667 -10 -46 -15 -58 -15
c-30 0 -48.667 29.333 -56 88c-12.667 100 -18 188.333 -16 265c-50 -51.333 -92 -132 -126 -242c-7.33301 -23.333 -16 -37.666 -26 -42.999c-6.66699 -4 -43.334 -12 -110.001 -24c-42.667 -7.33301 -80 -18.333 -112 -33c-22 -10 -38 -15 -48 -15
c-51.333 0 -77 100 -77 300c0 54 2.66699 135.333 8 244s8 190 8 244c0 37.333 -3.66699 61.666 -11 72.999c-6 9.33301 -27 17.666 -63 24.999c-30 6.66699 -45 20 -45 40c0 27.333 23 42 69 44c34.667 0.666992 86.667 3.33398 156 8.00098
c13.333 1.33301 40.666 6.66602 81.999 15.999c36 8.66699 61.333 13 76 13c40 0 60 -30.333 60 -91c0 -52 -3.5 -130.333 -10.5 -235s-10.5 -183 -10.5 -235c0 -30.667 2.66699 -82 8 -154l181 278c4.66699 116.667 7 192.334 7 227.001c0 38.667 -12.667 66.5 -38 83.5
s-38 33.167 -38 48.5c0 26 19 40 57 42c67.333 4 109.333 7 126 9c47.333 4.66699 88.666 12 123.999 22c16 4.66699 28.667 7 38 7c36.667 0 55 -30.667 55 -92c0 -18 -2 -51.667 -6 -101c-12 -148.667 -18 -274.667 -18 -378c0 -53.333 2.66699 -102 8 -146z" />
    <glyph glyph-name="x" unicode="x" horiz-adv-x="944" 
d="M575 603c24 -88 44.665 -158 61.998 -210c33.333 -102.667 61.666 -166.334 84.999 -191.001c10 -11.333 34.333 -24.333 73 -39c30 -11.333 45 -26 45 -44c0 -22 -12.667 -37.667 -38 -47c-5.33301 -2 -40.666 -5.66699 -105.999 -11
c-67.333 -5.33301 -129.666 -21 -186.999 -47c-22.667 -10 -38.334 -15 -47.001 -15c-46.667 0 -103.334 141.333 -170.001 424c-32.667 -19.333 -67 -55 -103 -107c-38.667 -54.667 -58 -99 -58 -133c0 -18 11.333 -31.667 34 -41s34 -22.666 34 -39.999
c0 -16.667 -4.16699 -28.167 -12.5 -34.5s-31.5 -13.166 -69.5 -20.499c-10 -2 -38.5 -10.5 -85.5 -25.5s-72.167 -22.5 -75.5 -22.5c-30.667 0 -46 20.333 -46 61c0 136 118 296.667 354 482c-11.333 57.333 -20.333 99.333 -27 126c-12.667 48 -26.667 89 -42 123
c-24 50 -52.667 79.667 -86 89c-45.333 12.667 -68 28.334 -68 47.001c0 28.667 22.333 43.667 67 45c62.667 2 107.334 4.33301 134.001 7c50.667 4 95 11 133 21c20.667 5.33301 36.334 8 47.001 8c21.333 0 39.333 -14.667 54 -44s28 -70.333 40 -123
c14.667 -66.667 25 -108.667 31 -126c90 59.333 135 107.333 135 144c0 6.66699 -9.5 15 -28.5 25s-28.5 23.667 -28.5 41c0 14 4.66699 24.667 14 32c8 5.33301 24.667 8.66602 50 9.99902c54.667 2.66699 108.334 11.667 161.001 27c20.667 6 36.667 9 48 9
c26 0 39 -13.333 39 -40c0 -30.667 -24 -73.334 -72 -128.001c-36.667 -41.333 -74 -76.333 -112 -105c-18.667 -14.667 -78 -57 -178 -127z" />
    <glyph glyph-name="y" unicode="y" horiz-adv-x="941" 
d="M440 296c172.667 228 258.999 397.665 258.999 508.998c0 40 -19.667 64 -59 72s-59 22.333 -59 43c0 23.333 11.333 37.666 34 42.999c3.33301 0.666992 27 1.33398 71 2.00098c50 0.666992 104 10.667 162 30c20 6.66699 35.333 10 46 10c36 0 54 -25.667 54 -77
c0 -72 -29.667 -154.333 -89 -247c-14 -21.333 -68 -93.333 -162 -216c-236 -307.333 -354 -514.333 -354 -621c0 -34.667 19.667 -58 59 -70s59 -27.333 59 -46c0 -26 -19 -40.667 -57 -44c-56.667 -4.66699 -116 -18.334 -178 -41.001c-42 -15.333 -68 -23 -78 -23
c-34.667 0 -52 25.333 -52 76s14.667 104.667 44 162c4 8 33.333 56 88 144c-14.667 -4.66699 -27 -7 -37 -7c-32.667 0 -52.667 28.333 -60 85c-11.333 90.667 -17 175.334 -17 254.001c0 50.667 1.83301 126.334 5.5 227.001s5.5 176.334 5.5 227.001
c0 32 -3.66699 53.667 -11 65c-6 8.66699 -27 18 -63 28c-29.333 8 -44 22.333 -44 43c0 18.667 12.667 31.667 38 39c7.33301 2 40.333 3.33301 99 4c66 0.666992 133.667 10 203 28c20.667 5.33301 37.334 8 50.001 8c37.333 0 56 -36.333 56 -109
c0 -24 -2 -64.667 -6 -122c-12 -171.333 -18 -292 -18 -362c0 -34.667 3.66699 -72.667 11 -114z" />
    <glyph glyph-name="z" unicode="z" horiz-adv-x="903" 
d="M517 868c-65.333 5.33301 -111.001 7.99902 -137.001 7.99902c-46 0 -70.667 -13 -74 -39c-4 -37.333 -12.667 -60.833 -26 -70.5s-31.333 -14.5 -54 -14.5c-31.333 0 -57.166 10.667 -77.499 32s-30.5 47.666 -30.5 78.999c0 44.667 17 79.334 51 104.001
c30.667 22 69.334 33 116.001 33c34 0 86.333 -3 157 -9s124.334 -9 161.001 -9c77.333 0 141.666 4.33301 192.999 13c24 4 41 6 51 6c42.667 0 64 -21.667 64 -65c0 -63.333 -54 -152.333 -162 -267l-299 -289c-108 -104.667 -162 -177 -162 -217
c0 -21.333 17.333 -32 52 -32c70 0 132.333 18.667 187 56c30 20.667 66 55.667 108 105c32 37.333 55.333 56 70 56c28 0 42 -14.667 42 -44c0 -11.333 -4.66699 -27.333 -14 -48c-18 -39.333 -43.667 -99 -77 -179c-6.66699 -17.333 -17.334 -39.333 -32.001 -66
c-10 -10.667 -24 -16 -42 -16c-14 0 -36 2 -66 6c-79.333 10.667 -165.333 16 -258 16c-106.667 0 -188.667 -6.66699 -246 -20c-26 -6 -45 -9 -57 -9c-38 0 -57 24 -57 72c0 118.667 80.333 265.334 241 440.001z" />
    <glyph glyph-name="braceleft" unicode="{" horiz-adv-x="760" 
d="M151 532c71.333 -74 106.998 -147.999 106.998 -221.999c0 -46.667 -27.667 -118 -83 -214s-83 -172.667 -83 -230c0 -39.333 16.667 -66.333 50 -81l91 -24c33.333 -9.33301 50 -27 50 -53c0 -38.667 -29 -63.667 -87 -75c-22.667 -4 -66.667 -6 -132 -6
c-80.667 0 -139.667 15 -177 45c-42 33.333 -63 89.333 -63 168c0 57.333 27.333 142 82 254c26.667 54 64.334 136 113.001 246c20 50.667 30 88.667 30 114c0 16 -4.33301 38.667 -13 68s-13 49 -13 59c0 11.333 11.333 21 34 29c44.667 16 82.334 54 113.001 114
c20.667 40 52 145.333 94 316c48 192.667 150.667 306.667 308 342c47.333 10.667 102 16 164 16c78.667 0 118 -19.333 118 -58c0 -17.333 -5.66699 -30.666 -17 -39.999c-8.66699 -7.33301 -31 -14.333 -67 -21c-42.667 -8.66699 -75.667 -18.334 -99 -29.001
c-39.333 -17.333 -71 -44 -95 -80c-26.667 -40.667 -49 -94 -67 -160l-40 -170c-48.667 -188.667 -154.667 -291.334 -318 -308.001z" />
    <glyph glyph-name="bar" unicode="|" horiz-adv-x="1024" 
d="M362 1365h299v-1706h-299v1706z" />
    <glyph glyph-name="braceright" unicode="}" horiz-adv-x="760" 
d="M473 493c-71.333 74 -106.999 147.999 -106.999 221.999c0 47.333 27.667 119 83 215s83 172.667 83 230c0 38.667 -16.667 65.334 -50 80.001c-30 8.66699 -60.333 17 -91 25c-33.333 9.33301 -50 27 -50 53c0 38.667 29 63.667 87 75c22.667 4 66.667 6 132 6
c160 0 240 -71 240 -213c0 -58 -27.333 -142.667 -82 -254c-26.667 -54 -64.334 -136 -113.001 -246c-20 -51.333 -30 -89.333 -30 -114c0 -16 4.33301 -38.833 13 -68.5s13 -49.167 13 -58.5c0 -11.333 -11.333 -21 -34 -29c-44 -15.333 -81.667 -53.666 -113 -114.999
c-20.667 -40 -52 -145.333 -94 -316c-46 -186.667 -143 -299.334 -291 -338.001c-51.333 -13.333 -111 -20 -179 -20c-80 0 -120 19.333 -120 58c0 17.333 5.66699 30.666 17 39.999c8.66699 7.33301 31 14.333 67 21c42.667 8.66699 75.667 18.334 99 29.001
c39.333 18 71 45 95 81c26.667 40.667 49 94 67 160l40 170c48 188.667 154 291 318 307z" />
    <glyph glyph-name="asciitilde" unicode="~" horiz-adv-x="1365" 
d="M336 1134l-145.998 121c76 184 176.333 276 301 276c48.667 0 118.167 -20.5 208.5 -61.5s152.5 -61.5 186.5 -61.5c51.333 0 100.666 43 147.999 129l145 -121c-80 -186 -181 -279 -303 -279c-41.333 0 -107.833 20.833 -199.5 62.5s-156.5 62.5 -194.5 62.5
c-50.667 0 -99.334 -42.667 -146.001 -128z" />
    <glyph glyph-name="nonbreakingspace" unicode="&#xa0;" horiz-adv-x="410" 
 />
    <glyph glyph-name="exclamdown" unicode="&#xa1;" horiz-adv-x="678" 
d="M559 884c0 -60.667 -32.001 -189.337 -96.001 -386.004c-60 -184.667 -90 -287.667 -90 -309c0 -26.667 12.833 -48 38.5 -64s38.5 -31.667 38.5 -47c0 -21.333 -11.333 -35 -34 -41c-5.33301 -1.33301 -39.333 -2 -102 -2c-20 0 -50 -3 -90 -9
c-7.33301 -1.33301 -34.666 -6.66602 -81.999 -15.999c-38.667 -8 -63 -12 -73 -12c-46.667 0 -70 34 -70 102c0 46.667 20 119.334 60 218.001l92 213c21.333 54 55 134.333 101 241c6.66699 14.667 10 25.334 10 32.001c0 6 -5.5 15.5 -16.5 28.5s-16.5 24.833 -16.5 35.5
c0 19.333 7 33.333 21 42s46 16.334 96 23.001c30 4 58 10.667 84 20c32 11.333 54.333 17 67 17c41.333 0 62 -28.667 62 -86zM502.999 1374c37.333 0 69.333 -12.833 96 -38.5s40 -57.167 40 -94.5c0 -56 -30 -103 -90 -141c-52.667 -33.333 -109 -50 -169 -50
c-36.667 0 -67.667 12.667 -93 38s-38 56.333 -38 93c0 52 30 98.333 90 139c54 36 108.667 54 164 54z" />
    <glyph glyph-name="cent" unicode="&#xa2;" 
d="M929 1168c88.667 -28 133.001 -83.998 133.001 -167.998c0 -36.667 -11.667 -68.334 -35 -95.001s-53 -40 -89 -40c-29.333 0 -53.333 9 -72 27s-28 41.667 -28 71c0 18.667 5.5 38 16.5 58s16.5 31 16.5 33c0 9.33301 -7.66699 14 -23 14
c-78.667 0 -162.667 -88.667 -252 -266c-81.333 -160.667 -122 -286 -122 -376c0 -60 22.667 -90 68 -90c42 0 97.167 28 165.5 84s109.833 84 124.5 84c27.333 0 41 -14.333 41 -43c0 -31.333 -34.333 -75.666 -103 -132.999
c-87.333 -73.333 -175.333 -123.666 -264 -150.999c-34 -130 -78.667 -195 -134 -195c-51.333 0 -77 19.667 -77 59c0 23.333 20.333 68.666 61 135.999c-139.333 27.333 -209 113.333 -209 258c0 104 42 219.667 126 347c136.667 207.333 305.667 336 507 386
c48 137.333 93.333 206 136 206c17.333 0 35.666 -6.33301 54.999 -19s29 -27.334 29 -44.001c0 -11.333 -10 -34.333 -30 -69c-24 -40.667 -37.667 -65.334 -41 -74.001z" />
    <glyph glyph-name="sterling" unicode="&#xa3;" horiz-adv-x="1160" 
d="M741 786c7.33301 -1.33301 13.6719 -1.99902 19.0049 -1.99902c10.667 0 27 2.16699 49 6.5s38.333 6.5 49 6.5c32 0 48 -16.667 48 -50c0 -28 -9.66699 -51.333 -29 -70s-43 -28 -71 -28c-17.333 0 -53 4.33301 -107 13c-46 -126 -93.667 -222.667 -143 -290
c-56 -76.667 -136 -147.667 -240 -213c45.333 -3.33301 125.666 -16.333 240.999 -39c14 -2.66699 27.333 -4 40 -4c28 0 42 9.33301 42 28c0 5.33301 -4.5 19.666 -13.5 42.999s-13.5 42 -13.5 56c0 38 16.333 70 49 96c30 24 64.667 36 104 36
c48.667 0 90 -17.833 124 -53.5s51 -78.167 51 -127.5c0 -78.667 -31 -142.334 -93 -191.001c-57.333 -44.667 -126.333 -67 -207 -67c-74.667 0 -175.667 18.333 -303 55c-115.333 33.333 -190.333 50 -225 50c-20 0 -46.833 -6.33301 -80.5 -19s-56.834 -19 -69.501 -19
c-26 0 -39 12.667 -39 38c0 42 11 71 33 87c5.33301 3.33301 18.666 7.33301 39.999 12c91.333 20 158.666 66.333 201.999 139c34 57.333 80.333 185 139 383c-27.333 -2 -43.333 -3 -48 -3c-32.667 0 -49 14.667 -49 44c0 64 46.333 96 139 96
c32 133.333 68.333 237.333 109 312c58.667 106.667 136 181 232 223c67.333 29.333 136.666 44 207.999 44c74.667 0 135.334 -17.667 182.001 -53c52.667 -40 79 -96 79 -168c0 -46 -12.333 -84.667 -37 -116c-26.667 -33.333 -62.667 -50 -108 -50
c-34 0 -62.833 10.833 -86.5 32.5s-35.5 49.167 -35.5 82.5c0 24.667 10.5 50.834 31.5 78.501s31.5 44.5 31.5 50.5c0 18.667 -16 28 -48 28c-42.667 0 -75 -18.333 -97 -55c-12 -19.333 -30.333 -86 -55 -200c-20.667 -93.333 -35.334 -167.333 -44.001 -222z" />
    <glyph glyph-name="currency" unicode="&#xa4;" 
d="M851 1095c76 64.667 115.665 96.999 118.998 96.999c13.333 0 32.166 -14 56.499 -42s36.5 -48.667 36.5 -62c0 -14.667 -15 -36 -45 -64l-65 -56c18.667 -60.667 28 -116.667 28 -168c0 -80 -22.333 -159.333 -67 -238c60 -60 90 -96.667 90 -110
c0 -10 -14.833 -29.5 -44.5 -58.5s-49.167 -43.5 -58.5 -43.5c-12.667 0 -29.667 11.667 -51 35l-45 51c-74 -61.333 -157.667 -92 -251 -92c-85.333 0 -156.666 25.333 -213.999 76c-56 -49.333 -91 -74 -105 -74c-11.333 0 -29.5 14 -54.5 42s-37.5 48 -37.5 60
c0 11.333 35.667 49 107 113c-14.667 42.667 -22 82.334 -22 119.001c0 84 30.333 178.667 91 284c-72.667 77.333 -109 121 -109 131s16.167 29.667 48.5 59s52.5 44 60.5 44c12 0 52 -39.333 120 -118c82.667 49.333 159.334 74 230.001 74
c54.667 0 115.334 -19.667 182.001 -59zM641.998 961.999c-66 0 -122.333 -28.002 -169 -84.002c-44 -53.333 -66 -113.666 -66 -180.999c0 -46.667 14.167 -86 42.5 -118s65.5 -48 111.5 -48c65.333 0 121.333 29 168 87c44 54 66 114.667 66 182
c0 46.667 -14 85.334 -42 116.001s-65 46 -111 46z" />
    <glyph glyph-name="yen" unicode="&#xa5;" 
d="M767 1008c173.333 128 259.999 209.002 259.999 243.002c0 6 -10.167 14.667 -30.5 26s-30.5 26.333 -30.5 45c0 21.333 13.333 36.666 40 45.999c5.33301 2 35.666 4.33301 90.999 7c18.667 0.666992 47.334 6 86.001 16c36.667 8.66699 63 13 79 13
c32.667 0 49 -16.333 49 -49c0 -66 -69.333 -152.333 -208 -259c-94 -72 -192.667 -136 -296 -192l-26 -91c15.333 -1.33301 26.333 -2 33 -2c10 0 25 1.5 45 4.5s35 4.5 45 4.5c28.667 0 43 -16 43 -48c0 -67.333 -33 -101 -99 -101c-30.667 0 -69.334 5 -116.001 15
l-49 -133c12.667 -2 24 -3 34 -3c12.667 0 31.5 1.33301 56.5 4s43.833 4 56.5 4c32 0 48 -14.333 48 -43c0 -68 -34 -102 -102 -102c-49.333 0 -95.666 7.33301 -138.999 22c-41.333 -130.667 -62 -206 -62 -226c0 -30.667 18.5 -50.5 55.5 -59.5s55.5 -23.833 55.5 -44.5
c0 -19.333 -11.667 -33 -35 -41c-10 -3.33301 -40.667 -5.33301 -92 -6c-79.333 -0.666992 -145.333 -9.66699 -198 -27c-30.667 -10 -53 -15 -67 -15c-38 0 -57 31.667 -57 95c0 45.333 21.333 142.666 64 291.999c-46.667 -4 -74 -6 -82 -6c-54.667 0 -82 18.333 -82 55
c0 62.667 73.333 96.334 220 101.001c11.333 20.667 24.333 56.667 39 108c-51.333 -4.66699 -83 -7 -95 -7c-54.667 0 -82 18 -82 54c0 48.667 29 80.334 87 95.001c24.667 6 73.334 9.33301 146.001 10c-6.66699 57.333 -19.334 126.333 -38.001 207
c-23.333 101.333 -45.333 164.666 -66 189.999c-10 12 -38.667 28.333 -86 49c-37.333 17.333 -56 36.666 -56 57.999c0 28 17.333 44 52 48c-9.33301 -1.33301 18.334 -2 83.001 -2c56 0 130 10.667 222 32c17.333 4 32.333 6 45 6c20.667 0 37.667 -8 51 -24
c20.667 -26 43 -85 67 -177c20 -74.667 33.667 -138.667 41 -192z" />
    <glyph glyph-name="brokenbar" unicode="&#xa6;" horiz-adv-x="1024" 
d="M362 1365h299v-718h-299v718zM362 314h299v-655h-299v655z" />
    <glyph glyph-name="section" unicode="&#xa7;" horiz-adv-x="1160" 
d="M797 204c11.333 -46 17 -86.665 17 -121.998c0 -131.333 -59 -240 -177 -326c-107.333 -78.667 -229 -118 -365 -118c-86.667 0 -161.667 16.667 -225 50c-79.333 41.333 -119 101.666 -119 180.999c0 50 15 93.833 45 131.5s69.667 56.5 119 56.5
c32.667 0 61.5 -10.333 86.5 -31s37.5 -47 37.5 -79c0 -30 -13.667 -57 -41 -81s-41 -41 -41 -51c0 -40 38.333 -60 115 -60c58.667 0 111.667 17 159 51c52 38 78 85.333 78 142c0 50.667 -32.667 103.667 -98 159l-182 151c-65.333 66.667 -98 139.334 -98 218.001
c0 101.333 32.667 183.333 98 246c26 24.667 64.333 50 115 76c-23.333 46.667 -35 92.334 -35 137.001c0 115.333 46.667 215.333 140 300c106.667 96.667 245 145 415 145c86 0 159.667 -16.333 221 -49c77.333 -40.667 116 -100.334 116 -179.001
c0 -50.667 -15 -94.667 -45 -132c-32 -39.333 -72.667 -59 -122 -59c-34.667 0 -63.667 9.33301 -87 28c-25.333 20.667 -38 48 -38 82s13.833 62.167 41.5 84.5s41.5 39.833 41.5 52.5c0 36.667 -38 55 -114 55c-59.333 0 -112 -18 -158 -54
c-49.333 -38.667 -74 -87 -74 -145c0 -36.667 12.333 -70.334 37 -101.001c5.33301 -7.33301 59.333 -49.333 162 -126c112 -84 168 -186.333 168 -307c0 -124.667 -64.333 -233.334 -193 -326.001zM435 685.002c-33.333 -32 -50.001 -61.999 -50.001 -89.999
c0 -40 23 -77.667 69 -113c10.667 -7.33301 51 -31 121 -71c38.667 -22 79.667 -49 123 -81c22.667 22 34 50.333 34 85c0 54.667 -27.333 103 -82 145c-18.667 14.667 -69 44 -151 88c-17.333 9.33301 -38.666 21.666 -63.999 36.999z" />
    <glyph glyph-name="dieresis" unicode="&#xa8;" horiz-adv-x="1024" 
d="M782 1493c23.333 0 42.167 -8.5 56.5 -25.5s21.5 -37.5 21.5 -61.5c0 -45.333 -14.667 -88 -44 -128c-32 -44 -70 -66 -114 -66c-48 0 -72 31.333 -72 94c0 45.333 13.667 87 41 125c30.667 41.333 67.667 62 111 62zM540.001 1497c50.667 0 76 -31 76 -93
c0 -45.333 -14.667 -88.333 -44 -129c-32.667 -44 -71 -66 -115 -66c-22.667 0 -41 10 -55 30c-12.667 17.333 -19 38 -19 62c0 45.333 14.667 88.333 44 129c31.333 44.667 69 67 113 67z" />
    <glyph glyph-name="copyright" unicode="&#xa9;" horiz-adv-x="1496" 
d="M861 1417c154 0 284.667 -54.666 392 -163.999c103.333 -105.333 155 -248.333 155 -429c0 -217.333 -77 -408 -231 -572c-144 -153.333 -312.333 -230 -505 -230c-192 0 -338.667 70.333 -440 211c-82 114 -123 242.333 -123 385c0 71.333 13.667 148.333 41 231
c52.667 161.333 141.334 294.666 266.001 399.999c133.333 112 281.666 168 444.999 168zM860 1313c-104.667 0 -206.332 -33.833 -304.999 -101.5s-177 -158.5 -235 -272.5s-87 -231.333 -87 -352c0 -136 39.5 -246.333 118.5 -331s186.167 -127 321.5 -127
c153.333 0 292.333 65.333 417 196c138 144.667 207 321.667 207 531c0 133.333 -39 242.333 -117 327c-80.667 86.667 -187.334 130 -320.001 130zM928.002 1050c-56.667 0 -114.668 -48.002 -174.001 -144.002c-82 -132.667 -123 -253 -123 -361
c0 -70.667 23.333 -106 70 -106c76.667 0 151.667 64.333 225 193c8.66699 14.667 17.667 22 27 22c20.667 0 31 -10 31 -30c0 -25.333 -19.667 -64.333 -59 -117c-91.333 -122.667 -195.666 -184 -312.999 -184c-60.667 0 -107.834 18.667 -141.501 56s-50.5 87 -50.5 149
c0 127.333 52.667 256 158 386c110 136.667 226.333 205 349 205c48 0 87.333 -11 118 -33c35.333 -25.333 53 -61 53 -107c0 -28 -9.16699 -53 -27.5 -75s-41.166 -33 -68.499 -33c-49.333 0 -74 23 -74 69c0 14.667 7.16699 30.334 21.5 47.001s21.5 27.334 21.5 32.001
c0 20.667 -14.333 31 -43 31z" />
    <glyph glyph-name="ordfeminine" unicode="&#xaa;" 
d="M689 986c-70.667 -102.667 -142.667 -153.995 -216 -153.995c-38 0 -69.333 13 -94 39s-37 58 -37 96c0 122 66 237.667 198 347c75.333 62.667 140.333 94 195 94c52.667 0 79 -22 79 -66c0 -38 -16.667 -57 -50 -57c-24.667 0 -37 10 -37 30c0 4 2 9.5 6 16.5
s6 12.167 6 15.5c0 4 -2.33301 6 -7 6c-14 0 -32 -11.333 -54 -34c-34.667 -35.333 -69.667 -87.333 -105 -156c-37.333 -74.667 -56 -133.334 -56 -176.001c0 -25.333 11.667 -38 35 -38c43.333 0 99.333 52.667 168 158c65.333 102 97.333 177 96 225l-1 36
c0 7.33301 3 12.666 9 15.999c3.33301 2 21.333 4.33301 54 7c9.33301 0.666992 25.333 4 48 10c20.667 5.33301 35.667 8 45 8c14.667 0 22 -9 22 -27c0 -46 -22.5 -122.333 -67.5 -229s-67.5 -174.334 -67.5 -203.001c0 -20 10.667 -32.833 32 -38.5
s32 -11.834 32 -18.501c0 -8 -7 -12.667 -21 -14c-45.333 -4.66699 -76.666 -8.33398 -93.999 -11.001c-34.667 -6 -65 -15.333 -91 -28c-12.667 -6 -21.334 -9 -26.001 -9c-13.333 0 -20 12.333 -20 37c0 30 6.33301 69.333 19 118z" />
    <glyph glyph-name="guillemotleft" unicode="&#xab;" horiz-adv-x="814" 
d="M168 449c12 -70.667 18 -135.334 18 -194.001c0 -65.333 -26 -98 -78 -98c-40 0 -64.167 5 -72.5 15s-14.166 44.333 -17.499 103c-2.66699 46.667 -9.33398 85.334 -20.001 116.001c-8 23.333 -12 38.333 -12 45c0 19.333 25.333 56.333 76 111
c34.667 42 87 96.667 157 164c22 16 46.667 24 74 24c44.667 0 67 -11.667 67 -35c0 -28 -64 -111.667 -192 -251zM499 449c12 -71.333 17.998 -136.334 17.998 -195.001c0 -64.667 -26.333 -97 -79 -97c-39.333 0 -63.166 5 -71.499 15s-14.166 44.333 -17.499 103
c-2.66699 46.667 -9.33398 85.334 -20.001 116.001c-8 23.333 -12 38.333 -12 45c0 17.333 34 64.333 102 141c62.667 71.333 106.334 116 131.001 134c22 16 46.667 24 74 24c44.667 0 67 -11.667 67 -35c0 -28 -64 -111.667 -192 -251z" />
    <glyph glyph-name="logicalnot" unicode="&#xac;" horiz-adv-x="1024" 
d="M665 0v332h-597v261h887v-593h-290z" />
    <glyph glyph-name="sfthyphen" unicode="&#xad;" horiz-adv-x="765" 
d="M545 574c64.667 0 97.002 -14.999 97.002 -44.999c0 -12.667 -5.33301 -32.334 -16 -59.001c-14 -35.333 -30.333 -56.333 -49 -63c-8.66699 -2.66699 -37.334 -4 -86.001 -4h-359c-42.667 0 -67.334 0.666992 -74.001 2c-29.333 5.33301 -44 20.333 -44 45
c0 20.667 6.33301 44.334 19 71.001c14 31.333 29.667 48.666 47 51.999c6 0.666992 22 1 48 1h417z" />
    <glyph glyph-name="registered" unicode="&#xae;" horiz-adv-x="1496" 
d="M861 1417c154 0 284.667 -54.666 392 -163.999c103.333 -105.333 155 -248.333 155 -429c0 -217.333 -77 -408 -231 -572c-144 -153.333 -312.333 -230 -505 -230c-192 0 -338.667 70.333 -440 211c-82 114 -123 242.333 -123 385c0 71.333 13.667 148.333 41 231
c52.667 161.333 141.334 294.666 266.001 399.999c133.333 112 281.666 168 444.999 168zM860 1313c-104.667 0 -206.332 -33.833 -304.999 -101.5s-177 -158.5 -235 -272.5s-87 -231.333 -87 -352c0 -136 39.5 -246.333 118.5 -331s186.167 -127 321.5 -127
c153.333 0 292.333 65.333 417 196c138 144.667 207 321.667 207 531c0 133.333 -39 242.333 -117 327c-80.667 86.667 -187.334 130 -320.001 130zM744.002 669.001c35.333 -103.333 81.667 -155.002 139 -155.002c8.66699 0 19.5 4.33301 32.5 13s22.5 13 28.5 13
c16.667 0 31.667 -12.333 45 -37c12 -22 18 -42.333 18 -61c0 -31.333 -11.333 -58.5 -34 -81.5s-49.667 -34.5 -81 -34.5c-53.333 0 -100.333 41 -141 123c-14.667 29.333 -38 94.333 -70 195c-38 -92.667 -57 -155.667 -57 -189c0 -14 8.16699 -25.167 24.5 -33.5
s24.5 -16.833 24.5 -25.5c0 -19.333 -16.667 -29.666 -50 -30.999c-56 -2.66699 -104.667 -12 -146 -28c-17.333 -6.66699 -29 -10 -35 -10c-23.333 0 -35 18.333 -35 55c0 72.667 42.333 216.334 127 431.001c43.333 110 65 174.333 65 193
c0 10.667 -8.66699 19.5 -26 26.5s-26 17.167 -26 30.5c0 10.667 4.16699 19 12.5 25s59.5 13.333 153.5 22c84.667 8 143 12 175 12c148.667 0 223 -53 223 -159c0 -106.667 -52 -188.667 -156 -246c-58 -32 -128.333 -48 -211 -48zM807.003 1038
c-3.33301 -36.667 -33.333 -134 -90 -292c10.667 -1.33301 20.334 -2 29.001 -2c43.333 0 80.666 31.333 111.999 94c26.667 52.667 40 103.667 40 153c0 36 -17.333 54 -52 54c-11.333 0 -24.333 -2.33301 -39 -7z" />
    <glyph glyph-name="overscore" unicode="&#xaf;" horiz-adv-x="1024" 
d="M0 1630h1024v-176h-1024v176z" />
    <glyph glyph-name="degree" unicode="&#xb0;" horiz-adv-x="729" 
d="M503 1373c68.667 0 123.999 -23.999 165.999 -71.999c40 -46 60 -103.667 60 -173c0 -86.667 -29 -163.667 -87 -231c-61.333 -69.333 -134.666 -104 -219.999 -104c-70.667 0 -127 23.333 -169 70s-63 105.667 -63 177c0 83.333 31.5 159.666 94.5 228.999
s135.833 104 218.5 104zM490.999 1252c-52 0 -96.999 -22.333 -134.999 -67c-35.333 -42 -53 -89.667 -53 -143c0 -38 11.667 -69.667 35 -95s53.666 -38 90.999 -38c52 0 96.333 22.667 133 68c35.333 43.333 53 91.333 53 144c0 37.333 -11.5 68.5 -34.5 93.5
s-52.833 37.5 -89.5 37.5z" />
    <glyph glyph-name="plusminus" unicode="&#xb1;" 
d="M543 819l90.9971 302.001c12 39.333 22 61.333 30 66c6 4 32.333 6 79 6c49.333 0 74 -4.33301 74 -13c0 -2.66699 -10 -37.334 -30 -104.001l-77 -257l332 1c39.333 0 59 -10 59 -30c0 -9.33301 -3.33301 -28.333 -10 -57c-5.33301 -24 -9.66602 -39.667 -12.999 -47
c-7.33301 -20.667 -16.166 -32.167 -26.499 -34.5s-45.166 -3.5 -104.499 -3.5h-289l-97 -320c-17.333 -58 -28 -88.667 -32 -92c-8.66699 -8 -42 -12 -100 -12c-36.667 0 -55 6.33301 -55 19c0 7.33301 11.667 50.333 35 129l82 276l-347 1c-32.667 0 -49 10.667 -49 32
c0 24.667 11 61.334 33 110.001c6 13.333 14 21.666 24 24.999c8 2 37 3 87 3h304zM-122.003 -42.999c0 25.333 10.998 62.002 32.998 110.002c6 13.333 13.333 21.333 22 24s38 4 88 4l804 1c39.333 0 59 -10.333 59 -31c0 -8.66699 -3.33301 -27.334 -10 -56.001
c-5.33301 -24 -9.66602 -39.667 -12.999 -47c-7.33301 -20.667 -17 -32.334 -29 -35.001c-8.66699 -2 -43 -3 -103 -3h-711h-46c-21.333 0.666992 -36.666 1 -45.999 1c-32 0 -48 10.667 -48 32z" />
    <glyph glyph-name="twosuperior" unicode="&#xb2;" horiz-adv-x="666" 
d="M597 840c20.667 0 31 -10 31 -30c0 -9.33301 -10.667 -41.333 -32 -96c-24 -64 -37.667 -101.333 -41 -112c-2 -8 -7 -18.667 -15 -32c-6 -5.33301 -15.667 -8 -29 -8c-8.66699 0 -20 1 -34 3c-64 9.33301 -131 14 -201 14c-64 0 -115 -3.33301 -153 -10
c-30.667 -5.33301 -53.667 -8 -69 -8c-28.667 0 -43 15.333 -43 46c0 54 33 124 99 210c46 60 133 137.667 261 233c102 76 153 139.667 153 191c0 53.333 -30.667 80 -92 80c-25.333 0 -50 -5.66699 -74 -17c-29.333 -14.667 -44 -33 -44 -55
c0 -5.33301 0.666992 -13.333 2 -24s2 -18.667 2 -24c0 -50 -24.333 -75 -73 -75s-73 24.667 -73 74c0 48 27 91.833 81 131.5s122 59.5 204 59.5c174.667 0 262 -64 262 -192c0 -58.667 -24.667 -116.667 -74 -174c-31.333 -36 -84.666 -83 -159.999 -141
c-78 -59.333 -129.333 -102.666 -154 -129.999c-33.333 -36.667 -50 -63.334 -50 -80.001c0 -18 15.333 -27 46 -27c69.333 0 147.666 56.667 234.999 170c12 15.333 23.667 23 35 23z" />
    <glyph glyph-name="threesuperior" unicode="&#xb3;" horiz-adv-x="666" 
d="M587 1046c68 -18 101.999 -60.6709 101.999 -128.004c0 -98 -51.333 -183.333 -154 -256c-93.333 -66.667 -191.666 -100 -294.999 -100c-56 0 -102.667 13.667 -140 41c-42.667 30.667 -64 73 -64 127c0 32.667 9.83301 61.334 29.5 86.001s45.5 37 77.5 37
c20 0 37 -6.66699 51 -20s21 -30 21 -50c0 -25.333 -13.5 -45 -40.5 -59s-40.5 -26.333 -40.5 -37c0 -17.333 11 -31.333 33 -42c18 -9.33301 36.667 -14 56 -14c59.333 0 115 33 167 99c50 62.667 75 124.334 75 185.001c0 37.333 -18.667 56 -56 56
c-16 0 -38.167 -6.5 -66.5 -19.5s-45.5 -19.5 -51.5 -19.5c-12.667 0 -19 8.66699 -19 26c0 20.667 4.66699 36.334 14 47.001c4 4 32.333 14 85 30s95 45 127 87c38 50 57 97 57 141c0 38 -23.667 57 -71 57c-24.667 0 -50.667 -6 -78 -18c-32.667 -14 -49 -31.667 -49 -53
c0 -6.66699 1.83301 -16.667 5.5 -30s5.5 -23.333 5.5 -30c0 -22.667 -7.66699 -41.667 -23 -57s-34.333 -23 -57 -23c-48 0 -72 24.333 -72 73c0 36 17.667 72.667 53 110c62.667 66 147.667 99 255 99c55.333 0 104 -10 146 -30c54 -26 81 -63.667 81 -113
c0 -71.333 -54.667 -138.666 -164 -201.999z" />
    <glyph glyph-name="acute" unicode="&#xb4;" horiz-adv-x="1024" 
d="M668 1495c20.667 0 42.5 -11.667 65.5 -35s34.5 -45.333 34.5 -66c0 -12.667 -5.83301 -26.167 -17.5 -40.5s-38.667 -39.5 -81 -75.5s-71.833 -59.333 -88.5 -70c-10.667 -6.66699 -21.334 -10 -32.001 -10c-17.333 0 -34.666 8.5 -51.999 25.5s-26 34.167 -26 51.5
c0 13.333 4 26 12 38c43.333 66 92.333 121.333 147 166c13.333 10.667 26 16 38 16z" />
    <glyph glyph-name="mu" unicode="&#xb5;" horiz-adv-x="1071" 
d="M182 -3c-44.667 -102 -66.998 -215.332 -66.998 -339.999c0 -9.33301 0.5 -23.5 1.5 -42.5s1.5 -33.167 1.5 -42.5c0 -35.333 -26.333 -53 -79 -53c-54 0 -106.333 11.667 -157 35c-63.333 28.667 -95 66.667 -95 114c0 48 33 171.667 99 371
c60.667 183.333 155 423.333 283 720c11.333 26 17 46 17 60c0 30.667 -19 50 -57 58s-57 22 -57 42c0 29.333 29 44 87 44c78 0 168 10.333 270 31c16.667 3.33301 29.667 5 39 5c33.333 0 50 -26.667 50 -80c0 -88 -68 -278.667 -204 -572
c-27.333 -58.667 -41 -98 -41 -118c0 -24 10 -36 30 -36c25.333 0 60.666 21.333 105.999 64c103.333 98 187.666 234 252.999 408c32.667 86 49.667 157.333 51 214c0.666992 16.667 1.66699 29 3 37c2.66699 15.333 8.16699 26.833 16.5 34.5s39.5 14.167 93.5 19.5
c31.333 3.33301 75.666 11.333 132.999 24c9.33301 2 18 3 26 3c39.333 0 59 -27.333 59 -82c0 -67.333 -45 -206 -135 -416c-62.667 -146.667 -94 -242.334 -94 -287.001c0 -30 17.333 -50.333 52 -61s52 -26.667 52 -48c0 -17.333 -5.66699 -29.333 -17 -36
c-8.66699 -5.33301 -32.667 -9.33301 -72 -12c-96 -6.66699 -183.333 -25 -262 -55c-19.333 -7.33301 -35.666 -11 -48.999 -11c-34.667 0 -52 26 -52 78c0 23.333 2.66699 57 8 101c-99.333 -106 -197 -163 -293 -171z" />
    <glyph glyph-name="mu" unicode="&#x3bc;" horiz-adv-x="1071" 
d="M182 -3c-44.667 -102 -66.998 -215.332 -66.998 -339.999c0 -9.33301 0.5 -23.5 1.5 -42.5s1.5 -33.167 1.5 -42.5c0 -35.333 -26.333 -53 -79 -53c-54 0 -106.333 11.667 -157 35c-63.333 28.667 -95 66.667 -95 114c0 48 33 171.667 99 371
c60.667 183.333 155 423.333 283 720c11.333 26 17 46 17 60c0 30.667 -19 50 -57 58s-57 22 -57 42c0 29.333 29 44 87 44c78 0 168 10.333 270 31c16.667 3.33301 29.667 5 39 5c33.333 0 50 -26.667 50 -80c0 -88 -68 -278.667 -204 -572
c-27.333 -58.667 -41 -98 -41 -118c0 -24 10 -36 30 -36c25.333 0 60.666 21.333 105.999 64c103.333 98 187.666 234 252.999 408c32.667 86 49.667 157.333 51 214c0.666992 16.667 1.66699 29 3 37c2.66699 15.333 8.16699 26.833 16.5 34.5s39.5 14.167 93.5 19.5
c31.333 3.33301 75.666 11.333 132.999 24c9.33301 2 18 3 26 3c39.333 0 59 -27.333 59 -82c0 -67.333 -45 -206 -135 -416c-62.667 -146.667 -94 -242.334 -94 -287.001c0 -30 17.333 -50.333 52 -61s52 -26.667 52 -48c0 -17.333 -5.66699 -29.333 -17 -36
c-8.66699 -5.33301 -32.667 -9.33301 -72 -12c-96 -6.66699 -183.333 -25 -262 -55c-19.333 -7.33301 -35.666 -11 -48.999 -11c-34.667 0 -52 26 -52 78c0 23.333 2.66699 57 8 101c-99.333 -106 -197 -163 -293 -171z" />
    <glyph glyph-name="paragraph" unicode="&#xb6;" horiz-adv-x="1280" 
d="M579 567c-44.667 -8 -86.667 -12.001 -126 -12.001c-105.333 0 -190 23.333 -254 70c-72 52.667 -108 130 -108 232c0 119.333 42.667 228.333 128 327c113.333 130.667 295.333 196 546 196c71.333 0 177 -5 317 -15c68.667 -3.33301 159.334 -12.333 272.001 -27
c32.667 -8 49 -23.667 49 -47c0 -26 -20.333 -46.333 -61 -61c-53.333 -19.333 -82.333 -31.333 -87 -36c-10 -9.33301 -20.333 -27.666 -31 -54.999c-12.667 -32 -51 -185.333 -115 -460c-66.667 -286 -125.334 -500.333 -176.001 -643
c-76.667 -217.333 -150.667 -326 -222 -326c-8.66699 0 -25 4.66699 -49 14c-51.333 20 -93.333 32.333 -126 37c-24.667 3.33301 -93 7 -205 11c-70 2 -105 14.667 -105 38c0 18 20 36.667 60 56c48.667 24 78.667 42.667 90 56c44 54 111.667 269 203 645zM1053 1249
c-72 0 -122.001 -18.334 -150.001 -55.001c-20 -25.333 -37 -66 -51 -122c-21.333 -80.667 -54.666 -232 -99.999 -454c-38.667 -191.333 -75 -341.666 -109 -450.999c-16 -51.333 -28.667 -89.333 -38 -114c-16 -42.667 -33.667 -78.334 -53 -107.001
c-10.667 -16 -16 -25.667 -16 -29c0 -12 18 -22.667 54 -32c28.667 -6.66699 52.334 -10 71.001 -10c30 0 55.667 22.333 77 67c33.333 70.667 66.666 168.334 99.999 293.001l75 302c28.667 116 74.667 288.667 138 518c20 66.667 42.667 119.667 68 159c4 6 6 10.667 6 14
c0 14 -24 21 -72 21z" />
    <glyph glyph-name="middot" unicode="&#xb7;" horiz-adv-x="547" 
d="M290 718c34 0 62.5 -11.333 85.5 -34s34.5 -51 34.5 -85c0 -50.667 -30.667 -96 -92 -136c-55.333 -35.333 -110 -53 -164 -53c-35.333 0 -65.333 11.667 -90 35s-37 52.333 -37 87c0 55.333 31 101.333 93 138c54 32 110.667 48 170 48z" />
    <glyph glyph-name="cedilla" unicode="&#xb8;" horiz-adv-x="1024" 
d="M516 0c-30 -40.667 -44.999 -66 -44.999 -76s4.66699 -15 14 -15c3.33301 0 11.666 2.5 24.999 7.5s24.666 7.5 33.999 7.5c56 0 84 -32.667 84 -98c0 -81.333 -31.167 -154.833 -93.5 -220.5s-134.166 -98.5 -215.499 -98.5c-41.333 0 -75.333 16 -102 48
c-26 30 -39 66 -39 108c0 43.333 18.333 65 55 65c22.667 0 40.667 -18.333 54 -55s35.333 -55 66 -55c34.667 0 66.5 15.5 95.5 46.5s43.5 63.833 43.5 98.5c0 37.333 -16.333 56 -49 56c-8.66699 0 -21.167 -1.66699 -37.5 -5s-28.833 -5 -37.5 -5
c-24 0 -36 11.667 -36 35c0 25.333 24.333 77.333 73 156h111z" />
    <glyph glyph-name="onesuperior" unicode="&#xb9;" horiz-adv-x="666" 
d="M404 1244c-48 -18 -80.667 -27.002 -98 -27.002c-25.333 0 -38 11.667 -38 35c0 13.333 4 23 12 29c3.33301 2 31 9 83 21c38 8.66699 102 34.334 192 77.001c15.333 7.33301 28.333 11 39 11c24.667 0 37 -17.333 37 -52c0 -46.667 -21 -130 -63 -250l-92 -245
c-26.667 -72 -40 -121 -40 -147c0 -18 11.667 -30 35 -36s35 -16 35 -30c0 -10 -4.33301 -17.333 -13 -22c-6 -3.33301 -26.333 -5.66602 -61 -6.99902c-56.667 -2.66699 -107.334 -12.667 -152.001 -30c-15.333 -6 -27 -9 -35 -9c-22.667 0 -34 18.667 -34 56
c0 69.333 26.667 173.333 80 312c66.667 175.333 104.334 280 113.001 314z" />
    <glyph glyph-name="ordmasculine" unicode="&#xba;" 
d="M851 1419c118.667 0 177.999 -48.999 177.999 -146.999c0 -40.667 -13.667 -89.334 -41 -146.001c-41.333 -83.333 -97.666 -154.333 -168.999 -213c-81.333 -66.667 -163.666 -100 -246.999 -100c-52.667 0 -96.334 12.667 -131.001 38
c-38.667 28.667 -58 68.667 -58 120c0 105.333 61 213 183 323c92.667 83.333 187.667 125 285 125zM834.999 1332c-46 0 -99.334 -48.333 -160.001 -145c-56.667 -90.667 -85 -161.334 -85 -212.001c0 -36 17.333 -54 52 -54c52.667 0 108.334 48.333 167.001 145
c54 88.667 81 161.334 81 218.001c0 32 -18.333 48 -55 48z" />
    <glyph glyph-name="guillemotright" unicode="&#xbb;" horiz-adv-x="814" 
d="M482 446c-12.667 69.333 -19.001 134.333 -19.001 195c0 64.667 26 97 78 97c40.667 0 65 -5 73 -15s14 -44.333 18 -103c2.66699 -46.667 9.33398 -85.334 20.001 -116.001c8 -23.333 12 -38.666 12 -45.999c0 -18 -32.667 -63.667 -98 -137
c-54 -60.667 -97 -105 -129 -133c-21.333 -18.667 -48.333 -28 -81 -28c-44 0 -66 11.667 -66 35c0 28 64 111.667 192 251zM150.999 446c-12.667 70 -19.001 134.668 -19.001 194.001c0 65.333 26.333 98 79 98c40 0 64 -4.83301 72 -14.5s14 -44.167 18 -103.5
c2.66699 -46 9.33398 -84.667 20.001 -116c8 -24 12 -39 12 -45c0 -18.667 -32.667 -64.334 -98 -137.001c-54 -61.333 -97 -106 -129 -134c-21.333 -18.667 -48.333 -28 -81 -28c-44 0 -66 11.667 -66 35c0 29.333 64 113 192 251z" />
    <glyph glyph-name="onequarter" unicode="&#xbc;" horiz-adv-x="1679" 
d="M464 1244c-48 -18 -80.666 -27.0029 -97.999 -27.0029c-25.333 0 -38 11.667 -38 35c0 13.333 4 23 12 29c3.33301 2 31 9 83 21c37.333 8.66699 101.333 34.334 192 77.001c15.333 7.33301 28.333 11 39 11c24.667 0 37 -17.333 37 -52
c0 -47.333 -21 -130.666 -63 -249.999l-92 -245c-26.667 -72 -40 -121 -40 -147c0 -18 11.667 -30 35 -36s35 -16 35 -30c0 -10 -4.33301 -17.333 -13 -22c-6 -3.33301 -26.333 -5.66602 -61 -6.99902c-56.667 -2.66699 -107.334 -12.667 -152.001 -30
c-15.333 -6 -27 -9 -35 -9c-22.667 0 -34 18.667 -34 56c0 68.667 26.667 172.667 80 312c67.333 176 105 280.667 113 314zM380.001 -22.0029c-38.667 0 -58 18 -58 54c0 19.333 34.333 80.333 103 183l698 1046c18 29.333 45.667 69 83 119c10.667 11.333 23.667 17 39 17
c36 0 54 -21 54 -63c0 -17.333 -23 -60.333 -69 -129l-718 -1074c-58.667 -88 -95.667 -137.333 -111 -148c-5.33301 -3.33301 -12.333 -5 -21 -5zM1339 292.997c8 0 20.167 0.335938 36.5 1.00293s28.5 1 36.5 1c34.667 0 52 -17.333 52 -52c0 -25.333 -7 -38 -21 -38
c-4 0 -11.5 2.66699 -22.5 8s-19.167 8.66602 -24.5 9.99902c-7.33301 0.666992 -30.333 1 -69 1h-10c-16 -51.333 -24 -86.333 -24 -105c0 -18 8.5 -30.333 25.5 -37s25.5 -15.334 25.5 -26.001c0 -18.667 -15.667 -29 -47 -31c-49.333 -3.33301 -103 -15.333 -161 -36
c-12.667 -4.66699 -22.667 -7 -30 -7c-26 0 -39 21.333 -39 64c0 45.333 12 104.666 36 177.999c-15.333 0.666992 -29 1 -41 1c-64 0 -111.333 -2 -142 -6c-20.667 -2.66699 -35.667 -4 -45 -4c-30.667 0 -46 15.333 -46 46c0 91.333 86 205.333 258 342
c25.333 18.667 61 48.667 107 90c16.667 27.333 37 57 61 89c4.66699 2 18 3.66699 40 5c45.333 2 85 8.66699 119 20c12 4 21.333 6 28 6c23.333 0 35 -17.333 35 -52c0 -55.333 -18 -133.333 -54 -234zM1128 309l30 89.001l72 207c-36 -36 -74 -80.667 -114 -134
c-50.667 -68.667 -76 -117.334 -76 -146.001c0 -12 13 -18 39 -18c14 0 30.333 0.666992 49 2z" />
    <glyph glyph-name="onehalf" unicode="&#xbd;" horiz-adv-x="1679" 
d="M421 1244c-48 -18 -80.666 -27.0029 -97.999 -27.0029c-25.333 0 -38 11.667 -38 35c0 13.333 4 23 12 29c3.33301 2 31 9 83 21c37.333 8.66699 101.333 34.334 192 77.001c15.333 7.33301 28.333 11 39 11c24.667 0 37 -17.333 37 -52
c0 -47.333 -21 -130.666 -63 -249.999l-92 -245c-26.667 -72 -40 -121 -40 -147c0 -18 11.667 -30 35 -36s35 -16 35 -30c0 -10 -4.33301 -17.333 -13 -22c-6 -3.33301 -26.333 -5.66602 -61 -6.99902c-56.667 -2.66699 -107.334 -12.667 -152.001 -30
c-15.333 -6 -27 -9 -35 -9c-22.667 0 -34 18.667 -34 56c0 68.667 26.667 172.667 80 312c67.333 176 105 280.667 113 314zM337.001 -22.0029c-38.667 0 -58 18 -58 54c0 19.333 34.333 80.333 103 183l698 1046c18 29.333 45.667 69 83 119c10.667 11.333 23.667 17 39 17
c36 0 54 -21 54 -63c0 -17.333 -23 -60.333 -69 -129l-718 -1074c-58.667 -88 -95.667 -137.333 -111 -148c-5.33301 -3.33301 -12.333 -5 -21 -5zM1420 260.997c20.667 0 31 -10.001 31 -30.001c0 -10 -7.66699 -33.667 -23 -71c-12 -30 -28.667 -75.333 -50 -136
c-3.33301 -12 -6.33301 -20 -9 -24c-4.66699 -8 -11.334 -13 -20.001 -15c-4 -0.666992 -8.66699 -1 -14 -1c-9.33301 0 -21 1 -35 3c-61.333 8.66699 -128.333 13 -201 13c-66 0 -116.667 -3 -152 -9c-31.333 -5.33301 -54.666 -8 -69.999 -8c-28.667 0 -43 14.667 -43 44
c0 55.333 33 126 99 212c45.333 58.667 132.333 136.334 261 233.001c102 76.667 153 140 153 190c0 54 -30.667 81 -92 81c-26 0 -51 -5.66699 -75 -17c-28.667 -14.667 -43 -33.667 -43 -57c0 -5.33301 0.833008 -13 2.5 -23s2.5 -17.667 2.5 -23
c0 -50 -24.333 -75 -73 -75s-73 24.667 -73 74c0 48 27 91.833 81 131.5s121.667 59.5 203 59.5c174.667 0 262 -64 262 -192c0 -87.333 -58 -176 -174 -266c-50.667 -37.333 -122 -97.333 -214 -180c-33.333 -36 -50 -62.333 -50 -79c0 -18 15.333 -27 46 -27
c70 0 148.333 56.333 235 169c12 15.333 23.667 23 35 23z" />
    <glyph glyph-name="threequarters" unicode="&#xbe;" horiz-adv-x="1679" 
d="M607 1046c68 -18 101.998 -60.6699 101.998 -128.003c0 -99.333 -51.333 -185 -154 -257c-93.333 -66 -191.666 -99 -294.999 -99c-56 0 -102.667 13.667 -140 41c-42.667 30.667 -64 73 -64 127c0 32.667 9.83301 61.334 29.5 86.001s45.5 37 77.5 37
c20 0 37 -6.66699 51 -20s21 -30 21 -50c0 -25.333 -13.5 -45 -40.5 -59s-40.5 -26.333 -40.5 -37c0 -16.667 11 -30.667 33 -42c18.667 -9.33301 37.334 -14 56.001 -14c59.333 0 115.333 33 168 99c49.333 62.667 74 124.334 74 185.001c0 37.333 -18.667 56 -56 56
c-16 0 -38.167 -6.5 -66.5 -19.5s-45.5 -19.5 -51.5 -19.5c-12.667 0 -19 8.66699 -19 26c0 20.667 4.66699 36.334 14 47.001c4 4 32.333 14 85 30s95 45 127 87c38 50 57 97 57 141c0 38 -23.667 57 -71 57c-24.667 0 -50.667 -6 -78 -18c-32.667 -14 -49 -31.667 -49 -53
c0 -6.66699 1.83301 -16.667 5.5 -30s5.5 -23.333 5.5 -30c0 -22.667 -7.66699 -41.667 -23 -57s-34.333 -23 -57 -23c-48 0 -72 24.333 -72 73c0 36 17.667 72.667 53 110c62.667 66 147.667 99 255 99c55.333 0 104 -10 146 -30c54 -26 81 -63.667 81 -113
c0 -70 -54.667 -137.333 -164 -202zM440.998 -22.0029c-38.667 0 -57.999 17.998 -57.999 53.998c0 19.333 34.333 80.333 103 183l699 1046c17.333 28.667 44.666 68.334 81.999 119.001c10.667 11.333 23.667 17 39 17c36 0 54 -21 54 -63c0 -17.333 -23 -60.333 -69 -129
l-717 -1074c-58 -87.333 -95.333 -136.666 -112 -147.999c-5.33301 -3.33301 -12.333 -5 -21 -5zM1415 292.995c8 0 20.168 0.333984 36.501 1.00098s28.5 1 36.5 1c34.667 0 52 -17.333 52 -52c0 -25.333 -7 -38 -21 -38c-4 0 -11.5 2.66699 -22.5 8
s-19.167 8.66602 -24.5 9.99902c-7.33301 0.666992 -30.333 1 -69 1h-10c-16 -51.333 -24 -86.333 -24 -105c0 -18 8.5 -30.333 25.5 -37s25.5 -15.334 25.5 -26.001c0 -18 -15.667 -28.333 -47 -31c-50 -4 -103.667 -16 -161 -36c-13.333 -4.66699 -23.333 -7 -30 -7
c-26 0 -39 21.333 -39 64c0 46.667 12 106 36 178c-15.333 0.666992 -29 1 -41 1c-64 0 -111.333 -2 -142 -6c-20.667 -2.66699 -35.334 -4 -44.001 -4c-31.333 0 -47 15.333 -47 46c0 90.667 86 204.667 258 342c25.333 18.667 61 48.667 107 90c16.667 27.333 37 57 61 89
c4 2 17.333 3.66699 40 5c46 2.66699 85.667 9.33398 119 20.001c12 4 21.333 6 28 6c23.333 0 35 -17.333 35 -52c0 -56 -18 -134.333 -54 -235zM1205 308.996l101.001 296.001c-36.667 -36.667 -74.334 -81.334 -113.001 -134.001c-51.333 -69.333 -77 -118 -77 -146
c0 -12 13 -18 39 -18c14 0 30.667 0.666992 50 2z" />
    <glyph glyph-name="questiondown" unicode="&#xbf;" horiz-adv-x="1046" 
d="M644 957c50 0 92.3369 -12.335 127.004 -37.002c40 -28 60 -66 60 -114c0 -57.333 -26.667 -108.666 -80 -153.999c-30.667 -26.667 -82.334 -58 -155.001 -94c-42 -20.667 -74 -37 -96 -49c-43.333 -24.667 -72.333 -44.667 -87 -60c-36.667 -38.667 -55 -89 -55 -151
c0 -51.333 16 -91.333 48 -120s74 -43 126 -43c40 0 78.667 8.66699 116 26c46 21.333 69 49.666 69 84.999c0 8.66699 -1.66699 21.834 -5 39.501s-5 30.834 -5 39.501c0 30.667 11.5 57 34.5 79s49.833 33 80.5 33c33.333 0 61.166 -11.333 83.499 -34
s33.5 -50.667 33.5 -84c0 -72.667 -39.667 -140 -119 -202c-100.667 -78.667 -225.334 -118 -374.001 -118c-120.667 0 -220.334 23.333 -299.001 70c-96.667 56.667 -145 141 -145 253c0 73.333 25.667 144.333 77 213c39.333 52 94.333 96 165 132
c18 8.66699 84 35.667 198 81c26.667 10.667 54 25.334 82 44.001l-28 31c-9.33301 10.667 -14 23.667 -14 39c0 33.333 19.667 58.666 59 75.999c30 12.667 64.333 19 103 19zM744.004 1377c38 0 70.166 -12.666 96.499 -37.999s39.5 -57 39.5 -95c0 -56 -30 -103 -90 -141
c-52.667 -33.333 -109 -50 -169 -50c-37.333 0 -68.5 12.667 -93.5 38s-37.5 56.666 -37.5 93.999c0 52 30 98 90 138c54.667 36 109.334 54 164.001 54z" />
    <glyph glyph-name="Agrave" unicode="&#xc0;" horiz-adv-x="1141" 
d="M599 565c-54.667 6 -116.666 9.00391 -185.999 9.00391c-70.667 0 -133.334 -3 -188.001 -9c-52 -126.667 -78 -224.334 -78 -293.001c0 -42.667 11.667 -73.667 35 -93c7.33301 -6 29 -17 65 -33c23.333 -10 35 -24.333 35 -43c0 -21.333 -13.333 -36.333 -40 -45
c-4.66699 -1.33301 -36 -5.33301 -94 -12c-64.667 -7.33301 -123.334 -21.333 -176.001 -42c-23.333 -9.33301 -40.666 -14 -51.999 -14c-38 0 -57 27 -57 81c0 59.333 19 141 57 245c84 230 214.667 440.667 392 632c194 209.333 399 342.666 615 399.999
c75.333 20 131 30 167 30c58.667 0 88 -32 88 -96c0 -70.667 -26 -183 -78 -337c-10.667 -30.667 -51.667 -141 -123 -331c-80.667 -214.667 -121 -347 -121 -397c0 -27.333 14.167 -48.5 42.5 -63.5s42.5 -29.5 42.5 -43.5c0 -20.667 -13 -36 -39 -46
c-4.66699 -1.33301 -32.667 -4 -84 -8c-76 -5.33301 -147 -21 -213 -47c-32.667 -12.667 -54.667 -19 -66 -19c-40.667 0 -61 33 -61 99c0 63.333 13.667 143.666 41 240.999c2 5.33301 27.333 83.666 76 234.999zM643.001 682.004c113.333 288 170.002 448 170.002 480
c0 16 -7.66699 24 -23 24c-5.33301 0 -32 -12.667 -80 -38c-36 -19.333 -85.333 -58 -148 -116c-59.333 -55.333 -102.666 -100.833 -129.999 -136.5s-66 -89.5 -116 -161.5c-8.66699 -10 -19.334 -25.333 -32.001 -46c0 -6.66699 14 -10.667 42 -12
c51.333 -2 112.666 -3 183.999 -3c9.33301 0 53.666 3 132.999 9zM951.003 1793c11.333 0 23.998 -5.66699 37.998 -17c58 -49.333 106.667 -104 146 -164c8 -13.333 12 -26.333 12 -39c0 -16.667 -8.66699 -33.667 -26 -51s-34.333 -26 -51 -26
c-11.333 0 -22.333 3.33301 -33 10c-13.333 8.66699 -42.666 32.334 -87.999 71.001s-72.666 64 -81.999 76c-11.333 13.333 -17 27 -17 41c0 19.333 12 40.666 36 63.999s45.667 35 65 35z" />
    <glyph glyph-name="Aacute" unicode="&#xc1;" horiz-adv-x="1141" 
d="M599 565c-54.667 6 -116.666 9.00391 -185.999 9.00391c-70.667 0 -133.334 -3 -188.001 -9c-52 -126.667 -78 -224.334 -78 -293.001c0 -42.667 11.667 -73.667 35 -93c7.33301 -6 29 -17 65 -33c23.333 -10 35 -24.333 35 -43c0 -21.333 -13.333 -36.333 -40 -45
c-4.66699 -1.33301 -36 -5.33301 -94 -12c-64.667 -7.33301 -123.334 -21.333 -176.001 -42c-23.333 -9.33301 -40.666 -14 -51.999 -14c-38 0 -57 27 -57 81c0 59.333 19 141 57 245c84 230 214.667 440.667 392 632c194 209.333 399 342.666 615 399.999
c75.333 20 131 30 167 30c58.667 0 88 -32 88 -96c0 -70.667 -26 -183 -78 -337c-10.667 -30.667 -51.667 -141 -123 -331c-80.667 -214.667 -121 -347 -121 -397c0 -27.333 14.167 -48.5 42.5 -63.5s42.5 -29.5 42.5 -43.5c0 -20.667 -13 -36 -39 -46
c-4.66699 -1.33301 -32.667 -4 -84 -8c-76 -5.33301 -147 -21 -213 -47c-32.667 -12.667 -54.667 -19 -66 -19c-40.667 0 -61 33 -61 99c0 63.333 13.667 143.666 41 240.999c2 5.33301 27.333 83.666 76 234.999zM643.001 682.004c113.333 288 170.002 448 170.002 480
c0 16 -7.66699 24 -23 24c-5.33301 0 -32 -12.667 -80 -38c-36 -19.333 -85.333 -58 -148 -116c-59.333 -55.333 -102.666 -100.833 -129.999 -136.5s-66 -89.5 -116 -161.5c-8.66699 -10 -19.334 -25.333 -32.001 -46c0 -6.66699 14 -10.667 42 -12
c51.333 -2 112.666 -3 183.999 -3c9.33301 0 53.666 3 132.999 9zM1166 1793c21.333 0 43.499 -11.5029 66.499 -34.5029s34.5 -45.167 34.5 -66.5c0 -13.333 -5.5 -26.666 -16.5 -39.999s-38.333 -38.666 -82 -75.999s-73.167 -60.666 -88.5 -69.999
c-10.667 -6.66699 -21.667 -10 -33 -10c-16.667 0 -33.667 8.66699 -51 26s-26 34.333 -26 51c0 13.333 4 26 12 38c40.667 61.333 89.334 116.333 146.001 165c14 11.333 26.667 17 38 17z" />
    <glyph glyph-name="Acircumflex" unicode="&#xc2;" horiz-adv-x="1141" 
d="M599 565c-54.667 6 -116.666 9.00391 -185.999 9.00391c-70.667 0 -133.334 -3 -188.001 -9c-52 -126.667 -78 -224.334 -78 -293.001c0 -42.667 11.667 -73.667 35 -93c7.33301 -6 29 -17 65 -33c23.333 -10 35 -24.333 35 -43c0 -21.333 -13.333 -36.333 -40 -45
c-4.66699 -1.33301 -36 -5.33301 -94 -12c-64.667 -7.33301 -123.334 -21.333 -176.001 -42c-23.333 -9.33301 -40.666 -14 -51.999 -14c-38 0 -57 27 -57 81c0 59.333 19 141 57 245c84 230 214.667 440.667 392 632c194 209.333 399 342.666 615 399.999
c75.333 20 131 30 167 30c58.667 0 88 -32 88 -96c0 -70.667 -26 -183 -78 -337c-10.667 -30.667 -51.667 -141 -123 -331c-80.667 -214.667 -121 -347 -121 -397c0 -27.333 14.167 -48.5 42.5 -63.5s42.5 -29.5 42.5 -43.5c0 -20.667 -13 -36 -39 -46
c-4.66699 -1.33301 -32.667 -4 -84 -8c-76 -5.33301 -147 -21 -213 -47c-32.667 -12.667 -54.667 -19 -66 -19c-40.667 0 -61 33 -61 99c0 63.333 13.667 143.666 41 240.999c2 5.33301 27.333 83.666 76 234.999zM643.001 682.004c113.333 288 170.002 448 170.002 480
c0 16 -7.66699 24 -23 24c-5.33301 0 -32 -12.667 -80 -38c-36 -19.333 -85.333 -58 -148 -116c-59.333 -55.333 -102.666 -100.833 -129.999 -136.5s-66 -89.5 -116 -161.5c-8.66699 -10 -19.334 -25.333 -32.001 -46c0 -6.66699 14 -10.667 42 -12
c51.333 -2 112.666 -3 183.999 -3c9.33301 0 53.666 3 132.999 9zM1060 1648l-107 -80c-55.333 -40.667 -91.333 -61 -108 -61c-12 0 -25.167 10.833 -39.5 32.5s-21.5 39.167 -21.5 52.5c0 14 13 28.333 39 43c78 45.333 140.667 84 188 116c42 28.667 69.333 43 82 43
c19.333 0 47.333 -24.667 84 -74l57 -71c28.667 -36.667 43 -59.334 43 -68.001c0 -11.333 -11.5 -27.166 -34.5 -47.499s-40.5 -30.5 -52.5 -30.5c-10 0 -32 21 -66 63z" />
    <glyph glyph-name="Atilde" unicode="&#xc3;" horiz-adv-x="1141" 
d="M599 565c-54.667 6 -116.666 9.00391 -185.999 9.00391c-70.667 0 -133.334 -3 -188.001 -9c-52 -126.667 -78 -224.334 -78 -293.001c0 -42.667 11.667 -73.667 35 -93c7.33301 -6 29 -17 65 -33c23.333 -10 35 -24.333 35 -43c0 -21.333 -13.333 -36.333 -40 -45
c-4.66699 -1.33301 -36 -5.33301 -94 -12c-64.667 -7.33301 -123.334 -21.333 -176.001 -42c-23.333 -9.33301 -40.666 -14 -51.999 -14c-38 0 -57 27 -57 81c0 59.333 19 141 57 245c84 230 214.667 440.667 392 632c194 209.333 399 342.666 615 399.999
c75.333 20 131 30 167 30c58.667 0 88 -32 88 -96c0 -70.667 -26 -183 -78 -337c-10.667 -30.667 -51.667 -141 -123 -331c-80.667 -214.667 -121 -347 -121 -397c0 -27.333 14.167 -48.5 42.5 -63.5s42.5 -29.5 42.5 -43.5c0 -20.667 -13 -36 -39 -46
c-4.66699 -1.33301 -32.667 -4 -84 -8c-76 -5.33301 -147 -21 -213 -47c-32.667 -12.667 -54.667 -19 -66 -19c-40.667 0 -61 33 -61 99c0 63.333 13.667 143.666 41 240.999c2 5.33301 27.333 83.666 76 234.999zM643.001 682.004c113.333 288 170.002 448 170.002 480
c0 16 -7.66699 24 -23 24c-5.33301 0 -32 -12.667 -80 -38c-36 -19.333 -85.333 -58 -148 -116c-59.333 -55.333 -102.666 -100.833 -129.999 -136.5s-66 -89.5 -116 -161.5c-8.66699 -10 -19.334 -25.333 -32.001 -46c0 -6.66699 14 -10.667 42 -12
c51.333 -2 112.666 -3 183.999 -3c9.33301 0 53.666 3 132.999 9zM985.003 1589c-12 0 -31.6699 -9.49805 -59.0029 -28.498s-48.333 -28.5 -63 -28.5c-15.333 0 -28.666 6.16699 -39.999 18.5s-17 26.166 -17 41.499c0 35.333 19.5 72.166 58.5 110.499
s76.167 57.5 111.5 57.5c18.667 0 42.334 -9.83301 71.001 -29.5s47.334 -29.5 56.001 -29.5c9.33301 0 28.5 9.16699 57.5 27.5s51.5 27.5 67.5 27.5c15.333 0 28.833 -5.66699 40.5 -17s17.5 -24.333 17.5 -39c0 -32 -18.833 -68.333 -56.5 -109s-72.167 -61 -103.5 -61
c-15.333 0 -40 9.83301 -74 29.5s-56.333 29.5 -67 29.5z" />
    <glyph glyph-name="Adieresis" unicode="&#xc4;" horiz-adv-x="1142" 
d="M599 565c-54.667 6 -116.666 9.00391 -185.999 9.00391c-70.667 0 -133.334 -3 -188.001 -9c-52 -126.667 -78 -224.334 -78 -293.001c0 -42.667 11.667 -73.667 35 -93c7.33301 -6 29 -17 65 -33c23.333 -10 35 -24.333 35 -43c0 -21.333 -13.333 -36.333 -40 -45
c-4.66699 -1.33301 -36 -5.33301 -94 -12c-64.667 -7.33301 -123.334 -21.333 -176.001 -42c-23.333 -9.33301 -40.666 -14 -51.999 -14c-38 0 -57 27 -57 81c0 59.333 19 141 57 245c84 230 214.667 440.667 392 632c194 209.333 399 342.666 615 399.999
c75.333 20 131 30 167 30c58.667 0 88 -32 88 -96c0 -70.667 -26 -183 -78 -337c-10.667 -30.667 -51.667 -141 -123 -331c-80.667 -214.667 -121 -347 -121 -397c0 -27.333 14.167 -48.5 42.5 -63.5s42.5 -29.5 42.5 -43.5c0 -20.667 -13 -36 -39 -46
c-4.66699 -1.33301 -32.667 -4 -84 -8c-76 -5.33301 -147 -21 -213 -47c-32.667 -12.667 -54.667 -19 -66 -19c-40.667 0 -61 33 -61 99c0 63.333 13.667 143.666 41 240.999c2 5.33301 27.333 83.666 76 234.999zM643.001 682.004c113.333 288 170.002 448 170.002 480
c0 16 -7.66699 24 -23 24c-5.33301 0 -32 -12.667 -80 -38c-36 -19.333 -85.333 -58 -148 -116c-59.333 -55.333 -102.666 -100.833 -129.999 -136.5s-66 -89.5 -116 -161.5c-8.66699 -10 -19.334 -25.333 -32.001 -46c0 -6.66699 14 -10.667 42 -12
c51.333 -2 112.666 -3 183.999 -3c9.33301 0 53.666 3 132.999 9zM1256 1792c23.333 0 42.167 -8.66895 56.5 -26.002s21.5 -37.666 21.5 -60.999c0 -46 -14.667 -89 -44 -129c-32 -44 -70 -66 -114 -66c-48 0 -72 31.333 -72 94c0 44.667 14 86.334 42 125.001
c30 42 66.667 63 110 63zM1013 1795c51.333 0 77 -31 77 -93c0 -45.333 -14.667 -88.333 -44 -129c-32.667 -44 -71 -66 -115 -66c-22.667 0 -41 10 -55 30c-12.667 17.333 -19 38 -19 62c0 45.333 14.333 88.333 43 129c32 44.667 69.667 67 113 67z" />
    <glyph glyph-name="Aring" unicode="&#xc5;" horiz-adv-x="1141" 
d="M599 565c-54.667 6 -116.666 9.00391 -185.999 9.00391c-70.667 0 -133.334 -3 -188.001 -9c-52 -126.667 -78 -224.334 -78 -293.001c0 -42.667 11.667 -73.667 35 -93c7.33301 -6 29 -17 65 -33c23.333 -10 35 -24.333 35 -43c0 -21.333 -13.333 -36.333 -40 -45
c-4.66699 -1.33301 -36 -5.33301 -94 -12c-64.667 -7.33301 -123.334 -21.333 -176.001 -42c-23.333 -9.33301 -40.666 -14 -51.999 -14c-38 0 -57 27 -57 81c0 59.333 19 141 57 245c84 230 214.667 440.667 392 632c194 209.333 399 342.666 615 399.999
c75.333 20 131 30 167 30c58.667 0 88 -32 88 -96c0 -70.667 -26 -183 -78 -337c-10.667 -30.667 -51.667 -141 -123 -331c-80.667 -214.667 -121 -347 -121 -397c0 -27.333 14.167 -48.5 42.5 -63.5s42.5 -29.5 42.5 -43.5c0 -20.667 -13 -36 -39 -46
c-4.66699 -1.33301 -32.667 -4 -84 -8c-76 -5.33301 -147 -21 -213 -47c-32.667 -12.667 -54.667 -19 -66 -19c-40.667 0 -61 33 -61 99c0 63.333 13.667 143.666 41 240.999c2 5.33301 27.333 83.666 76 234.999zM643.001 682.004c113.333 288 170.002 448 170.002 480
c0 16 -7.66699 24 -23 24c-5.33301 0 -32 -12.667 -80 -38c-36 -19.333 -85.333 -58 -148 -116c-59.333 -55.333 -102.666 -100.833 -129.999 -136.5s-66 -89.5 -116 -161.5c-8.66699 -10 -19.334 -25.333 -32.001 -46c0 -6.66699 14 -10.667 42 -12
c51.333 -2 112.666 -3 183.999 -3c9.33301 0 53.666 3 132.999 9zM1104 1889c41.333 0 74.333 -14.667 99 -44s37 -65 37 -107c0 -53.333 -21.667 -106 -65 -158c-45.333 -54 -94 -81 -146 -81c-40.667 0 -73.667 16.667 -99 50c-22.667 30 -34 66 -34 108
c0 56.667 20.833 109.5 62.5 158.5s90.167 73.5 145.5 73.5zM1094 1792c-26.667 0 -51.333 -16 -74 -48c-21.333 -29.333 -32 -58 -32 -86c0 -41.333 17.333 -62 52 -62c26.667 0 51 18 73 54c20 32 30 62.333 30 91c0 34 -16.333 51 -49 51z" />
    <glyph glyph-name="AE" unicode="&#xc6;" horiz-adv-x="1565" 
d="M1184 1247c-15.333 -100 -60.333 -252.67 -135 -458.003c129.333 18.667 208 28 236 28c81.333 0 122 -22.333 122 -67c0 -74 -20 -111 -60 -111c-5.33301 0 -17.333 8.5 -36 25.5s-47.667 25.5 -87 25.5c-84 0 -157 -6.33301 -219 -19l-93 -243
c-39.333 -109.333 -59 -190.666 -59 -243.999c0 -37.333 21.333 -56 64 -56c74 0 150.667 31.333 230 94c68.667 54.667 124 118.667 166 192c24 42 46.333 63 67 63c33.333 0 50 -15.333 50 -46c0 -14 -19 -67.667 -57 -161c-11.333 -27.333 -30.666 -87.333 -57.999 -180
c-18.667 -62.667 -47.667 -94 -87 -94c-14 0 -32.667 2.33301 -56 7c-76.667 15.333 -162.334 23 -257.001 23c-130 0 -232.333 -8 -307 -24c-28 -6 -49 -9 -63 -9c-41.333 0 -62 31 -62 93c0 102.667 40 263.667 120 483c-38.667 5.33301 -91.334 8 -158.001 8
c-91.333 0 -164.333 -2.66699 -219 -8c-51.333 -116.667 -77 -213.667 -77 -291c0 -42.667 11.333 -73.667 34 -93c6 -5.33301 27.333 -16.333 64 -33c22.667 -10 34 -25 34 -45c0 -16.667 -6.33301 -28.667 -19 -36c-10 -6.66699 -33.667 -11 -71 -13
c-72 -4 -140.667 -19 -206 -45c-30 -12 -51.333 -18 -64 -18c-38.667 0 -58 29.667 -58 89c0 100.667 45.333 239 136 415c96 186 214 350.667 354 494c159.333 162.667 326 274.334 500 335.001c95.333 33.333 177 50 245 50c22.667 0 45 -8 67 -24
c118.667 14.667 211 22 277 22c132 0 198 -23.667 198 -71c0 -14 -19 -79.667 -57 -197c-8 -23.333 -17.667 -59 -29 -107c-3.33301 -20 -10.666 -45.333 -21.999 -76c-10.667 -14 -25.667 -21 -45 -21c-34 0 -51 19.667 -51 59c0 14.667 2.16699 36.834 6.5 66.501
s6.5 52.167 6.5 67.5c0 106.667 -44.667 160 -134 160c-27.333 0 -71 -3.33301 -131 -10zM644 686.997l96 251.001c48.667 130 73 206.667 73 230c0 13.333 -5.66699 20 -17 20c-36 0 -113.833 -51.833 -233.5 -155.5s-211.5 -218.834 -275.5 -345.501
c24 -4.66699 70 -7 138 -7c104 0 177 2.33301 219 7z" />
    <glyph glyph-name="Ccedilla" unicode="&#xc7;" horiz-adv-x="1053" 
d="M324 -1c-53.333 -66 -79.9971 -107.334 -79.9971 -124.001c0 -8.66699 3.66699 -13 11 -13c6.66699 0 16.5 2.5 29.5 7.5s23.167 7.5 30.5 7.5c24 0 43.833 -8.66699 59.5 -26s23.5 -38.333 23.5 -63c0 -77.333 -33.333 -152 -100 -224s-138.334 -108 -215.001 -108
c-42.667 0 -77.5 13.833 -104.5 41.5s-40.5 62.834 -40.5 105.501c0 53.333 18.667 80 56 80c22.667 0 40.167 -18.833 52.5 -56.5s31.166 -56.5 56.499 -56.5c38 0 73 15.5 105 46.5s48 65.5 48 103.5c0 35.333 -14.333 53 -43 53
c-9.33301 0 -22.666 -2.16699 -39.999 -6.5s-30.333 -6.5 -39 -6.5c-22 0 -33 12 -33 36c0 43.333 38 111 114 203c-84 3.33301 -150.667 37.666 -200 102.999c-45.333 59.333 -68 132.333 -68 219c0 160.667 55.333 331.667 166 513c88 144 194.333 265.667 319 365
c149.333 119.333 296 179 440 179c78 0 143 -18 195 -54c59.333 -41.333 89 -99.666 89 -174.999c0 -52 -16 -98 -48 -138c-34.667 -42.667 -77.334 -64 -128.001 -64c-33.333 0 -62 11 -86 33s-36 49.667 -36 83c0 31.333 13.167 59.666 39.5 84.999s39.5 44.333 39.5 57
c0 34.667 -23.667 52 -71 52c-96 0 -198 -80.667 -306 -242c-80.667 -119.333 -144.334 -245 -191.001 -377c-36.667 -103.333 -55 -195.666 -55 -276.999c0 -111.333 37.333 -167 112 -167c54.667 0 117.667 25.333 189 76c62.667 45.333 112 94.333 148 147l71 126
c10.667 18 26 27 46 27c34.667 0 52 -17 52 -51c0 -32.667 -25 -84 -75 -154c-68 -94.667 -145.333 -174 -232 -238c-100.667 -74 -201 -116.667 -301 -128z" />
    <glyph glyph-name="Egrave" unicode="&#xc8;" horiz-adv-x="1050" 
d="M671 1253c-17.333 -110.667 -63.3359 -263.667 -138.003 -459c107.333 17.333 189.666 26 246.999 26c74.667 0 112 -23.667 112 -71c0 -22.667 -4.33301 -44.667 -13 -66c-11.333 -27.333 -26.333 -41 -45 -41c-8 0 -20 7 -36 21c-18 14.667 -32.167 23.5 -42.5 26.5
s-33.833 4.5 -70.5 4.5c-42.667 0 -108.334 -5 -197.001 -15c-104.667 -255.333 -157 -418 -157 -488c0 -38.667 22.667 -58 68 -58c66 0 137 28 213 84c68.667 50 122.334 106.333 161.001 169c10.667 19.333 28.334 45.333 53.001 78c10.667 10.667 23.334 16 38.001 16
c12 0 22.833 -5.16699 32.5 -15.5s14.5 -21.5 14.5 -33.5s-5 -29.667 -15 -53c-46.667 -107.333 -78 -193.666 -94 -258.999c-20 -80 -51.667 -120 -95 -120c-14.667 0 -40 4.66699 -76 14c-51.333 13.333 -139.666 20 -264.999 20c-105.333 0 -190.666 -7 -255.999 -21
c-34 -7.33301 -60.667 -11 -80 -11c-47.333 0 -71 29.333 -71 88c0 120.667 79.333 380.667 238 780c70 176 105 283 105 321c0 23.333 -13.833 42.5 -41.5 57.5s-41.5 30.167 -41.5 45.5c0 33.333 21.333 49.666 64 48.999c101.333 -2 153 -3 155 -3
c21.333 0 59.333 3 114 9c188 20.667 306 31 354 31c146.667 0 220 -25.667 220 -77c0 -2.66699 -18 -64 -54 -184c-8 -26 -18.667 -64.667 -32 -116c-8 -38 -16.333 -62.667 -25 -74c-10.667 -14 -24.667 -21 -42 -21c-34.667 0 -52 20 -52 60
c0 16.667 2.33301 41.5 7 74.5s7 57.833 7 74.5c0 54 -12.167 91.667 -36.5 113s-63.833 32 -118.5 32c-36.667 0 -73 -2.66699 -109 -8zM647.997 1793c11.333 0 23.998 -5.66699 37.998 -17c58 -49.333 106.667 -104 146 -164c8 -13.333 12 -26.333 12 -39
c0 -16.667 -8.66699 -33.667 -26 -51s-34.333 -26 -51 -26c-11.333 0 -22.333 3.33301 -33 10c-13.333 8.66699 -42.666 32.334 -87.999 71.001s-72.666 64 -81.999 76c-11.333 13.333 -17 27 -17 41c0 19.333 12 40.666 36 63.999s45.667 35 65 35z" />
    <glyph glyph-name="Eacute" unicode="&#xc9;" horiz-adv-x="1050" 
d="M671 1253c-17.333 -110.667 -63.3359 -263.667 -138.003 -459c107.333 17.333 189.666 26 246.999 26c74.667 0 112 -23.667 112 -71c0 -22.667 -4.33301 -44.667 -13 -66c-11.333 -27.333 -26.333 -41 -45 -41c-8 0 -20 7 -36 21c-18 14.667 -32.167 23.5 -42.5 26.5
s-33.833 4.5 -70.5 4.5c-42.667 0 -108.334 -5 -197.001 -15c-104.667 -255.333 -157 -418 -157 -488c0 -38.667 22.667 -58 68 -58c66 0 137 28 213 84c68.667 50 122.334 106.333 161.001 169c10.667 19.333 28.334 45.333 53.001 78c10.667 10.667 23.334 16 38.001 16
c12 0 22.833 -5.16699 32.5 -15.5s14.5 -21.5 14.5 -33.5s-5 -29.667 -15 -53c-46.667 -107.333 -78 -193.666 -94 -258.999c-20 -80 -51.667 -120 -95 -120c-14.667 0 -40 4.66699 -76 14c-51.333 13.333 -139.666 20 -264.999 20c-105.333 0 -190.666 -7 -255.999 -21
c-34 -7.33301 -60.667 -11 -80 -11c-47.333 0 -71 29.333 -71 88c0 120.667 79.333 380.667 238 780c70 176 105 283 105 321c0 23.333 -13.833 42.5 -41.5 57.5s-41.5 30.167 -41.5 45.5c0 33.333 21.333 49.666 64 48.999c101.333 -2 153 -3 155 -3
c21.333 0 59.333 3 114 9c188 20.667 306 31 354 31c146.667 0 220 -25.667 220 -77c0 -2.66699 -18 -64 -54 -184c-8 -26 -18.667 -64.667 -32 -116c-8 -38 -16.333 -62.667 -25 -74c-10.667 -14 -24.667 -21 -42 -21c-34.667 0 -52 20 -52 60
c0 16.667 2.33301 41.5 7 74.5s7 57.833 7 74.5c0 54 -12.167 91.667 -36.5 113s-63.833 32 -118.5 32c-36.667 0 -73 -2.66699 -109 -8zM847.997 1793c21.333 0 43.499 -11.5029 66.499 -34.5029s34.5 -45.167 34.5 -66.5c0 -13.333 -5.5 -26.666 -16.5 -39.999
s-38.333 -38.666 -82 -75.999s-73.167 -60.666 -88.5 -69.999c-10.667 -6.66699 -21.667 -10 -33 -10c-16.667 0 -33.667 8.66699 -51 26s-26 34.333 -26 51c0 13.333 4 26 12 38c40.667 61.333 89.334 116.333 146.001 165c14 11.333 26.667 17 38 17z" />
    <glyph glyph-name="Ecircumflex" unicode="&#xca;" horiz-adv-x="1050" 
d="M671 1253c-17.333 -110.667 -63.3359 -263.667 -138.003 -459c107.333 17.333 189.666 26 246.999 26c74.667 0 112 -23.667 112 -71c0 -22.667 -4.33301 -44.667 -13 -66c-11.333 -27.333 -26.333 -41 -45 -41c-8 0 -20 7 -36 21c-18 14.667 -32.167 23.5 -42.5 26.5
s-33.833 4.5 -70.5 4.5c-42.667 0 -108.334 -5 -197.001 -15c-104.667 -255.333 -157 -418 -157 -488c0 -38.667 22.667 -58 68 -58c66 0 137 28 213 84c68.667 50 122.334 106.333 161.001 169c10.667 19.333 28.334 45.333 53.001 78c10.667 10.667 23.334 16 38.001 16
c12 0 22.833 -5.16699 32.5 -15.5s14.5 -21.5 14.5 -33.5s-5 -29.667 -15 -53c-46.667 -107.333 -78 -193.666 -94 -258.999c-20 -80 -51.667 -120 -95 -120c-14.667 0 -40 4.66699 -76 14c-51.333 13.333 -139.666 20 -264.999 20c-105.333 0 -190.666 -7 -255.999 -21
c-34 -7.33301 -60.667 -11 -80 -11c-47.333 0 -71 29.333 -71 88c0 120.667 79.333 380.667 238 780c70 176 105 283 105 321c0 23.333 -13.833 42.5 -41.5 57.5s-41.5 30.167 -41.5 45.5c0 33.333 21.333 49.666 64 48.999c101.333 -2 153 -3 155 -3
c21.333 0 59.333 3 114 9c188 20.667 306 31 354 31c146.667 0 220 -25.667 220 -77c0 -2.66699 -18 -64 -54 -184c-8 -26 -18.667 -64.667 -32 -116c-8 -38 -16.333 -62.667 -25 -74c-10.667 -14 -24.667 -21 -42 -21c-34.667 0 -52 20 -52 60
c0 16.667 2.33301 41.5 7 74.5s7 57.833 7 74.5c0 54 -12.167 91.667 -36.5 113s-63.833 32 -118.5 32c-36.667 0 -73 -2.66699 -109 -8zM784.997 1648l-107 -80c-55.333 -40.667 -91.333 -61 -108 -61c-12 0 -25.167 10.833 -39.5 32.5s-21.5 39.167 -21.5 52.5
c0 14 13 28.333 39 43c78 45.333 140.667 84 188 116c42 28.667 69.333 43 82 43c19.333 0 47.333 -24.667 84 -74l57 -71c28.667 -36.667 43 -59.334 43 -68.001c0 -11.333 -11.5 -27.166 -34.5 -47.499s-40.5 -30.5 -52.5 -30.5c-10 0 -32 21 -66 63z" />
    <glyph glyph-name="Edieresis" unicode="&#xcb;" horiz-adv-x="1050" 
d="M671 1253c-17.333 -110.667 -63.3359 -263.667 -138.003 -459c107.333 17.333 189.666 26 246.999 26c74.667 0 112 -23.667 112 -71c0 -22.667 -4.33301 -44.667 -13 -66c-11.333 -27.333 -26.333 -41 -45 -41c-8 0 -20 7 -36 21c-18 14.667 -32.167 23.5 -42.5 26.5
s-33.833 4.5 -70.5 4.5c-42.667 0 -108.334 -5 -197.001 -15c-104.667 -255.333 -157 -418 -157 -488c0 -38.667 22.667 -58 68 -58c66 0 137 28 213 84c68.667 50 122.334 106.333 161.001 169c10.667 19.333 28.334 45.333 53.001 78c10.667 10.667 23.334 16 38.001 16
c12 0 22.833 -5.16699 32.5 -15.5s14.5 -21.5 14.5 -33.5s-5 -29.667 -15 -53c-46.667 -107.333 -78 -193.666 -94 -258.999c-20 -80 -51.667 -120 -95 -120c-14.667 0 -40 4.66699 -76 14c-51.333 13.333 -139.666 20 -264.999 20c-105.333 0 -190.666 -7 -255.999 -21
c-34 -7.33301 -60.667 -11 -80 -11c-47.333 0 -71 29.333 -71 88c0 120.667 79.333 380.667 238 780c70 176 105 283 105 321c0 23.333 -13.833 42.5 -41.5 57.5s-41.5 30.167 -41.5 45.5c0 33.333 21.333 49.666 64 48.999c101.333 -2 153 -3 155 -3
c21.333 0 59.333 3 114 9c188 20.667 306 31 354 31c146.667 0 220 -25.667 220 -77c0 -2.66699 -18 -64 -54 -184c-8 -26 -18.667 -64.667 -32 -116c-8 -38 -16.333 -62.667 -25 -74c-10.667 -14 -24.667 -21 -42 -21c-34.667 0 -52 20 -52 60
c0 16.667 2.33301 41.5 7 74.5s7 57.833 7 74.5c0 54 -12.167 91.667 -36.5 113s-63.833 32 -118.5 32c-36.667 0 -73 -2.66699 -109 -8zM888.997 1792c23.333 0 42.167 -8.66895 56.5 -26.002s21.5 -37.666 21.5 -60.999c0 -46 -14.667 -89 -44 -129
c-32 -44 -70 -66 -114 -66c-48 0 -72 31.333 -72 94c0 44.667 14 86.334 42 125.001c30 42 66.667 63 110 63zM645.998 1795c51.333 0 77 -31 77 -93c0 -45.333 -14.667 -88.333 -44 -129c-32.667 -44 -71 -66 -115 -66c-22.667 0 -41 10 -55 30
c-12.667 17.333 -19 38 -19 62c0 45.333 14.333 88.333 43 129c32 44.667 69.667 67 113 67z" />
    <glyph glyph-name="Igrave" unicode="&#xcc;" horiz-adv-x="621" 
d="M262 1339c13.333 0 33.333 -0.831055 60 -2.49805s47 -2.5 61 -2.5c45.333 0 102.666 11 171.999 33c23.333 7.33301 40 11 50 11c38 0 57 -31.333 57 -94c0 -92 -57.333 -288.333 -172 -589c-102 -267.333 -153 -425.333 -153 -474c0 -26 14.167 -45.833 42.5 -59.5
s42.5 -29.834 42.5 -48.501c0 -20.667 -12.333 -35.334 -37 -44.001c-5.33301 -2 -33.333 -5.33301 -84 -10c-85.333 -8 -157.666 -23.333 -216.999 -46c-28 -10.667 -49.667 -16 -65 -16c-40.667 0 -61 30.333 -61 91c0 108.667 40.333 271.667 121 489l184 490
c19.333 62.667 29 102.667 29 120c0 20 -13.833 37.333 -41.5 52s-41.5 31 -41.5 49c0 34 17.667 51 53 51zM402 1793c11.333 0 23.998 -5.66699 37.998 -17c58 -49.333 106.667 -104 146 -164c8 -13.333 12 -26.333 12 -39c0 -16.667 -8.66699 -33.667 -26 -51
s-34.333 -26 -51 -26c-11.333 0 -22.333 3.33301 -33 10c-13.333 8.66699 -42.666 32.334 -87.999 71.001s-72.666 64 -81.999 76c-11.333 13.333 -17 27 -17 41c0 19.333 12 40.666 36 63.999s45.667 35 65 35z" />
    <glyph glyph-name="Iacute" unicode="&#xcd;" horiz-adv-x="621" 
d="M262 1339c13.333 0 33.333 -0.831055 60 -2.49805s47 -2.5 61 -2.5c45.333 0 102.666 11 171.999 33c23.333 7.33301 40 11 50 11c38 0 57 -31.333 57 -94c0 -92 -57.333 -288.333 -172 -589c-102 -267.333 -153 -425.333 -153 -474c0 -26 14.167 -45.833 42.5 -59.5
s42.5 -29.834 42.5 -48.501c0 -20.667 -12.333 -35.334 -37 -44.001c-5.33301 -2 -33.333 -5.33301 -84 -10c-85.333 -8 -157.666 -23.333 -216.999 -46c-28 -10.667 -49.667 -16 -65 -16c-40.667 0 -61 30.333 -61 91c0 108.667 40.333 271.667 121 489l184 490
c19.333 62.667 29 102.667 29 120c0 20 -13.833 37.333 -41.5 52s-41.5 31 -41.5 49c0 34 17.667 51 53 51zM603 1793c21.333 0 43.499 -11.5029 66.499 -34.5029s34.5 -45.167 34.5 -66.5c0 -13.333 -5.5 -26.666 -16.5 -39.999s-38.333 -38.666 -82 -75.999
s-73.167 -60.666 -88.5 -69.999c-10.667 -6.66699 -21.667 -10 -33 -10c-16.667 0 -33.667 8.66699 -51 26s-26 34.333 -26 51c0 13.333 4 26 12 38c40.667 61.333 89.334 116.333 146.001 165c14 11.333 26.667 17 38 17z" />
    <glyph glyph-name="Icircumflex" unicode="&#xce;" horiz-adv-x="621" 
d="M262 1339c13.333 0 33.333 -0.831055 60 -2.49805s47 -2.5 61 -2.5c45.333 0 102.666 11 171.999 33c23.333 7.33301 40 11 50 11c38 0 57 -31.333 57 -94c0 -92 -57.333 -288.333 -172 -589c-102 -267.333 -153 -425.333 -153 -474c0 -26 14.167 -45.833 42.5 -59.5
s42.5 -29.834 42.5 -48.501c0 -20.667 -12.333 -35.334 -37 -44.001c-5.33301 -2 -33.333 -5.33301 -84 -10c-85.333 -8 -157.666 -23.333 -216.999 -46c-28 -10.667 -49.667 -16 -65 -16c-40.667 0 -61 30.333 -61 91c0 108.667 40.333 271.667 121 489l184 490
c19.333 62.667 29 102.667 29 120c0 20 -13.833 37.333 -41.5 52s-41.5 31 -41.5 49c0 34 17.667 51 53 51zM554 1648l-107 -80c-55.333 -40.667 -91.333 -61 -108 -61c-12 0 -25.167 10.833 -39.5 32.5s-21.5 39.167 -21.5 52.5c0 14 13 28.333 39 43
c78 45.333 140.667 84 188 116c42 28.667 69.333 43 82 43c19.333 0 47.333 -24.667 84 -74l57 -71c28.667 -36.667 43 -59.334 43 -68.001c0 -11.333 -11.5 -27.166 -34.5 -47.499s-40.5 -30.5 -52.5 -30.5c-10 0 -32 21 -66 63z" />
    <glyph glyph-name="Idieresis" unicode="&#xcf;" horiz-adv-x="622" 
d="M262 1339c13.333 0 33.333 -0.831055 60 -2.49805s47 -2.5 61 -2.5c45.333 0 102.666 11 171.999 33c23.333 7.33301 40 11 50 11c38 0 57 -31.333 57 -94c0 -92 -57.333 -288.333 -172 -589c-102 -267.333 -153 -425.333 -153 -474c0 -26 14.167 -45.833 42.5 -59.5
s42.5 -29.834 42.5 -48.501c0 -20.667 -12.333 -35.334 -37 -44.001c-5.33301 -2 -33.333 -5.33301 -84 -10c-85.333 -8 -157.666 -23.333 -216.999 -46c-28 -10.667 -49.667 -16 -65 -16c-40.667 0 -61 30.333 -61 91c0 108.667 40.333 271.667 121 489l184 490
c19.333 62.667 29 102.667 29 120c0 20 -13.833 37.333 -41.5 52s-41.5 31 -41.5 49c0 34 17.667 51 53 51zM686 1792c23.333 0 42.167 -8.66797 56.5 -26.001s21.5 -37.666 21.5 -60.999c0 -46 -14.667 -89 -44 -129c-32 -44 -70 -66 -114 -66c-48 0 -72 31.333 -72 94
c0 45.333 13.667 87 41 125c30 42 67 63 111 63zM443.001 1795c51.333 0 77 -30.667 77 -92c0 -46 -14.667 -89.333 -44 -130c-32 -44 -70.333 -66 -115 -66c-22.667 0 -41 10 -55 30c-12.667 17.333 -19 38 -19 62c0 45.333 14.333 88.333 43 129
c32 44.667 69.667 67 113 67z" />
    <glyph glyph-name="Eth" unicode="&#xd0;" horiz-adv-x="1251" 
d="M184 793c84 206.667 125.999 333.666 125.999 380.999c0 16 -15.5 30.167 -46.5 42.5s-46.5 28.5 -46.5 48.5c0 22.667 10.667 39 32 49c12.667 6 106.667 20.333 282 43c114.667 14.667 208.334 22 281.001 22c132 0 238.667 -37 320 -111
c84 -77.333 126 -181.333 126 -312c0 -168.667 -58.333 -336 -175 -502c-110.667 -157.333 -245.334 -275.333 -404.001 -354c-69.333 -34.667 -141 -55.667 -215 -63c-30.667 -3.33301 -105.667 -5 -225 -5c-49.333 0 -94.333 -7.33301 -135 -22
c-28 -10 -47.333 -15 -58 -15c-40 0 -60 34.333 -60 103c0 76.667 18.667 174.334 56 293.001c8.66699 27.333 42.334 122 101.001 284c-37.333 -3.33301 -65.333 -5 -84 -5c-42 0 -63 17.333 -63 52c0 33.333 24.667 54.333 74 63zM678.999 1251
c-13.333 -105.333 -57.333 -257.999 -132 -457.999c62.667 0 98 -0.666992 106 -2c46.667 -6.66699 70 -26.334 70 -59.001c0 -24.667 -12.333 -41 -37 -49c-14 -4.66699 -66.667 -6.33398 -158 -5.00098c-2 0 -9.33301 -0.333008 -22 -1
c-100.667 -259.333 -151 -421 -151 -485c0 -36 16.667 -54 50 -54c42 0 91.333 29 148 87c87.333 89.333 166.333 220.833 237 394.5s106 322.834 106 447.501c0 131.333 -51.667 197 -155 197c-23.333 0 -44 -4.33301 -62 -13z" />
    <glyph glyph-name="Ntilde" unicode="&#xd1;" horiz-adv-x="1129" 
d="M815 255c9.33301 -30 18.6729 -49.999 28.0059 -59.999c5.33301 -5.33301 26 -15.666 62 -30.999c26 -11.333 39 -28 39 -50c0 -16 -7.33301 -28.333 -22 -37c-10.667 -6.66699 -40.334 -12 -89.001 -16c-61.333 -4.66699 -129.333 -21 -204 -49
c-24.667 -9.33301 -44.334 -14 -59.001 -14c-36 0 -67 47 -93 141c-29.333 106.667 -54.333 240.667 -75 402l-51 407c-42 -92 -84 -206.667 -126 -344c-48 -158.667 -72 -275.334 -72 -350.001c0 -37.333 10.667 -63.333 32 -78c3.33301 -2.66699 23 -10.667 59 -24
c21.333 -7.33301 32 -20.666 32 -39.999c0 -16 -4.83301 -28 -14.5 -36s-31.167 -14.333 -64.5 -19c-18 -2.66699 -42.333 -8.33398 -73 -17.001c-2.66699 -1.33301 -25.667 -9.66602 -69 -24.999c-34 -12.667 -54.667 -19 -62 -19c-40.667 0 -61 33 -61 99
c0 89.333 51.667 260 155 512c76 184 153.667 354.667 233 512c-10.667 39.333 -21.334 65.666 -32.001 78.999c-6 6.66699 -27.333 20.667 -64 42c-27.333 15.333 -41 33 -41 53c0 30.667 19 46 57 46c11.333 0 28.666 -0.5 51.999 -1.5s40.666 -1.5 51.999 -1.5
c49.333 0 106.666 10 171.999 30c26 8 45.333 12 58 12c30 0 54 -31.333 72 -94c4 -14 10.667 -56 20 -126c16 -152 46.667 -379 92 -681c56.667 227.333 124 431.666 202 612.999c82 190.667 148.333 286 199 286c24 0 51.667 -9.33301 83 -28
c34 -20.667 51 -41.667 51 -63c0 -12 -14 -26 -42 -42c-69.333 -39.333 -149 -161.333 -239 -366c-92 -208.667 -157.667 -416 -197 -622zM817.007 1589c-12 0 -31.6699 -9.49805 -59.0029 -28.498s-48.333 -28.5 -63 -28.5c-15.333 0 -28.666 6.16699 -39.999 18.5
s-17 26.166 -17 41.499c0 35.333 19.5 72.166 58.5 110.499s76.167 57.5 111.5 57.5c18.667 0 42.334 -9.83301 71.001 -29.5s47.334 -29.5 56.001 -29.5c9.33301 0 28.5 9.16699 57.5 27.5s51.5 27.5 67.5 27.5c15.333 0 28.833 -5.66699 40.5 -17s17.5 -24.333 17.5 -39
c0 -32 -18.833 -68.333 -56.5 -109s-72.167 -61 -103.5 -61c-15.333 0 -40 9.83301 -74 29.5s-56.333 29.5 -67 29.5z" />
    <glyph glyph-name="Ograve" unicode="&#xd2;" 
d="M868 1377c105.333 0 185.334 -33.334 240.001 -100.001c49.333 -60.667 74 -145 74 -253c0 -138 -42.833 -288 -128.5 -450s-193.167 -296 -322.5 -402c-142 -116.667 -283.333 -175 -424 -175c-102.667 0 -183.667 34.333 -243 103c-56 65.333 -84 150 -84 254
c0 146 42.167 299.333 126.5 460s191.833 292.334 322.5 395.001c143.333 112 289.666 168 438.999 168zM819.001 1257c-37.333 0 -80.334 -21.333 -129.001 -64c-90.667 -80 -171 -204.667 -241 -374c-68 -164.667 -102 -310 -102 -436
c0 -47.333 8.33301 -87.666 25 -120.999c20.667 -43.333 52.334 -65 95.001 -65c104 0 205 99 303 297c104 209.333 156 405.666 156 588.999c0 116 -35.667 174 -107 174zM789 1793c11.333 0 23.998 -5.66699 37.998 -17c58 -49.333 106.667 -104 146 -164
c8 -13.333 12 -26.333 12 -39c0 -16.667 -8.66699 -33.667 -26 -51s-34.333 -26 -51 -26c-11.333 0 -22.333 3.33301 -33 10c-13.333 8.66699 -42.666 32.334 -87.999 71.001s-72.666 64 -81.999 76c-11.333 13.333 -17 27 -17 41c0 19.333 12 40.666 36 63.999
s45.667 35 65 35z" />
    <glyph glyph-name="Oacute" unicode="&#xd3;" 
d="M868 1377c105.333 0 185.334 -33.334 240.001 -100.001c49.333 -60.667 74 -145 74 -253c0 -138 -42.833 -288 -128.5 -450s-193.167 -296 -322.5 -402c-142 -116.667 -283.333 -175 -424 -175c-102.667 0 -183.667 34.333 -243 103c-56 65.333 -84 150 -84 254
c0 146 42.167 299.333 126.5 460s191.833 292.334 322.5 395.001c143.333 112 289.666 168 438.999 168zM819.001 1257c-37.333 0 -80.334 -21.333 -129.001 -64c-90.667 -80 -171 -204.667 -241 -374c-68 -164.667 -102 -310 -102 -436
c0 -47.333 8.33301 -87.666 25 -120.999c20.667 -43.333 52.334 -65 95.001 -65c104 0 205 99 303 297c104 209.333 156 405.666 156 588.999c0 116 -35.667 174 -107 174zM1033 1793c21.333 0 43.499 -11.5029 66.499 -34.5029s34.5 -45.167 34.5 -66.5
c0 -13.333 -5.5 -26.666 -16.5 -39.999s-38.333 -38.666 -82 -75.999s-73.167 -60.666 -88.5 -69.999c-10.667 -6.66699 -21.667 -10 -33 -10c-16.667 0 -33.667 8.66699 -51 26s-26 34.333 -26 51c0 13.333 4 26 12 38c40.667 61.333 89.334 116.333 146.001 165
c14 11.333 26.667 17 38 17z" />
    <glyph glyph-name="Ocircumflex" unicode="&#xd4;" 
d="M868 1377c105.333 0 185.334 -33.334 240.001 -100.001c49.333 -60.667 74 -145 74 -253c0 -138 -42.833 -288 -128.5 -450s-193.167 -296 -322.5 -402c-142 -116.667 -283.333 -175 -424 -175c-102.667 0 -183.667 34.333 -243 103c-56 65.333 -84 150 -84 254
c0 146 42.167 299.333 126.5 460s191.833 292.334 322.5 395.001c143.333 112 289.666 168 438.999 168zM819.001 1257c-37.333 0 -80.334 -21.333 -129.001 -64c-90.667 -80 -171 -204.667 -241 -374c-68 -164.667 -102 -310 -102 -436
c0 -47.333 8.33301 -87.666 25 -120.999c20.667 -43.333 52.334 -65 95.001 -65c104 0 205 99 303 297c104 209.333 156 405.666 156 588.999c0 116 -35.667 174 -107 174zM927 1648l-107 -80c-55.333 -40.667 -91.333 -61 -108 -61c-12 0 -25.167 10.833 -39.5 32.5
s-21.5 39.167 -21.5 52.5c0 14 13 28.333 39 43c78 45.333 140.667 84 188 116c42 28.667 69.333 43 82 43c19.333 0 47.333 -24.667 84 -74l57 -71c28.667 -36.667 43 -59.334 43 -68.001c0 -11.333 -11.5 -27.166 -34.5 -47.499s-40.5 -30.5 -52.5 -30.5
c-10 0 -32 21 -66 63z" />
    <glyph glyph-name="Otilde" unicode="&#xd5;" 
d="M868 1377c105.333 0 185.334 -33.334 240.001 -100.001c49.333 -60.667 74 -145 74 -253c0 -138 -42.833 -288 -128.5 -450s-193.167 -296 -322.5 -402c-142 -116.667 -283.333 -175 -424 -175c-102.667 0 -183.667 34.333 -243 103c-56 65.333 -84 150 -84 254
c0 146 42.167 299.333 126.5 460s191.833 292.334 322.5 395.001c143.333 112 289.666 168 438.999 168zM819.001 1257c-37.333 0 -80.334 -21.333 -129.001 -64c-90.667 -80 -171 -204.667 -241 -374c-68 -164.667 -102 -310 -102 -436
c0 -47.333 8.33301 -87.666 25 -120.999c20.667 -43.333 52.334 -65 95.001 -65c104 0 205 99 303 297c104 209.333 156 405.666 156 588.999c0 116 -35.667 174 -107 174zM838 1589c-12 0 -31.6699 -9.49805 -59.0029 -28.498s-48.333 -28.5 -63 -28.5
c-15.333 0 -28.666 6.16699 -39.999 18.5s-17 26.166 -17 41.499c0 35.333 19.5 72.166 58.5 110.499s76.167 57.5 111.5 57.5c18.667 0 42.334 -9.83301 71.001 -29.5s47.334 -29.5 56.001 -29.5c9.33301 0 28.5 9.16699 57.5 27.5s51.5 27.5 67.5 27.5
c15.333 0 28.833 -5.66699 40.5 -17s17.5 -24.333 17.5 -39c0 -32 -18.833 -68.333 -56.5 -109s-72.167 -61 -103.5 -61c-15.333 0 -40 9.83301 -74 29.5s-56.333 29.5 -67 29.5z" />
    <glyph glyph-name="Odieresis" unicode="&#xd6;" 
d="M868 1377c105.333 0 185.334 -33.334 240.001 -100.001c49.333 -60.667 74 -145 74 -253c0 -138 -42.833 -288 -128.5 -450s-193.167 -296 -322.5 -402c-142 -116.667 -283.333 -175 -424 -175c-102.667 0 -183.667 34.333 -243 103c-56 65.333 -84 150 -84 254
c0 146 42.167 299.333 126.5 460s191.833 292.334 322.5 395.001c143.333 112 289.666 168 438.999 168zM819.001 1257c-37.333 0 -80.334 -21.333 -129.001 -64c-90.667 -80 -171 -204.667 -241 -374c-68 -164.667 -102 -310 -102 -436
c0 -47.333 8.33301 -87.666 25 -120.999c20.667 -43.333 52.334 -65 95.001 -65c104 0 205 99 303 297c104 209.333 156 405.666 156 588.999c0 116 -35.667 174 -107 174zM1144 1792c23.333 0 42.167 -8.66895 56.5 -26.002s21.5 -37.666 21.5 -60.999
c0 -46 -14.667 -89 -44 -129c-32 -44 -70 -66 -114 -66c-48 0 -72 31.333 -72 94c0 44.667 14 86.334 42 125.001c30 42 66.667 63 110 63zM901.001 1795c51.333 0 77 -31 77 -93c0 -45.333 -14.667 -88.333 -44 -129c-32.667 -44 -71 -66 -115 -66c-22.667 0 -41 10 -55 30
c-12.667 17.333 -19 38 -19 62c0 45.333 14.333 88.333 43 129c32 44.667 69.667 67 113 67z" />
    <glyph glyph-name="multiply" unicode="&#xd7;" 
d="M605 886c231.333 200 350.667 299.999 358 299.999c11.333 0 30 -13.667 56 -41s39 -46.666 39 -57.999c0 -16.667 -35.667 -55.667 -107 -117l-238 -205c180.667 -202 271 -307.667 271 -317c0 -11.333 -14.333 -31 -43 -59s-49 -42 -61 -42s-109.333 103.333 -292 310
l-264 -228c-58.667 -50.667 -94.667 -76 -108 -76c-11.333 0 -29 14.167 -53 42.5s-36 48.833 -36 61.5s31.667 46 95 100l258 221c-185.333 208.667 -278 317 -278 325c0 6.66699 16.5 25.167 49.5 55.5s53.167 45.5 60.5 45.5s105 -106 293 -318z" />
    <glyph glyph-name="Oslash" unicode="&#xd8;" horiz-adv-x="1162" 
d="M1175 1138c9.33301 -28.667 13.9971 -60.667 13.9971 -96c0 -140.667 -42.667 -293.334 -128 -458.001s-192.666 -300.667 -321.999 -408c-142 -118 -284.333 -177 -427 -177c-109.333 0 -195.666 42.667 -258.999 128c-17.333 -18 -51.666 -61.667 -102.999 -131
c-22.667 -30 -44.667 -45 -66 -45s-40.333 10.5 -57 31.5s-25 42.5 -25 64.5c0 42.667 64 122.334 192 239.001c-4 42.667 -6 73.667 -6 93c0 71.333 14.333 152.333 43 243c98.667 312.667 283.334 541.667 554.001 687c89.333 48 183.333 72 282 72
s179.667 -32.333 243 -97c30.667 36 53.667 67.333 69 94c29.333 50 55.666 75 78.999 75c22 0 42.333 -9.83301 61 -29.5s28 -40.5 28 -62.5c0 -46.667 -57.333 -121 -172 -223zM930.997 1105c-7.33301 104.667 -41.668 157 -103.001 157c-85.333 0 -177 -81.667 -275 -245
c-81.333 -135.333 -133.666 -257 -156.999 -365zM911.995 906c-153.333 -118 -340 -275.999 -560 -473.999c-0.666992 -18.667 -1 -31.667 -1 -39c0 -130 41.667 -195 125 -195c104.667 0 206 101.667 304 305c66.667 137.333 110.667 271.666 132 402.999z" />
    <glyph glyph-name="Ugrave" unicode="&#xd9;" horiz-adv-x="1152" 
d="M254 1334c9.33301 0 23 -0.832031 41 -2.49902s31.667 -2.5 41 -2.5c70 0 134.333 10 193 30c29.333 10 50.666 15 63.999 15c38.667 0 58 -31 58 -93c0 -90 -77.333 -338 -232 -744c-52 -136.667 -78 -225 -78 -265c0 -36 12.667 -64.667 38 -86s56.333 -32 93 -32
c136.667 0 256 118 358 354c90.667 209.333 136 394 136 554c0 58 -13 101.667 -39 131c-12 14 -35.667 30 -71 48c-26 13.333 -39 29 -39 47c0 16.667 6 28.667 18 36c7.33301 4.66699 31 7.66699 71 9c56 1.33301 112 10.666 168 27.999
c28.667 8.66699 48.334 13 59.001 13c44.667 0 67 -48 67 -144c0 -192 -79.333 -442 -238 -750c-91.333 -176.667 -190 -304.334 -296 -383.001c-92.667 -68.667 -197 -103 -313 -103c-96 0 -176.667 23.333 -242 70c-74 52.667 -111 125.334 -111 218.001
c0 64.667 29 176 87 334l119 320c48.667 129.333 73 211.333 73 246c0 20.667 -13.833 39.5 -41.5 56.5s-41.5 32.833 -41.5 47.5c0 32 19.333 48 58 48zM680 1793c11.333 0 23.998 -5.66699 37.998 -17c58 -49.333 106.667 -104 146 -164c8 -13.333 12 -26.333 12 -39
c0 -16.667 -8.66699 -33.667 -26 -51s-34.333 -26 -51 -26c-11.333 0 -22.333 3.33301 -33 10c-13.333 8.66699 -42.666 32.334 -87.999 71.001s-72.666 64 -81.999 76c-11.333 13.333 -17 27 -17 41c0 19.333 12 40.666 36 63.999s45.667 35 65 35z" />
    <glyph glyph-name="Uacute" unicode="&#xda;" horiz-adv-x="1152" 
d="M254 1334c9.33301 0 23 -0.832031 41 -2.49902s31.667 -2.5 41 -2.5c70 0 134.333 10 193 30c29.333 10 50.666 15 63.999 15c38.667 0 58 -31 58 -93c0 -90 -77.333 -338 -232 -744c-52 -136.667 -78 -225 -78 -265c0 -36 12.667 -64.667 38 -86s56.333 -32 93 -32
c136.667 0 256 118 358 354c90.667 209.333 136 394 136 554c0 58 -13 101.667 -39 131c-12 14 -35.667 30 -71 48c-26 13.333 -39 29 -39 47c0 16.667 6 28.667 18 36c7.33301 4.66699 31 7.66699 71 9c56 1.33301 112 10.666 168 27.999
c28.667 8.66699 48.334 13 59.001 13c44.667 0 67 -48 67 -144c0 -192 -79.333 -442 -238 -750c-91.333 -176.667 -190 -304.334 -296 -383.001c-92.667 -68.667 -197 -103 -313 -103c-96 0 -176.667 23.333 -242 70c-74 52.667 -111 125.334 -111 218.001
c0 64.667 29 176 87 334l119 320c48.667 129.333 73 211.333 73 246c0 20.667 -13.833 39.5 -41.5 56.5s-41.5 32.833 -41.5 47.5c0 32 19.333 48 58 48zM909 1793c21.333 0 43.499 -11.5029 66.499 -34.5029s34.5 -45.167 34.5 -66.5c0 -13.333 -5.5 -26.666 -16.5 -39.999
s-38.333 -38.666 -82 -75.999s-73.167 -60.666 -88.5 -69.999c-10.667 -6.66699 -21.667 -10 -33 -10c-16.667 0 -33.667 8.66699 -51 26s-26 34.333 -26 51c0 13.333 4 26 12 38c40.667 61.333 89.334 116.333 146.001 165c14 11.333 26.667 17 38 17z" />
    <glyph glyph-name="Ucircumflex" unicode="&#xdb;" horiz-adv-x="1152" 
d="M254 1334c9.33301 0 23 -0.832031 41 -2.49902s31.667 -2.5 41 -2.5c70 0 134.333 10 193 30c29.333 10 50.666 15 63.999 15c38.667 0 58 -31 58 -93c0 -90 -77.333 -338 -232 -744c-52 -136.667 -78 -225 -78 -265c0 -36 12.667 -64.667 38 -86s56.333 -32 93 -32
c136.667 0 256 118 358 354c90.667 209.333 136 394 136 554c0 58 -13 101.667 -39 131c-12 14 -35.667 30 -71 48c-26 13.333 -39 29 -39 47c0 16.667 6 28.667 18 36c7.33301 4.66699 31 7.66699 71 9c56 1.33301 112 10.666 168 27.999
c28.667 8.66699 48.334 13 59.001 13c44.667 0 67 -48 67 -144c0 -192 -79.333 -442 -238 -750c-91.333 -176.667 -190 -304.334 -296 -383.001c-92.667 -68.667 -197 -103 -313 -103c-96 0 -176.667 23.333 -242 70c-74 52.667 -111 125.334 -111 218.001
c0 64.667 29 176 87 334l119 320c48.667 129.333 73 211.333 73 246c0 20.667 -13.833 39.5 -41.5 56.5s-41.5 32.833 -41.5 47.5c0 32 19.333 48 58 48zM818 1648l-107 -80c-55.333 -40.667 -91.333 -61 -108 -61c-12 0 -25.167 10.833 -39.5 32.5s-21.5 39.167 -21.5 52.5
c0 14 13 28.333 39 43c78 45.333 140.667 84 188 116c42 28.667 69.333 43 82 43c19.333 0 47.333 -24.667 84 -74l57 -71c28.667 -36.667 43 -59.334 43 -68.001c0 -11.333 -11.5 -27.166 -34.5 -47.499s-40.5 -30.5 -52.5 -30.5c-10 0 -32 21 -66 63z" />
    <glyph glyph-name="Udieresis" unicode="&#xdc;" horiz-adv-x="1152" 
d="M254 1334c9.33301 0 23 -0.832031 41 -2.49902s31.667 -2.5 41 -2.5c70 0 134.333 10 193 30c29.333 10 50.666 15 63.999 15c38.667 0 58 -31 58 -93c0 -90 -77.333 -338 -232 -744c-52 -136.667 -78 -225 -78 -265c0 -36 12.667 -64.667 38 -86s56.333 -32 93 -32
c136.667 0 256 118 358 354c90.667 209.333 136 394 136 554c0 58 -13 101.667 -39 131c-12 14 -35.667 30 -71 48c-26 13.333 -39 29 -39 47c0 16.667 6 28.667 18 36c7.33301 4.66699 31 7.66699 71 9c56 1.33301 112 10.666 168 27.999
c28.667 8.66699 48.334 13 59.001 13c44.667 0 67 -48 67 -144c0 -192 -79.333 -442 -238 -750c-91.333 -176.667 -190 -304.334 -296 -383.001c-92.667 -68.667 -197 -103 -313 -103c-96 0 -176.667 23.333 -242 70c-74 52.667 -111 125.334 -111 218.001
c0 64.667 29 176 87 334l119 320c48.667 129.333 73 211.333 73 246c0 20.667 -13.833 39.5 -41.5 56.5s-41.5 32.833 -41.5 47.5c0 32 19.333 48 58 48zM969 1792c23.333 0 42.167 -8.66895 56.5 -26.002s21.5 -37.666 21.5 -60.999c0 -46 -14.667 -89 -44 -129
c-32 -44 -70 -66 -114 -66c-48 0 -72 31.333 -72 94c0 44.667 14 86.334 42 125.001c30 42 66.667 63 110 63zM726.001 1795c51.333 0 77 -31 77 -93c0 -45.333 -14.667 -88.333 -44 -129c-32.667 -44 -71 -66 -115 -66c-22.667 0 -41 10 -55 30
c-12.667 17.333 -19 38 -19 62c0 45.333 14.333 88.333 43 129c32 44.667 69.667 67 113 67z" />
    <glyph glyph-name="Yacute" unicode="&#xdd;" horiz-adv-x="1071" 
d="M479 503c-71.333 -23.333 -123.33 -34.9951 -155.997 -34.9951c-59.333 0 -108 16.333 -146 49c-40.667 34 -61 80.333 -61 139c0 53.333 23.667 145.666 71 276.999c50.667 140 76 224.333 76 253c0 20.667 -15.333 38.667 -46 54s-46 32.666 -46 51.999
c0 29.333 16.667 44 50 44c10.667 0 26.667 -0.833008 48 -2.5s37.333 -2.5 48 -2.5c76.667 0 146 10.667 208 32c25.333 8.66699 43 13 53 13c37.333 0 56 -29.333 56 -88c0 -62 -16 -143 -48 -243c-18.667 -60 -48.334 -148.667 -89.001 -266
c-9.33301 -24 -14 -44 -14 -60c0 -29.333 18 -44 54 -44c86.667 0 175 66.333 265 199c73.333 108.667 110 207.667 110 297c0 22.667 -3.33301 38 -10 46c-5.33301 5.33301 -24.333 12.666 -57 21.999c-25.333 7.33301 -38 21.666 -38 42.999c0 28 15.667 44.667 47 50h79
c73.333 0 141 10.667 203 32c21.333 7.33301 36.666 11 45.999 11c30.667 0 46 -18.667 46 -56c0 -91.333 -156.333 -316 -469 -674c-84.667 -97.333 -153 -186.333 -205 -267c-52.667 -82.667 -79 -141 -79 -175c0 -19.333 16.5 -34.5 49.5 -45.5s49.5 -27.833 49.5 -50.5
c0 -19.333 -11 -34.333 -33 -45c-5.33301 -2.66699 -43 -8.33398 -113 -17.001c-20 -2.66699 -58.667 -12.667 -116 -30c-52.667 -16.667 -84.334 -25 -95.001 -25c-33.333 0 -50 19.333 -50 58c0 52.667 41.667 132 125 238zM863.003 1793
c21.333 0 43.499 -11.5029 66.499 -34.5029s34.5 -45.167 34.5 -66.5c0 -13.333 -5.5 -26.666 -16.5 -39.999s-38.333 -38.666 -82 -75.999s-73.167 -60.666 -88.5 -69.999c-10.667 -6.66699 -21.667 -10 -33 -10c-16.667 0 -33.667 8.66699 -51 26s-26 34.333 -26 51
c0 13.333 4 26 12 38c40.667 61.333 89.334 116.333 146.001 165c14 11.333 26.667 17 38 17z" />
    <glyph glyph-name="Thorn" unicode="&#xde;" horiz-adv-x="1094" 
d="M374 381c-23.333 -74.667 -35 -126.333 -35 -155c0 -23.333 14.167 -43.833 42.5 -61.5s42.5 -33.167 42.5 -46.5c0 -30 -24.667 -47.333 -74 -52c-122.667 -12 -213.667 -29.333 -273 -52c-24.667 -9.33301 -43 -14 -55 -14c-42 -0 -63 33.333 -63 100
c0 111.333 71.333 352.333 214 723c78.667 204.667 118 323 118 355c0 18.667 -15.5 32.5 -46.5 41.5s-46.5 26.5 -46.5 52.5c0 44.667 47.333 70 142 76c75.333 4.66699 134.333 11.667 177 21c12 2.66699 21.333 4 28 4c35.333 0 53 -35.667 53 -107
c0 -18 -2.33301 -45.333 -7 -82c70 5.33301 123 8 159 8c104.667 0 189 -21.667 253 -65c74.667 -50.667 112 -126 112 -226c0 -92.667 -30 -182.667 -90 -270c-56.667 -83.333 -133.334 -148.333 -230.001 -195c-93.333 -46 -191.666 -69 -294.999 -69
c-42.667 0 -84.667 4.66699 -126 14zM588 1066c-10 -84.667 -34.666 -183.667 -73.999 -297l-106 -289c23.333 -7.33301 44 -11 62 -11c39.333 0 74.333 13 105 39c45.333 38.667 87.666 110.334 126.999 215.001c37.333 99.333 56 182.666 56 249.999c0 72 -31 108 -93 108
c-23.333 0 -49 -5 -77 -15z" />
    <glyph glyph-name="germandbls" unicode="&#xdf;" horiz-adv-x="1123" 
d="M844 970c67.333 -5.33301 121.502 -29.0029 162.502 -71.0029s61.5 -96.667 61.5 -164c0 -107.333 -35 -222.333 -105 -345c-64.667 -112.667 -142.834 -205.834 -234.501 -279.501s-175.834 -110.5 -252.501 -110.5c-42.667 0 -79.667 13.833 -111 41.5
s-47 62.834 -47 105.501c0 32 9.83301 59.333 29.5 82s45.167 34 76.5 34c60 0 90 -29.333 90 -88c0 -5.33301 -1.5 -12.5 -4.5 -21.5s-4.5 -15.833 -4.5 -20.5c0 -6.66699 2.66699 -10 8 -10s18.333 10.333 39 31c59.333 59.333 108 136.333 146 231
c36.667 92.667 55 182 55 268c0 48.667 -10 90.334 -30 125.001c-24.667 41.333 -59.667 62 -105 62c-14.667 0 -35.167 -5.33301 -61.5 -16s-46.166 -16 -59.499 -16c-4 0 -11.333 1.66699 -22 5c-16.667 -63.333 -45.667 -154 -87 -272
c-22.667 -60 -52.334 -150.333 -89.001 -271c-4 -18 -11.667 -85.333 -23 -202c-2 -21.333 -11 -37 -27 -47c-12 -7.33301 -46.667 -15.666 -104 -24.999c-40.667 -6.66699 -73 -15 -97 -25c-44 -18.667 -74 -28 -90 -28c-36 0 -54 26 -54 78c0 66 22.667 164 68 294
l104 294c1.33301 4 25.833 95.333 73.5 274s121.834 306.667 222.501 384c96 74 210.333 111 343 111c69.333 0 126.666 -13.667 171.999 -41c54.667 -33.333 82 -82.666 82 -147.999c0 -77.333 -41.667 -150.333 -125 -219zM488.002 927.997
c9.33301 3.33301 35 14.3311 77 32.998s77.833 50.834 107.5 96.501s44.5 91.834 44.5 138.501c0 46 -21.333 69 -64 69c-23.333 0 -46.333 -7 -69 -21c-64 -40 -96 -130 -96 -270v-46z" />
    <glyph glyph-name="agrave" unicode="&#xe0;" horiz-adv-x="1055" 
d="M709 944c10.667 16.667 23 26.6699 37 30.0029c5.33301 1.33301 21.666 2 48.999 2c36.667 0 85.334 8.33301 146.001 25c16.667 4.66699 30 7 40 7c32 0 48 -27 48 -81c0 -65.333 -27.667 -168.333 -83 -309l-125 -310c-12 -34.667 -18 -63.334 -18 -86.001
c0 -29.333 17.5 -49.333 52.5 -60s52.5 -26.334 52.5 -47.001c0 -24 -17 -39.333 -51 -46l-79 -4c-72.667 -4.66699 -145 -21.334 -217 -50.001c-25.333 -10 -43 -15 -53 -15c-34 -0 -51 28.333 -51 85c0 25.333 2.33301 56.333 7 93
c-85.333 -76 -131.333 -116.333 -138 -121c-54.667 -38.667 -111.667 -58 -171 -58c-68.667 0 -125.667 25 -171 75c-44 48 -66 106.667 -66 176c0 134 52 271.333 156 412c96.667 130 209.334 227.333 338.001 292c70 35.333 131.667 53 185 53
c47.333 0 84.666 -21 111.999 -63zM695 823.003c-20.667 -12.667 -37.667 -19 -51 -19c-34 0 -51 17 -51 51c0 3.33301 0.5 8.33301 1.5 15s1.5 11.667 1.5 15c0 10.667 -5 16 -15 16c-18 0 -45 -19.333 -81 -58c-58 -64 -114 -156 -168 -276
c-57.333 -126 -86 -228.333 -86 -307c0 -41.333 14.667 -62 44 -62c42.667 0 96.667 40.667 162 122c44 55.333 84 116 120 182c60 110 101 217 123 321zM651 1495c12 0 24.668 -5.33203 38.001 -15.999c57.333 -48.667 106.333 -103.667 147 -165
c8 -13.333 12 -26.333 12 -39c0 -17.333 -8.5 -34.5 -25.5 -51.5s-34.167 -25.5 -51.5 -25.5c-11.333 0 -22.333 3.33301 -33 10c-14 8.66699 -43.333 32.167 -88 70.5s-72.334 64 -83.001 77s-16 26.5 -16 40.5c0 19.333 11.833 40.666 35.5 63.999s45.167 35 64.5 35z" />
    <glyph glyph-name="aacute" unicode="&#xe1;" horiz-adv-x="1055" 
d="M709 944c10.667 16.667 23 26.6699 37 30.0029c5.33301 1.33301 21.666 2 48.999 2c36.667 0 85.334 8.33301 146.001 25c16.667 4.66699 30 7 40 7c32 0 48 -27 48 -81c0 -65.333 -27.667 -168.333 -83 -309l-125 -310c-12 -34.667 -18 -63.334 -18 -86.001
c0 -29.333 17.5 -49.333 52.5 -60s52.5 -26.334 52.5 -47.001c0 -24 -17 -39.333 -51 -46l-79 -4c-72.667 -4.66699 -145 -21.334 -217 -50.001c-25.333 -10 -43 -15 -53 -15c-34 -0 -51 28.333 -51 85c0 25.333 2.33301 56.333 7 93
c-85.333 -76 -131.333 -116.333 -138 -121c-54.667 -38.667 -111.667 -58 -171 -58c-68.667 0 -125.667 25 -171 75c-44 48 -66 106.667 -66 176c0 134 52 271.333 156 412c96.667 130 209.334 227.333 338.001 292c70 35.333 131.667 53 185 53
c47.333 0 84.666 -21 111.999 -63zM695 823.003c-20.667 -12.667 -37.667 -19 -51 -19c-34 0 -51 17 -51 51c0 3.33301 0.5 8.33301 1.5 15s1.5 11.667 1.5 15c0 10.667 -5 16 -15 16c-18 0 -45 -19.333 -81 -58c-58 -64 -114 -156 -168 -276
c-57.333 -126 -86 -228.333 -86 -307c0 -41.333 14.667 -62 44 -62c42.667 0 96.667 40.667 162 122c44 55.333 84 116 120 182c60 110 101 217 123 321zM840 1495c20.667 0 42.5 -11.667 65.5 -35s34.5 -45.333 34.5 -66c0 -12.667 -5.83301 -26.167 -17.5 -40.5
s-38.667 -39.5 -81 -75.5s-71.833 -59.333 -88.5 -70c-10.667 -6.66699 -21.334 -10 -32.001 -10c-17.333 0 -34.666 8.5 -51.999 25.5s-26 34.167 -26 51.5c0 13.333 4 26 12 38c43.333 66 92.333 121.333 147 166c13.333 10.667 26 16 38 16z" />
    <glyph glyph-name="acircumflex" unicode="&#xe2;" horiz-adv-x="1055" 
d="M709 944c10.667 16.667 23 26.6699 37 30.0029c5.33301 1.33301 21.666 2 48.999 2c36.667 0 85.334 8.33301 146.001 25c16.667 4.66699 30 7 40 7c32 0 48 -27 48 -81c0 -65.333 -27.667 -168.333 -83 -309l-125 -310c-12 -34.667 -18 -63.334 -18 -86.001
c0 -29.333 17.5 -49.333 52.5 -60s52.5 -26.334 52.5 -47.001c0 -24 -17 -39.333 -51 -46l-79 -4c-72.667 -4.66699 -145 -21.334 -217 -50.001c-25.333 -10 -43 -15 -53 -15c-34 -0 -51 28.333 -51 85c0 25.333 2.33301 56.333 7 93
c-85.333 -76 -131.333 -116.333 -138 -121c-54.667 -38.667 -111.667 -58 -171 -58c-68.667 0 -125.667 25 -171 75c-44 48 -66 106.667 -66 176c0 134 52 271.333 156 412c96.667 130 209.334 227.333 338.001 292c70 35.333 131.667 53 185 53
c47.333 0 84.666 -21 111.999 -63zM695 823.003c-20.667 -12.667 -37.667 -19 -51 -19c-34 0 -51 17 -51 51c0 3.33301 0.5 8.33301 1.5 15s1.5 11.667 1.5 15c0 10.667 -5 16 -15 16c-18 0 -45 -19.333 -81 -58c-58 -64 -114 -156 -168 -276
c-57.333 -126 -86 -228.333 -86 -307c0 -41.333 14.667 -62 44 -62c42.667 0 96.667 40.667 162 122c44 55.333 84 116 120 182c60 110 101 217 123 321zM732 1350l-106.999 -80.001c-56.667 -40.667 -92.667 -61 -108 -61c-12 0 -25.167 10.833 -39.5 32.5
s-21.5 39.167 -21.5 52.5c0 14 13 28.333 39 43c63.333 36 126 75 188 117c41.333 28 68.666 42 81.999 42c19.333 0 47.333 -24.667 84 -74l58 -71c28 -35.333 42 -58 42 -68c0 -11.333 -11.5 -27.166 -34.5 -47.499s-40.5 -30.5 -52.5 -30.5c-10 0 -32 21 -66 63z" />
    <glyph glyph-name="atilde" unicode="&#xe3;" horiz-adv-x="1055" 
d="M709 944c10.667 16.667 23 26.6699 37 30.0029c5.33301 1.33301 21.666 2 48.999 2c36.667 0 85.334 8.33301 146.001 25c16.667 4.66699 30 7 40 7c32 0 48 -27 48 -81c0 -65.333 -27.667 -168.333 -83 -309l-125 -310c-12 -34.667 -18 -63.334 -18 -86.001
c0 -29.333 17.5 -49.333 52.5 -60s52.5 -26.334 52.5 -47.001c0 -24 -17 -39.333 -51 -46l-79 -4c-72.667 -4.66699 -145 -21.334 -217 -50.001c-25.333 -10 -43 -15 -53 -15c-34 -0 -51 28.333 -51 85c0 25.333 2.33301 56.333 7 93
c-85.333 -76 -131.333 -116.333 -138 -121c-54.667 -38.667 -111.667 -58 -171 -58c-68.667 0 -125.667 25 -171 75c-44 48 -66 106.667 -66 176c0 134 52 271.333 156 412c96.667 130 209.334 227.333 338.001 292c70 35.333 131.667 53 185 53
c47.333 0 84.666 -21 111.999 -63zM695 823.003c-20.667 -12.667 -37.667 -19 -51 -19c-34 0 -51 17 -51 51c0 3.33301 0.5 8.33301 1.5 15s1.5 11.667 1.5 15c0 10.667 -5 16 -15 16c-18 0 -45 -19.333 -81 -58c-58 -64 -114 -156 -168 -276
c-57.333 -126 -86 -228.333 -86 -307c0 -41.333 14.667 -62 44 -62c42.667 0 96.667 40.667 162 122c44 55.333 84 116 120 182c60 110 101 217 123 321zM644 1290c-11.333 0 -30.835 -9.33203 -58.502 -27.999s-48.834 -28 -63.501 -28
c-15.333 0 -28.666 6.16699 -39.999 18.5s-17 26.166 -17 41.499c0 34.667 19.5 71.167 58.5 109.5s76.167 57.5 111.5 57.5c18.667 0 42.334 -9.83301 71.001 -29.5s47.334 -29.5 56.001 -29.5c9.33301 0 28.5 9.16699 57.5 27.5s51.5 27.5 67.5 27.5
c38.667 0 58 -18.667 58 -56c0 -32 -19 -68.333 -57 -109s-72.333 -61 -103 -61c-15.333 0 -39.833 9.83301 -73.5 29.5s-56.167 29.5 -67.5 29.5z" />
    <glyph glyph-name="adieresis" unicode="&#xe4;" horiz-adv-x="1055" 
d="M709 944c10.667 16.667 23 26.6699 37 30.0029c5.33301 1.33301 21.666 2 48.999 2c36.667 0 85.334 8.33301 146.001 25c16.667 4.66699 30 7 40 7c32 0 48 -27 48 -81c0 -65.333 -27.667 -168.333 -83 -309l-125 -310c-12 -34.667 -18 -63.334 -18 -86.001
c0 -29.333 17.5 -49.333 52.5 -60s52.5 -26.334 52.5 -47.001c0 -24 -17 -39.333 -51 -46l-79 -4c-72.667 -4.66699 -145 -21.334 -217 -50.001c-25.333 -10 -43 -15 -53 -15c-34 -0 -51 28.333 -51 85c0 25.333 2.33301 56.333 7 93
c-85.333 -76 -131.333 -116.333 -138 -121c-54.667 -38.667 -111.667 -58 -171 -58c-68.667 0 -125.667 25 -171 75c-44 48 -66 106.667 -66 176c0 134 52 271.333 156 412c96.667 130 209.334 227.333 338.001 292c70 35.333 131.667 53 185 53
c47.333 0 84.666 -21 111.999 -63zM695 823.003c-20.667 -12.667 -37.667 -19 -51 -19c-34 0 -51 17 -51 51c0 3.33301 0.5 8.33301 1.5 15s1.5 11.667 1.5 15c0 10.667 -5 16 -15 16c-18 0 -45 -19.333 -81 -58c-58 -64 -114 -156 -168 -276
c-57.333 -126 -86 -228.333 -86 -307c0 -41.333 14.667 -62 44 -62c42.667 0 96.667 40.667 162 122c44 55.333 84 116 120 182c60 110 101 217 123 321zM950 1493c23.333 0 42.167 -8.5 56.5 -25.5s21.5 -37.5 21.5 -61.5c0 -45.333 -14.667 -88 -44 -128
c-32 -44 -70 -66 -114 -66c-48 0 -72 31.333 -72 94c0 45.333 13.667 87 41 125c30.667 41.333 67.667 62 111 62zM708.001 1497c50.667 0 76 -31 76 -93c0 -45.333 -14.667 -88.333 -44 -129c-32.667 -44 -71 -66 -115 -66c-22.667 0 -41 10 -55 30
c-12.667 17.333 -19 38 -19 62c0 45.333 14.667 88.333 44 129c31.333 44.667 69 67 113 67z" />
    <glyph glyph-name="aring" unicode="&#xe5;" horiz-adv-x="1055" 
d="M709 944c10.667 16.667 23 26.6699 37 30.0029c5.33301 1.33301 21.666 2 48.999 2c36.667 0 85.334 8.33301 146.001 25c16.667 4.66699 30 7 40 7c32 0 48 -27 48 -81c0 -65.333 -27.667 -168.333 -83 -309l-125 -310c-12 -34.667 -18 -63.334 -18 -86.001
c0 -29.333 17.5 -49.333 52.5 -60s52.5 -26.334 52.5 -47.001c0 -24 -17 -39.333 -51 -46l-79 -4c-72.667 -4.66699 -145 -21.334 -217 -50.001c-25.333 -10 -43 -15 -53 -15c-34 -0 -51 28.333 -51 85c0 25.333 2.33301 56.333 7 93
c-85.333 -76 -131.333 -116.333 -138 -121c-54.667 -38.667 -111.667 -58 -171 -58c-68.667 0 -125.667 25 -171 75c-44 48 -66 106.667 -66 176c0 134 52 271.333 156 412c96.667 130 209.334 227.333 338.001 292c70 35.333 131.667 53 185 53
c47.333 0 84.666 -21 111.999 -63zM695 823.003c-20.667 -12.667 -37.667 -19 -51 -19c-34 0 -51 17 -51 51c0 3.33301 0.5 8.33301 1.5 15s1.5 11.667 1.5 15c0 10.667 -5 16 -15 16c-18 0 -45 -19.333 -81 -58c-58 -64 -114 -156 -168 -276
c-57.333 -126 -86 -228.333 -86 -307c0 -41.333 14.667 -62 44 -62c42.667 0 96.667 40.667 162 122c44 55.333 84 116 120 182c60 110 101 217 123 321zM855 1547c41.333 0 74.333 -14.667 99 -44s37 -65 37 -107c0 -53.333 -21.667 -106 -65 -158
c-45.333 -54 -94 -81 -146 -81c-40.667 0 -73.667 16.667 -99 50c-22.667 30 -34 66 -34 108c0 56.667 20.833 109.5 62.5 158.5s90.167 73.5 145.5 73.5zM845 1450c-26.667 0 -51.333 -16 -74 -48c-21.333 -29.333 -32 -58 -32 -86c0 -41.333 17.333 -62 52 -62
c26.667 0 51 18 73 54c20 32 30 62.333 30 91c0 34 -16.333 51 -49 51z" />
    <glyph glyph-name="ae" unicode="&#xe6;" horiz-adv-x="1437" 
d="M1027 961c66 30 130.332 45.001 192.999 45.001c66.667 0 120.667 -17 162 -51c45.333 -36.667 68 -87.667 68 -153c0 -94 -41.5 -181 -124.5 -261s-171.5 -120 -265.5 -120c-70 0 -118 37 -144 111c-50 -100 -75 -194.333 -75 -283c0 -57.333 21 -86 63 -86
s99.333 28.5 172 85.5s112.334 85.5 119.001 85.5c27.333 0 41 -14.667 41 -44c0 -26.667 -36.333 -72.667 -109 -138c-117.333 -106 -234.333 -159 -351 -159c-159.333 0 -248 78 -266 234c-131.333 -154 -250 -231 -356 -231c-68 0 -124.333 24.667 -169 74
s-67 108.333 -67 177c0 133.333 51 269.333 153 408c94 127.333 204.667 224.666 332 291.999c74 39.333 138 59 192 59c54.667 0 93 -21.333 115 -64c10 16.667 24 26.667 42 30c4 0.666992 21.667 1 53 1c24 0 55.5 5.5 94.5 16.5s65.5 16.5 79.5 16.5c26 0 42 -15 48 -45
zM964.999 639.001c10 1.33301 18.667 1.99805 26 1.99805c34.667 0 52 -17.333 52 -52c0 -6 -1.16699 -14.5 -3.5 -25.5s-3.5 -19.5 -3.5 -25.5c0 -10 4.33301 -15 13 -15c10 0 25.667 10.667 47 32c30 30.667 59.667 78.334 89 143.001s44 117.334 44 158.001
c0 27.333 -11.667 41 -35 41c-60.667 0 -137 -86 -229 -258zM695.999 819.999c-18.667 -12.667 -34.666 -19 -47.999 -19c-10 0 -21.333 3.33301 -34 10c-14.667 8 -21.667 16.333 -21 25l3 52c0.666992 6.66699 -4 10 -14 10c-20 0 -47.667 -19.667 -83 -59
c-56.667 -62 -112.334 -154 -167.001 -276c-58 -128.667 -87 -230.667 -87 -306c0 -40 13.333 -60 40 -60c72 0 159 85.333 261 256c70.667 118.667 120.667 241 150 367z" />
    <glyph glyph-name="ccedilla" unicode="&#xe7;" horiz-adv-x="793" 
d="M250 -5c-30 -41.333 -45.002 -66.667 -45.002 -76c0 -10 4.66699 -15 14 -15c2 0 9.66699 2.66699 23 8s25.333 8 36 8c56 0 84 -32.667 84 -98c0 -81.333 -31.167 -154.833 -93.5 -220.5s-134.166 -98.5 -215.499 -98.5c-41.333 0 -75.333 16 -102 48
c-26 30 -39 66 -39 108c0 43.333 18.333 65 55 65c22.667 0 40.667 -18.333 54 -55s35.333 -55 66 -55c34.667 0 66.5 15.5 95.5 46.5s43.5 63.833 43.5 98.5c0 37.333 -16.333 56 -49 56c-8.66699 0 -21.167 -1.83301 -37.5 -5.5s-28.833 -5.5 -37.5 -5.5
c-24 0 -36 11.667 -36 35c0 24.667 24 76.667 72 156c-64.667 6 -117 32.667 -157 80s-60 104 -60 170c0 161.333 75.667 326.333 227 495c154.667 173.333 312 260 472 260c142.667 0 214 -59 214 -177c0 -37.333 -11 -68.666 -33 -93.999
c-23.333 -27.333 -53.333 -41 -90 -41c-27.333 0 -50.666 9.33301 -69.999 28s-29 41.667 -29 69c0 16 5.33301 35.167 16 57.5s16 34.833 16 37.5c0 11.333 -8 17 -24 17c-25.333 0 -56.333 -16.667 -93 -50c-62.667 -57.333 -124 -150.333 -184 -279
c-61.333 -130.667 -92 -236.667 -92 -318c0 -58.667 22.667 -88 68 -88c38.667 0 93.167 27.833 163.5 83.5s111.833 83.5 124.5 83.5c28 0 42 -13.667 42 -41c0 -36 -59 -100 -177 -192c-65.333 -50.667 -139.333 -84.334 -222 -101.001z" />
    <glyph glyph-name="egrave" unicode="&#xe8;" horiz-adv-x="844" 
d="M325 530c-50 -106 -74.998 -200.333 -74.998 -283c0 -57.333 21.333 -86 64 -86c43.333 0 99.833 28.5 169.5 85.5s110.5 85.5 122.5 85.5c26.667 0 40 -14 40 -42c0 -31.333 -41.333 -81.333 -124 -150c-118.667 -98.667 -230.334 -148 -335.001 -148
c-82 0 -147.333 23 -196 69s-73 109.667 -73 191c0 161.333 77.333 326.333 232 495c158 171.333 316.667 257 476 257c67.333 0 121.666 -16.333 162.999 -49c45.333 -36 68 -87 68 -153c0 -94 -41.167 -181.167 -123.5 -261.5s-170.833 -120.5 -265.5 -120.5
c-71.333 0 -119 36.667 -143 110zM372.002 637c11.333 2.66699 20.666 3.99805 27.999 3.99805c33.333 0 50 -19.333 50 -58c0 -5.33301 -1.33301 -13.166 -4 -23.499s-4 -18.166 -4 -23.499c0 -10 4.66699 -15 14 -15c12 0 29.333 12.667 52 38
c28.667 32 56.667 78.333 84 139c29.333 64 44 115.667 44 155c0 28.667 -11.667 43 -35 43c-35.333 0 -79.666 -35 -132.999 -105c-40 -52.667 -72 -104 -96 -154zM528.002 1495c12 0 24.668 -5.33203 38.001 -15.999c57.333 -48.667 106.333 -103.667 147 -165
c8 -13.333 12 -26.333 12 -39c0 -17.333 -8.5 -34.5 -25.5 -51.5s-34.167 -25.5 -51.5 -25.5c-11.333 0 -22.333 3.33301 -33 10c-14 8.66699 -43.333 32.167 -88 70.5s-72.334 64 -83.001 77s-16 26.5 -16 40.5c0 19.333 11.833 40.666 35.5 63.999s45.167 35 64.5 35z" />
    <glyph glyph-name="eacute" unicode="&#xe9;" horiz-adv-x="844" 
d="M325 530c-50 -106 -74.998 -200.333 -74.998 -283c0 -57.333 21.333 -86 64 -86c43.333 0 99.833 28.5 169.5 85.5s110.5 85.5 122.5 85.5c26.667 0 40 -14 40 -42c0 -31.333 -41.333 -81.333 -124 -150c-118.667 -98.667 -230.334 -148 -335.001 -148
c-82 0 -147.333 23 -196 69s-73 109.667 -73 191c0 161.333 77.333 326.333 232 495c158 171.333 316.667 257 476 257c67.333 0 121.666 -16.333 162.999 -49c45.333 -36 68 -87 68 -153c0 -94 -41.167 -181.167 -123.5 -261.5s-170.833 -120.5 -265.5 -120.5
c-71.333 0 -119 36.667 -143 110zM372.002 637c11.333 2.66699 20.666 3.99805 27.999 3.99805c33.333 0 50 -19.333 50 -58c0 -5.33301 -1.33301 -13.166 -4 -23.499s-4 -18.166 -4 -23.499c0 -10 4.66699 -15 14 -15c12 0 29.333 12.667 52 38
c28.667 32 56.667 78.333 84 139c29.333 64 44 115.667 44 155c0 28.667 -11.667 43 -35 43c-35.333 0 -79.666 -35 -132.999 -105c-40 -52.667 -72 -104 -96 -154zM759.002 1495c20.667 0 42.5 -11.667 65.5 -35s34.5 -45.333 34.5 -66
c0 -12.667 -5.83301 -26.167 -17.5 -40.5s-38.667 -39.5 -81 -75.5s-71.833 -59.333 -88.5 -70c-10.667 -6.66699 -21.334 -10 -32.001 -10c-17.333 0 -34.666 8.5 -51.999 25.5s-26 34.167 -26 51.5c0 13.333 4 26 12 38c43.333 66 92.333 121.333 147 166
c13.333 10.667 26 16 38 16z" />
    <glyph glyph-name="ecircumflex" unicode="&#xea;" horiz-adv-x="844" 
d="M325 530c-50 -106 -74.998 -200.333 -74.998 -283c0 -57.333 21.333 -86 64 -86c43.333 0 99.833 28.5 169.5 85.5s110.5 85.5 122.5 85.5c26.667 0 40 -14 40 -42c0 -31.333 -41.333 -81.333 -124 -150c-118.667 -98.667 -230.334 -148 -335.001 -148
c-82 0 -147.333 23 -196 69s-73 109.667 -73 191c0 161.333 77.333 326.333 232 495c158 171.333 316.667 257 476 257c67.333 0 121.666 -16.333 162.999 -49c45.333 -36 68 -87 68 -153c0 -94 -41.167 -181.167 -123.5 -261.5s-170.833 -120.5 -265.5 -120.5
c-71.333 0 -119 36.667 -143 110zM372.002 637c11.333 2.66699 20.666 3.99805 27.999 3.99805c33.333 0 50 -19.333 50 -58c0 -5.33301 -1.33301 -13.166 -4 -23.499s-4 -18.166 -4 -23.499c0 -10 4.66699 -15 14 -15c12 0 29.333 12.667 52 38
c28.667 32 56.667 78.333 84 139c29.333 64 44 115.667 44 155c0 28.667 -11.667 43 -35 43c-35.333 0 -79.666 -35 -132.999 -105c-40 -52.667 -72 -104 -96 -154zM709.002 1350l-106.999 -80.001c-56.667 -40.667 -92.667 -61 -108 -61c-12 0 -25.167 10.833 -39.5 32.5
s-21.5 39.167 -21.5 52.5c0 14 13 28.333 39 43c63.333 36 126 75 188 117c41.333 28 68.666 42 81.999 42c19.333 0 47.333 -24.667 84 -74l58 -71c28 -35.333 42 -58 42 -68c0 -11.333 -11.5 -27.166 -34.5 -47.499s-40.5 -30.5 -52.5 -30.5c-10 0 -32 21 -66 63z" />
    <glyph glyph-name="edieresis" unicode="&#xeb;" horiz-adv-x="844" 
d="M325 530c-50 -106 -74.998 -200.333 -74.998 -283c0 -57.333 21.333 -86 64 -86c43.333 0 99.833 28.5 169.5 85.5s110.5 85.5 122.5 85.5c26.667 0 40 -14 40 -42c0 -31.333 -41.333 -81.333 -124 -150c-118.667 -98.667 -230.334 -148 -335.001 -148
c-82 0 -147.333 23 -196 69s-73 109.667 -73 191c0 161.333 77.333 326.333 232 495c158 171.333 316.667 257 476 257c67.333 0 121.666 -16.333 162.999 -49c45.333 -36 68 -87 68 -153c0 -94 -41.167 -181.167 -123.5 -261.5s-170.833 -120.5 -265.5 -120.5
c-71.333 0 -119 36.667 -143 110zM372.002 637c11.333 2.66699 20.666 3.99805 27.999 3.99805c33.333 0 50 -19.333 50 -58c0 -5.33301 -1.33301 -13.166 -4 -23.499s-4 -18.166 -4 -23.499c0 -10 4.66699 -15 14 -15c12 0 29.333 12.667 52 38
c28.667 32 56.667 78.333 84 139c29.333 64 44 115.667 44 155c0 28.667 -11.667 43 -35 43c-35.333 0 -79.666 -35 -132.999 -105c-40 -52.667 -72 -104 -96 -154zM841.002 1493c23.333 0 42.167 -8.5 56.5 -25.5s21.5 -37.5 21.5 -61.5c0 -45.333 -14.667 -88 -44 -128
c-32 -44 -70 -66 -114 -66c-48 0 -72 31.333 -72 94c0 45.333 13.667 87 41 125c30.667 41.333 67.667 62 111 62zM599.003 1497c50.667 0 76 -31 76 -93c0 -45.333 -14.667 -88.333 -44 -129c-32.667 -44 -71 -66 -115 -66c-22.667 0 -41 10 -55 30
c-12.667 17.333 -19 38 -19 62c0 45.333 14.667 88.333 44 129c31.333 44.667 69 67 113 67z" />
    <glyph glyph-name="igrave" unicode="&#xec;" horiz-adv-x="560" 
d="M179 966c91.333 0 168.666 9.33398 231.999 28.001c24.667 7.33301 42.334 11 53.001 11c34.667 0 52 -29 52 -87c0 -70 -30 -175.667 -90 -317c-72 -169.333 -113.333 -276.666 -124 -321.999c-8.66699 -37.333 -13.667 -86.333 -15 -147
c-0.666992 -25.333 -6.16699 -43.333 -16.5 -54s-32.166 -18.334 -65.499 -23.001c-48 -7.33301 -106.667 -22.333 -176 -45c-18 -6 -32.333 -9 -43 -9c-31.333 0 -47 29 -47 87c0 74.667 21.333 168 64 280c12.667 32.667 51.667 121.667 117 267c44 98 66 162.667 66 194
c0 25.333 -18.167 42.666 -54.5 51.999s-54.5 24 -54.5 44c0 23.333 12.667 37 38 41c-0.666992 0 20.666 0 63.999 0zM300 1495c12 0 24.668 -5.33203 38.001 -15.999c57.333 -48.667 106.333 -103.667 147 -165c8 -13.333 12 -26.333 12 -39
c0 -17.333 -8.5 -34.5 -25.5 -51.5s-34.167 -25.5 -51.5 -25.5c-11.333 0 -22.333 3.33301 -33 10c-14 8.66699 -43.333 32.167 -88 70.5s-72.334 64 -83.001 77s-16 26.5 -16 40.5c0 19.333 11.833 40.666 35.5 63.999s45.167 35 64.5 35z" />
    <glyph glyph-name="iacute" unicode="&#xed;" horiz-adv-x="560" 
d="M179 966c91.333 0 168.666 9.33398 231.999 28.001c24.667 7.33301 42.334 11 53.001 11c34.667 0 52 -29 52 -87c0 -70 -30 -175.667 -90 -317c-72 -169.333 -113.333 -276.666 -124 -321.999c-8.66699 -37.333 -13.667 -86.333 -15 -147
c-0.666992 -25.333 -6.16699 -43.333 -16.5 -54s-32.166 -18.334 -65.499 -23.001c-48 -7.33301 -106.667 -22.333 -176 -45c-18 -6 -32.333 -9 -43 -9c-31.333 0 -47 29 -47 87c0 74.667 21.333 168 64 280c12.667 32.667 51.667 121.667 117 267c44 98 66 162.667 66 194
c0 25.333 -18.167 42.666 -54.5 51.999s-54.5 24 -54.5 44c0 23.333 12.667 37 38 41c-0.666992 0 20.666 0 63.999 0zM489 1495c20.667 0 42.5 -11.667 65.5 -35s34.5 -45.333 34.5 -66c0 -12.667 -5.83301 -26.167 -17.5 -40.5s-38.667 -39.5 -81 -75.5
s-71.833 -59.333 -88.5 -70c-10.667 -6.66699 -21.334 -10 -32.001 -10c-17.333 0 -34.666 8.5 -51.999 25.5s-26 34.167 -26 51.5c0 13.333 4 26 12 38c43.333 66 92.333 121.333 147 166c13.333 10.667 26 16 38 16z" />
    <glyph glyph-name="icircumflex" unicode="&#xee;" horiz-adv-x="560" 
d="M179 966c91.333 0 168.666 9.33398 231.999 28.001c24.667 7.33301 42.334 11 53.001 11c34.667 0 52 -29 52 -87c0 -70 -30 -175.667 -90 -317c-72 -169.333 -113.333 -276.666 -124 -321.999c-8.66699 -37.333 -13.667 -86.333 -15 -147
c-0.666992 -25.333 -6.16699 -43.333 -16.5 -54s-32.166 -18.334 -65.499 -23.001c-48 -7.33301 -106.667 -22.333 -176 -45c-18 -6 -32.333 -9 -43 -9c-31.333 0 -47 29 -47 87c0 74.667 21.333 168 64 280c12.667 32.667 51.667 121.667 117 267c44 98 66 162.667 66 194
c0 25.333 -18.167 42.666 -54.5 51.999s-54.5 24 -54.5 44c0 23.333 12.667 37 38 41c-0.666992 0 20.666 0 63.999 0zM410 1350l-106.999 -80.001c-56.667 -40.667 -92.667 -61 -108 -61c-12 0 -25.167 10.833 -39.5 32.5s-21.5 39.167 -21.5 52.5c0 14 13 28.333 39 43
c63.333 36 126 75 188 117c41.333 28 68.666 42 81.999 42c19.333 0 47.333 -24.667 84 -74l58 -71c28 -35.333 42 -58 42 -68c0 -11.333 -11.5 -27.166 -34.5 -47.499s-40.5 -30.5 -52.5 -30.5c-10 0 -32 21 -66 63z" />
    <glyph glyph-name="idieresis" unicode="&#xef;" horiz-adv-x="560" 
d="M179 966c91.333 0 168.666 9.33398 231.999 28.001c24.667 7.33301 42.334 11 53.001 11c34.667 0 52 -29 52 -87c0 -70 -30 -175.667 -90 -317c-72 -169.333 -113.333 -276.666 -124 -321.999c-8.66699 -37.333 -13.667 -86.333 -15 -147
c-0.666992 -25.333 -6.16699 -43.333 -16.5 -54s-32.166 -18.334 -65.499 -23.001c-48 -7.33301 -106.667 -22.333 -176 -45c-18 -6 -32.333 -9 -43 -9c-31.333 0 -47 29 -47 87c0 74.667 21.333 168 64 280c12.667 32.667 51.667 121.667 117 267c44 98 66 162.667 66 194
c0 25.333 -18.167 42.666 -54.5 51.999s-54.5 24 -54.5 44c0 23.333 12.667 37 38 41c-0.666992 0 20.666 0 63.999 0zM556 1493c23.333 0 42.167 -8.5 56.5 -25.5s21.5 -37.5 21.5 -61.5c0 -45.333 -14.667 -88 -44 -128c-32 -44 -70 -66 -114 -66c-48 0 -72 31.333 -72 94
c0 45.333 13.667 87 41 125c30.667 41.333 67.667 62 111 62zM314.001 1497c50.667 0 76 -31 76 -93c0 -46 -14.667 -89 -44 -129c-32 -44 -70.333 -66 -115 -66c-22.667 0 -41 10 -55 30c-12.667 17.333 -19 38 -19 62c0 45.333 14.667 88.333 44 129
c32 44.667 69.667 67 113 67z" />
    <glyph glyph-name="eth" unicode="&#xf0;" horiz-adv-x="912" 
d="M640 915c10.667 64.667 16.333 138.665 17 221.998c-66 -16.667 -107.667 -25 -125 -25c-27.333 0 -41 25 -41 75c0 11.333 2.66699 19 8 23c38.667 6.66699 90 19 154 37c-4 68 -9.66699 112 -17 132c4 15.333 17 23 39 23c14 0 41.667 -44 83 -132
c14 0.666992 38 5 72 13c32 7.33301 53.667 11 65 11c24.667 0 37 -23.333 37 -70c0 -15.333 -3.66699 -25.666 -11 -30.999c-3.33301 -3.33301 -44.333 -13 -123 -29c38 -128.667 57 -257 57 -385c0 -169.333 -56 -328.666 -168 -477.999
c-64.667 -86 -139 -156.667 -223 -212c-97.333 -64 -193 -96 -287 -96c-78.667 0 -142.334 21.333 -191.001 64c-50.667 44.667 -76 105.667 -76 183c0 126.667 60.667 259 182 397c114.667 130 235.667 215 363 255c48.667 15.333 110.334 23 185.001 23zM573.999 806.998
c-64 0 -137.667 -77.667 -221 -233c-72 -134 -108 -242.667 -108 -326c0 -56 22.333 -84 67 -84c29.333 0 64.333 20.667 105 62c50.667 52 99 129.667 145 233c47.333 106.667 71 194.667 71 264c0 56 -19.667 84 -59 84z" />
    <glyph glyph-name="ntilde" unicode="&#xf1;" horiz-adv-x="1096" 
d="M503 826c58.667 59.333 107.668 101.335 147.001 126.002c57.333 36.667 118.333 55 183 55c58.667 0 105.834 -18.833 141.501 -56.5s53.5 -86.167 53.5 -145.5s-28.333 -156.333 -85 -291c-64 -152 -96 -250.333 -96 -295c0 -29.333 16.5 -48.5 49.5 -57.5
s49.5 -23.833 49.5 -44.5s-11.667 -35.334 -35 -44.001c-6.66699 -2.66699 -38.834 -5 -96.501 -7s-131.167 -20 -220.5 -54c-21.333 -8 -39 -12 -53 -12c-32 0 -48 28.333 -48 85c0 78.667 46.667 230.667 140 456c56 135.333 84 212.333 84 231c0 26.667 -11 40 -33 40
c-28 0 -69 -27.667 -123 -83c-115.333 -118.667 -196.333 -254.334 -243 -407.001c-17.333 -54.667 -27 -123.334 -29 -206.001c-0.666992 -24 -5.33398 -39.167 -14.001 -45.5s-37.334 -13.166 -86.001 -20.499c-15.333 -2 -40.666 -7.66699 -75.999 -17
c-87.333 -23.333 -129.333 -35 -126 -35c-32.667 0 -49 29.333 -49 88c0 101.333 70.333 306.333 211 615c27.333 60 41 101.333 41 124c0 28 -18.667 46.167 -56 54.5s-56 22.5 -56 42.5c0 30.667 19.333 46 58 46c8 0 22.667 -0.333008 44 -1h43c63.333 0 127 9 191 27
c21.333 6 38 9 50 9c35.333 0 53 -26 53 -78c0 -26.667 -4.66699 -59.667 -14 -99zM664.001 1290c-11.333 0 -30.835 -9.33203 -58.502 -27.999s-48.834 -28 -63.501 -28c-15.333 0 -28.666 6.16699 -39.999 18.5s-17 26.166 -17 41.499c0 34.667 19.5 71.167 58.5 109.5
s76.167 57.5 111.5 57.5c18.667 0 42.334 -9.83301 71.001 -29.5s47.334 -29.5 56.001 -29.5c9.33301 0 28.5 9.16699 57.5 27.5s51.5 27.5 67.5 27.5c38.667 0 58 -18.667 58 -56c0 -32 -19 -68.333 -57 -109s-72.333 -61 -103 -61c-15.333 0 -39.833 9.83301 -73.5 29.5
s-56.167 29.5 -67.5 29.5z" />
    <glyph glyph-name="ograve" unicode="&#xf2;" horiz-adv-x="906" 
d="M632 1002c155.333 0 233 -78.667 233 -236c0 -162 -73.333 -329.667 -220 -503c-152 -180 -307.667 -270 -467 -270c-79.333 0 -142.5 23.5 -189.5 70.5s-70.5 110.167 -70.5 189.5c0 162.667 78 327.667 234 495c158.667 169.333 318.667 254 480 254zM597 893
c-53.333 0 -116.999 -65.668 -190.999 -197.001c-54.667 -98 -95.334 -189 -122.001 -273c-22.667 -71.333 -34 -128.333 -34 -171c0 -58.667 21 -88 63 -88c29.333 0 65 22.667 107 68c55.333 60.667 108.333 151.334 159 272.001c51.333 123.333 77 224.333 77 303
c0 57.333 -19.667 86 -59 86zM590.001 1495c12 0 24.668 -5.33203 38.001 -15.999c57.333 -48.667 106.333 -103.667 147 -165c8 -13.333 12 -26.333 12 -39c0 -17.333 -8.5 -34.5 -25.5 -51.5s-34.167 -25.5 -51.5 -25.5c-11.333 0 -22.333 3.33301 -33 10
c-14 8.66699 -43.333 32.167 -88 70.5s-72.334 64 -83.001 77s-16 26.5 -16 40.5c0 19.333 11.833 40.666 35.5 63.999s45.167 35 64.5 35z" />
    <glyph glyph-name="oacute" unicode="&#xf3;" horiz-adv-x="906" 
d="M632 1002c155.333 0 233 -78.667 233 -236c0 -162 -73.333 -329.667 -220 -503c-152 -180 -307.667 -270 -467 -270c-79.333 0 -142.5 23.5 -189.5 70.5s-70.5 110.167 -70.5 189.5c0 162.667 78 327.667 234 495c158.667 169.333 318.667 254 480 254zM597 893
c-53.333 0 -116.999 -65.668 -190.999 -197.001c-54.667 -98 -95.334 -189 -122.001 -273c-22.667 -71.333 -34 -128.333 -34 -171c0 -58.667 21 -88 63 -88c29.333 0 65 22.667 107 68c55.333 60.667 108.333 151.334 159 272.001c51.333 123.333 77 224.333 77 303
c0 57.333 -19.667 86 -59 86zM764.001 1495c20.667 0 42.5 -11.667 65.5 -35s34.5 -45.333 34.5 -66c0 -12.667 -5.83301 -26.167 -17.5 -40.5s-38.667 -39.5 -81 -75.5s-71.833 -59.333 -88.5 -70c-10.667 -6.66699 -21.334 -10 -32.001 -10
c-17.333 0 -34.666 8.5 -51.999 25.5s-26 34.167 -26 51.5c0 13.333 4 26 12 38c43.333 66 92.333 121.333 147 166c13.333 10.667 26 16 38 16z" />
    <glyph glyph-name="ocircumflex" unicode="&#xf4;" horiz-adv-x="906" 
d="M632 1002c155.333 0 233 -78.667 233 -236c0 -162 -73.333 -329.667 -220 -503c-152 -180 -307.667 -270 -467 -270c-79.333 0 -142.5 23.5 -189.5 70.5s-70.5 110.167 -70.5 189.5c0 162.667 78 327.667 234 495c158.667 169.333 318.667 254 480 254zM597 893
c-53.333 0 -116.999 -65.668 -190.999 -197.001c-54.667 -98 -95.334 -189 -122.001 -273c-22.667 -71.333 -34 -128.333 -34 -171c0 -58.667 21 -88 63 -88c29.333 0 65 22.667 107 68c55.333 60.667 108.333 151.334 159 272.001c51.333 123.333 77 224.333 77 303
c0 57.333 -19.667 86 -59 86zM714.001 1350l-106.999 -80.001c-56.667 -40.667 -92.667 -61 -108 -61c-12 0 -25.167 10.833 -39.5 32.5s-21.5 39.167 -21.5 52.5c0 14 13 28.333 39 43c63.333 36 126 75 188 117c41.333 28 68.666 42 81.999 42
c19.333 0 47.333 -24.667 84 -74l58 -71c28 -35.333 42 -58 42 -68c0 -11.333 -11.5 -27.166 -34.5 -47.499s-40.5 -30.5 -52.5 -30.5c-10 0 -32 21 -66 63z" />
    <glyph glyph-name="otilde" unicode="&#xf5;" horiz-adv-x="906" 
d="M632 1002c155.333 0 233 -78.667 233 -236c0 -162 -73.333 -329.667 -220 -503c-152 -180 -307.667 -270 -467 -270c-79.333 0 -142.5 23.5 -189.5 70.5s-70.5 110.167 -70.5 189.5c0 162.667 78 327.667 234 495c158.667 169.333 318.667 254 480 254zM597 893
c-53.333 0 -116.999 -65.668 -190.999 -197.001c-54.667 -98 -95.334 -189 -122.001 -273c-22.667 -71.333 -34 -128.333 -34 -171c0 -58.667 21 -88 63 -88c29.333 0 65 22.667 107 68c55.333 60.667 108.333 151.334 159 272.001c51.333 123.333 77 224.333 77 303
c0 57.333 -19.667 86 -59 86zM611.001 1290c-11.333 0 -30.835 -9.33203 -58.502 -27.999s-48.834 -28 -63.501 -28c-15.333 0 -28.666 6.16699 -39.999 18.5s-17 26.166 -17 41.499c0 34.667 19.5 71.167 58.5 109.5s76.167 57.5 111.5 57.5
c18.667 0 42.334 -9.83301 71.001 -29.5s47.334 -29.5 56.001 -29.5c9.33301 0 28.5 9.16699 57.5 27.5s51.5 27.5 67.5 27.5c38.667 0 58 -18.667 58 -56c0 -32 -19 -68.333 -57 -109s-72.333 -61 -103 -61c-15.333 0 -39.833 9.83301 -73.5 29.5s-56.167 29.5 -67.5 29.5z
" />
    <glyph glyph-name="odieresis" unicode="&#xf6;" horiz-adv-x="906" 
d="M632 1002c155.333 0 233 -78.667 233 -236c0 -162 -73.333 -329.667 -220 -503c-152 -180 -307.667 -270 -467 -270c-79.333 0 -142.5 23.5 -189.5 70.5s-70.5 110.167 -70.5 189.5c0 162.667 78 327.667 234 495c158.667 169.333 318.667 254 480 254zM597 893
c-53.333 0 -116.999 -65.668 -190.999 -197.001c-54.667 -98 -95.334 -189 -122.001 -273c-22.667 -71.333 -34 -128.333 -34 -171c0 -58.667 21 -88 63 -88c29.333 0 65 22.667 107 68c55.333 60.667 108.333 151.334 159 272.001c51.333 123.333 77 224.333 77 303
c0 57.333 -19.667 86 -59 86zM867.001 1493c23.333 0 42.167 -8.5 56.5 -25.5s21.5 -37.5 21.5 -61.5c0 -45.333 -14.667 -88 -44 -128c-32 -44 -70 -66 -114 -66c-48 0 -72 31.333 -72 94c0 45.333 13.667 87 41 125c30.667 41.333 67.667 62 111 62zM625.002 1497
c50.667 0 76 -31 76 -93c0 -45.333 -14.667 -88.333 -44 -129c-32.667 -44 -71 -66 -115 -66c-22.667 0 -41 10 -55 30c-12.667 17.333 -19 38 -19 62c0 45.333 14.667 88.333 44 129c31.333 44.667 69 67 113 67z" />
    <glyph glyph-name="divide" unicode="&#xf7;" 
d="M217 648c-8.66699 0 -21.667 0.334961 -39 1.00195h-39c-32.667 0 -49 10.667 -49 32c0 25.333 11 62 33 110c6 13.333 14 21.666 24 24.999c8 2 36.667 3 86 3l804 1c39.333 0 59 -10.333 59 -31c0 -8.66699 -3.33301 -27.334 -10 -56.001
c-10 -44 -20.667 -69.667 -32 -77c-8 -5.33301 -35.333 -8 -82 -8h-755zM562 526.002c28.667 0 52.667 -9.66699 72 -29s29 -43.333 29 -72c0 -44 -27.333 -83.333 -82 -118c-48.667 -31.333 -96.667 -47 -144 -47c-30 0 -55.5 9.66699 -76.5 29s-31.5 43.666 -31.5 72.999
c0 48.667 27.667 89.334 83 122.001c47.333 28 97.333 42 150 42zM760 1205c29.333 0 53.499 -9.5 72.499 -28.5s28.5 -43.167 28.5 -72.5c0 -44 -27.333 -83.333 -82 -118c-49.333 -31.333 -97.666 -47 -144.999 -47c-29.333 0 -54.5 9.66699 -75.5 29
s-31.5 43.666 -31.5 72.999c0 48.667 27.667 89.334 83 122.001c47.333 28 97.333 42 150 42z" />
    <glyph glyph-name="oslash" unicode="&#xf8;" horiz-adv-x="989" 
d="M913 800c0.666992 -17.333 0.996094 -30 0.996094 -38c0 -80 -23.667 -169 -71 -267c-41.333 -84 -92.666 -162 -153.999 -234c-151.333 -176 -306.333 -264 -465 -264c-88 0 -157.667 33.667 -209 101c-18.667 -17.333 -33.667 -33.666 -45 -48.999
c-32 -44 -56 -66 -72 -66c-15.333 0 -31.166 8.16699 -47.499 24.5s-24.5 32.166 -24.5 47.499c0 23.333 19.333 53 58 89l85 78c-2 23.333 -3 40.333 -3 51c0 90 37.667 194.667 113 314c71.333 112.667 156 206.667 254 282c116.667 90 232.334 135 347.001 135
c76.667 0 139.334 -25.333 188.001 -76c24 28 52.667 59 86 93c7.33301 4.66699 16.333 7 27 7c17.333 0 32.5 -8 45.5 -24s19.5 -33 19.5 -51c0 -22 -18 -50.667 -54 -86zM700.996 773c2.66699 17.333 4 30.667 4 40c0 54.667 -19 82 -57 82
c-72 0 -166.667 -127.667 -284 -383zM653.996 590.001c-18.667 -16 -74.333 -57.667 -167 -125l-178 -128c-7.33301 -27.333 -11 -53.333 -11 -78c0 -61.333 20.667 -92 62 -92c56.667 0 117.667 57.333 183 172c44.667 78 81.667 161.667 111 251z" />
    <glyph glyph-name="ugrave" unicode="&#xf9;" horiz-adv-x="1058" 
d="M461 169c-58.667 -56.667 -106.997 -96.6709 -144.997 -120.004c-57.333 -35.333 -116.666 -53 -177.999 -53c-55.333 0 -101.333 19.167 -138 57.5s-55 85.166 -55 140.499c0 56 26 143 78 261l120 263c20 51.333 30 88 30 110c0 27.333 -18.167 44 -54.5 50
s-54.5 21 -54.5 45c0 21.333 13.667 34.333 41 39c6.66699 1.33301 28.667 2 66 2c94.667 0 168 8.66699 220 26c25.333 8.66699 45.666 13 60.999 13c35.333 0 53 -28.333 53 -85c0 -58 -26 -152 -78 -282c-4.66699 -12.667 -44.334 -104 -119.001 -274
c-31.333 -71.333 -47 -116.666 -47 -135.999c0 -20 10 -30 30 -30c31.333 0 71.666 24.667 120.999 74c99.333 100 181.666 238.333 246.999 415c27.333 73.333 41 132 41 176c0 48 6.33301 77.667 19 89c10 8.66699 40.333 16 91 22c60.667 6.66699 95 11.334 103 14.001
c29.333 8.66699 50 13 62 13c37.333 0 56 -29 56 -87c0 -61.333 -26.667 -157.666 -80 -288.999l-122 -293c-18 -52 -27 -92.333 -27 -121c0 -26.667 17.333 -45 52 -55s52 -26.667 52 -50c0 -19.333 -12.333 -32.666 -37 -39.999c-4 -1.33301 -33.333 -4 -88 -8
c-66.667 -5.33301 -142 -22.666 -226 -51.999c-17.333 -6 -32 -9 -44 -9c-38.667 0 -58 30 -58 90c0 15.333 2.66699 43.333 8 84zM527.003 1495c12 0 24.668 -5.33203 38.001 -15.999c57.333 -48.667 106.333 -103.667 147 -165c8 -13.333 12 -26.333 12 -39
c0 -17.333 -8.5 -34.5 -25.5 -51.5s-34.167 -25.5 -51.5 -25.5c-11.333 0 -22.333 3.33301 -33 10c-14 8.66699 -43.333 32.167 -88 70.5s-72.334 64 -83.001 77s-16 26.5 -16 40.5c0 19.333 11.833 40.666 35.5 63.999s45.167 35 64.5 35z" />
    <glyph glyph-name="uacute" unicode="&#xfa;" horiz-adv-x="1058" 
d="M461 169c-58.667 -56.667 -106.997 -96.6709 -144.997 -120.004c-57.333 -35.333 -116.666 -53 -177.999 -53c-55.333 0 -101.333 19.167 -138 57.5s-55 85.166 -55 140.499c0 56 26 143 78 261l120 263c20 51.333 30 88 30 110c0 27.333 -18.167 44 -54.5 50
s-54.5 21 -54.5 45c0 21.333 13.667 34.333 41 39c6.66699 1.33301 28.667 2 66 2c94.667 0 168 8.66699 220 26c25.333 8.66699 45.666 13 60.999 13c35.333 0 53 -28.333 53 -85c0 -58 -26 -152 -78 -282c-4.66699 -12.667 -44.334 -104 -119.001 -274
c-31.333 -71.333 -47 -116.666 -47 -135.999c0 -20 10 -30 30 -30c31.333 0 71.666 24.667 120.999 74c99.333 100 181.666 238.333 246.999 415c27.333 73.333 41 132 41 176c0 48 6.33301 77.667 19 89c10 8.66699 40.333 16 91 22c60.667 6.66699 95 11.334 103 14.001
c29.333 8.66699 50 13 62 13c37.333 0 56 -29 56 -87c0 -61.333 -26.667 -157.666 -80 -288.999l-122 -293c-18 -52 -27 -92.333 -27 -121c0 -26.667 17.333 -45 52 -55s52 -26.667 52 -50c0 -19.333 -12.333 -32.666 -37 -39.999c-4 -1.33301 -33.333 -4 -88 -8
c-66.667 -5.33301 -142 -22.666 -226 -51.999c-17.333 -6 -32 -9 -44 -9c-38.667 0 -58 30 -58 90c0 15.333 2.66699 43.333 8 84zM772.003 1495c20.667 0 42.5 -11.667 65.5 -35s34.5 -45.333 34.5 -66c0 -12.667 -5.83301 -26.167 -17.5 -40.5s-38.667 -39.5 -81 -75.5
s-71.833 -59.333 -88.5 -70c-10.667 -6.66699 -21.334 -10 -32.001 -10c-17.333 0 -34.666 8.5 -51.999 25.5s-26 34.167 -26 51.5c0 13.333 4 26 12 38c43.333 66 92.333 121.333 147 166c13.333 10.667 26 16 38 16z" />
    </font>
</defs>
</svg>
